<?xml version="1.0" standalone="no"?>
<!DOCTYPE svg PUBLIC "-//W3C//DTD SVG 1.1//EN" "http://www.w3.org/Graphics/SVG/1.1/DTD/svg11.dtd" >
<svg>
    <metadata>
        Created by FontForge 20090622 at Wed Mar 16 09:59:28 2016
        By deploy user
    </metadata>
    <defs>
        <font id="AxisStd-ExtraLight" horiz-adv-x="1000">
            <font-face
                    font-family="AxisStd-ExtraLight"
                    font-weight="200"
                    font-stretch="normal"
                    units-per-em="1000"
                    panose-1="2 0 3 3 0 0 0 0 0 0"
                    ascent="800"
                    descent="-200"
                    bbox="0 -240 1000 929"
                    underline-thickness="50"
                    underline-position="-100"
            />
            <missing-glyph
            />
            <glyph glyph-name=".notdef"
            />
            <glyph glyph-name=".null" horiz-adv-x="0"
            />
            <glyph glyph-name="nonmarkingreturn" horiz-adv-x="333"
            />
            <glyph glyph-name="Identity.1" horiz-adv-x="270"
            />
            <glyph glyph-name="Identity.2" horiz-adv-x="263"
                   d="M109 768h45v-290l-5 -258h-35l-5 258v290zM107 66h49v-66h-49v66z"/>
            <glyph glyph-name="Identity.3" horiz-adv-x="389"
                   d="M144 768l-10 -247h-28l-9 247h47zM292 768l-10 -247h-28l-10 247h48z"/>
            <glyph glyph-name="Identity.4" horiz-adv-x="571"
                   d="M178 0h-39l24 250h-111v38h113l22 223h-135v38h138l20 219h39l-21 -219h142l21 219h38l-21 -219h111v-38h-114l-21 -223h135v-38h-139l-23 -250h-38l24 250h-142zM346 288l21 223h-143l-22 -223h144z"/>
            <glyph glyph-name="Identity.5" horiz-adv-x="581"
                   d="M279 754v103h32v-103q51 -1 103 -15t80 -31l-13 -35q-28 16 -80 30t-97 14q-70 0 -122.5 -33.5t-52.5 -106.5q0 -30 11 -52.5t38.5 -42t50.5 -31t70 -31.5q108 -46 156.5 -91t48.5 -121q0 -90 -52.5 -139t-140.5 -55v-123h-32v122q-117 2 -229 47l13 39q109 -48 224 -48
q76 0 125 36t49 120q0 59 -46 98.5t-138 80.5q-52 22 -78.5 36t-56.5 36.5t-42.5 50.5t-12.5 66q0 82 54 128t138 51z"/>
            <glyph glyph-name="Identity.6" horiz-adv-x="740"
                   d="M206 451h-1q-71 0 -103.5 45.5t-32.5 119.5q0 72 33 117.5t104 45.5q72 0 105.5 -45t33.5 -118q0 -74 -33 -119.5t-106 -45.5zM206 483h1q102 0 102 133q0 132 -103 132q-102 0 -102 -132q0 -133 102 -133zM604 768l-446 -768h-39l447 768h38zM534 -9h-1
q-71 0 -104.5 45.5t-33.5 119.5q0 72 33.5 117.5t105.5 45.5t104.5 -45t32.5 -118q0 -74 -32.5 -119.5t-104.5 -45.5zM533 23h1q102 0 102 133q0 132 -103 132t-103 -132q0 -133 103 -133z"/>
            <glyph glyph-name="Identity.7" horiz-adv-x="718"
                   d="M667 -13q-69 55 -138 120q-87 -123 -223 -123q-89 0 -152.5 49t-63.5 155q0 81 42 132.5t116 88.5q-86 115 -86 200q0 71 42 122.5t130 51.5q84 0 123 -48t39 -117q0 -75 -44.5 -122t-147.5 -97q75 -100 219 -234q55 90 78 224l39 -10q-26 -147 -87 -239q63 -62 140 -120
zM458 617v1q0 56 -31.5 92.5t-93.5 36.5q-67 0 -98.5 -41.5t-31.5 -99.5q0 -81 80 -180q42 20 66 34t53 37.5t42.5 53t13.5 66.5zM270 381q-69 -36 -103.5 -79.5t-34.5 -111.5q0 -74 44 -120.5t131 -46.5q118 0 193 111q-65 58 -130 128.5t-100 118.5z"/>
            <glyph glyph-name="Identity.8" horiz-adv-x="241"
                   d="M144 768l-10 -247h-28l-9 247h47z"/>
            <glyph glyph-name="Identity.9" horiz-adv-x="381"
                   d="M99 306l-1 1q0 333 175 499l31 -11q-165 -161 -165 -489q0 -325 165 -486l-31 -11q-174 165 -174 497z"/>
            <glyph glyph-name="Identity.10" horiz-adv-x="381"
                   d="M282 306v-1q0 -331 -174 -496l-31 11q164 161 164 486q0 328 -164 489l31 11q174 -165 174 -500z"/>
            <glyph glyph-name="Identity.11" horiz-adv-x="279"
                   d="M152 683l87 50l14 -22l-87 -51l87 -51l-14 -22l-87 50v-100h-25v100l-87 -50l-13 23l87 50l-87 50l13 23l87 -50v100h25v-100z"/>
            <glyph glyph-name="Identity.12" horiz-adv-x="600"
                   d="M281 124v217h-216v37h216v217h38v-217h216v-37h-216v-217h-38z"/>
            <glyph glyph-name="Identity.13" horiz-adv-x="264"
                   d="M179 117q-9 -54 -33 -135.5t-47 -135.5l-34 5q50 120 67 271z"/>
            <glyph glyph-name="Identity.14" horiz-adv-x="339"
                   d="M64 345h211v-38h-211v38z"/>
            <glyph glyph-name="Identity.15" horiz-adv-x="262"
                   d="M161 72v-72h-60v72h60z"/>
            <glyph glyph-name="Identity.16" horiz-adv-x="477"
                   d="M436 768l-361 -883h-34l361 883h34z"/>
            <glyph glyph-name="Identity.17" horiz-adv-x="653"
                   d="M572 383v-1q0 -200 -63 -299t-183 -99q-119 0 -182 99.5t-63 299.5q0 201 63 301t182 100t182.5 -100t63.5 -301zM124 383v-1q0 -359 202 -359q203 0 203 360q0 362 -203 362q-202 0 -202 -362z"/>
            <glyph glyph-name="Identity.18" horiz-adv-x="653"
                   d="M323 724q-68 -43 -164 -80l-9 35q50 19 105 47.5t78 47.5h33v-774h-43v724z"/>
            <glyph glyph-name="Identity.19" horiz-adv-x="653"
                   d="M485 587v1q0 68 -42 111t-121 43q-96 0 -200 -61l-11 38q101 62 213 62q94 0 148.5 -50t54.5 -142q0 -69 -42 -150t-154 -207q-87 -99 -184 -193h406v-39h-458v37q108 108 197 209q110 125 151.5 202.5t41.5 138.5z"/>
            <glyph glyph-name="Identity.20" horiz-adv-x="653"
                   d="M332 407q206 -6 206 -187q0 -97 -63 -165t-198 -68q-87 0 -161 23l7 40q71 -24 154 -24q97 0 157.5 48.5t60.5 146.5q0 82 -52.5 121t-172.5 39h-64v37h48q102 0 159 49.5t57 133.5q0 64 -37 102t-109 38q-102 0 -188 -54l-12 36q92 57 202 57q81 0 133.5 -42.5
t52.5 -133.5q0 -76 -46 -131t-134 -66z"/>
            <glyph glyph-name="Identity.21" horiz-adv-x="653"
                   d="M470 771v-529h136v-36h-136v-206h-40v206h-372v35l368 530h44zM101 242h329v474z"/>
            <glyph glyph-name="Identity.22" horiz-adv-x="653"
                   d="M168 417q70 39 152 39q47 0 85.5 -10.5t71.5 -34t51.5 -66.5t18.5 -103q0 -121 -70 -188t-190 -67q-99 0 -175 29l7 39q79 -29 168 -29q96 0 156.5 54.5t60.5 161.5q0 50 -16 86t-44 54.5t-60 27t-70 8.5q-89 0 -161 -44l-25 13l31 381h361v-39h-326z"/>
            <glyph glyph-name="Identity.23" horiz-adv-x="653"
                   d="M348 481h1q99 0 156 -58t57 -170q0 -122 -59.5 -194.5t-168.5 -72.5q-117 0 -178.5 85.5t-61.5 234.5q0 72 13.5 138t43.5 127t74.5 106.5t110.5 74t147 30.5l6 -37q-146 -3 -238 -99t-113 -272q27 42 84.5 74.5t125.5 32.5zM135 326q-5 -78 13 -144t66 -111.5t121 -45.5
q85 0 135 57.5t50 169.5q0 88 -42.5 141t-137.5 53q-67 0 -125 -36t-80 -84z"/>
            <glyph glyph-name="Identity.24" horiz-adv-x="653"
                   d="M548 729h-431v39h475v-36q-84 -126 -195.5 -353t-165.5 -379h-45q50 144 162.5 370.5t199.5 358.5z"/>
            <glyph glyph-name="Identity.25" horiz-adv-x="653"
                   d="M541 599v-1q0 -76 -43.5 -124t-134.5 -80q36 -13 61.5 -24t54 -29.5t46 -39.5t29 -52.5t11.5 -70.5q0 -191 -244 -191q-104 0 -171 46t-67 145q0 46 16 82.5t46.5 61.5t63.5 41t78 31q-98 40 -140 84t-42 121q0 94 63 138t156 44q105 0 161 -49t56 -133zM501 598v1
q0 62 -43 104t-134 42q-86 0 -132 -39.5t-46 -108.5q0 -67 43.5 -109.5t136.5 -77.5q36 13 59.5 24t54 33t46 55t15.5 76zM523 181v1q0 75 -50 117.5t-150 74.5q-95 -27 -146.5 -72t-51.5 -122q0 -46 17.5 -78t47.5 -48t62 -23t70 -7q201 0 201 157z"/>
            <glyph glyph-name="Identity.26" horiz-adv-x="653"
                   d="M315 294h-1q-111 0 -167.5 66t-56.5 158q0 49 11.5 92.5t37 83t73.5 63t113 23.5q118 0 177 -79t59 -229q0 -233 -106.5 -356.5t-292.5 -130.5l-7 39q152 6 250 98t114 277q-32 -47 -87 -76t-117 -29zM325 743h-1q-95 0 -144.5 -62.5t-49.5 -161.5q0 -76 46.5 -132.5
t146.5 -56.5q65 0 120 34.5t76 80.5q1 39 -1 74t-13 78t-31 73.5t-58.5 51.5t-90.5 21z"/>
            <glyph glyph-name="Identity.27" horiz-adv-x="328"
                   d="M194 568v-71h-60v71h60zM194 72v-72h-60v72h60z"/>
            <glyph glyph-name="Identity.28" horiz-adv-x="328"
                   d="M194 568v-71h-60v71h60zM194 117q-8 -54 -32 -135t-48 -136l-33 5q23 58 41.5 136.5t24.5 134.5z"/>
            <glyph glyph-name="Identity.29" horiz-adv-x="600"
                   d="M62 340v38l472 200v-39l-430 -179l430 -177v-40z"/>
            <glyph glyph-name="Identity.30" horiz-adv-x="600"
                   d="M63 435v37h472v-37h-472zM63 250v37h472v-37h-472z"/>
            <glyph glyph-name="Identity.31" horiz-adv-x="600"
                   d="M537 340l-472 -197v40l429 177l-429 179v39l472 -200v-38z"/>
            <glyph glyph-name="Identity.32" horiz-adv-x="524"
                   d="M76 666l-15 34q40 40 94.5 62t103.5 22q102 0 149.5 -53.5t47.5 -137.5q0 -68 -27 -111t-87 -90q-51 -40 -68.5 -85.5t-17.5 -118.5h-38q0 80 18 130.5t71 92.5q55 44 80.5 82.5t25.5 97.5q0 69 -38 111.5t-120 42.5q-43 0 -92.5 -21t-86.5 -58zM215 66h49v-66h-49v66z
"/>
            <glyph glyph-name="Identity.33" horiz-adv-x="901"
                   d="M545 260q-18 -42 -56 -74.5t-87 -32.5q-131 0 -131 164q0 111 56.5 196.5t146.5 85.5q54 0 84 -26t35 -67l20 74h28l-53 -249q-16 -75 -16 -94q0 -26 10.5 -40t38.5 -14q68 0 113 73.5t45 166.5q0 133 -88 212t-224 79q-144 0 -241.5 -103.5t-97.5 -249.5
q0 -153 93 -242.5t245 -89.5q151 0 254 58l10 -31q-105 -60 -264 -60q-169 0 -272.5 100t-103.5 266q0 160 109 271.5t267 111.5q152 0 249.5 -88.5t97.5 -235.5q0 -115 -58.5 -192.5t-139.5 -77.5t-70 109zM307 322v-1q0 -135 96 -135q74 0 115.5 72t61.5 197
q0 114 -104 114q-75 0 -122 -79.5t-47 -167.5z"/>
            <glyph glyph-name="Identity.34" horiz-adv-x="697"
                   d="M31 0l299 768h37l299 -768h-46l-101 262h-344l-100 -262h-44zM187 298h320l-160 419z"/>
            <glyph glyph-name="Identity.35" horiz-adv-x="676"
                   d="M583 206v-1q0 -205 -250 -205h-207v768h187q241 0 241 -177q0 -148 -146 -185q175 -23 175 -200zM513 586v1q0 143 -203 143h-142v-308h199q146 26 146 164zM168 387v-349h154q47 0 80 5.5t67.5 22t52.5 52.5t18 91q0 92 -55 135t-143 43h-174z"/>
            <glyph glyph-name="Identity.36" horiz-adv-x="702"
                   d="M89 373v1q0 88 17 159t54 129.5t104 91t159 32.5q114 0 205 -41l-8 -38q-97 40 -195 40q-68 0 -120 -22t-84 -57.5t-52 -85.5t-27.5 -100.5t-7.5 -108.5q0 -70 14 -128.5t46 -109.5t91.5 -80t141.5 -29q51 0 109.5 12t95.5 28l7 -39q-34 -16 -96.5 -28.5t-117.5 -12.5
q-91 0 -157 29t-104.5 82.5t-56.5 121.5t-18 154z"/>
            <glyph glyph-name="Identity.37" horiz-adv-x="786"
                   d="M126 768h167q210 0 307 -91.5t97 -292.5q0 -198 -95.5 -291t-309.5 -93h-166v768zM652 384v1q0 187 -89.5 265.5t-270.5 78.5h-123v-690h123q180 0 270 78.5t90 266.5z"/>
            <glyph glyph-name="Identity.38" horiz-adv-x="595"
                   d="M168 729v-311h310v-39h-310v-340h370v-39h-412v768h385v-39h-343z"/>
            <glyph glyph-name="Identity.39" horiz-adv-x="560"
                   d="M169 0h-43v768h388v-39h-345v-320h308v-39h-308v-370z"/>
            <glyph glyph-name="Identity.40" horiz-adv-x="750"
                   d="M616 59v292h-228v39h268v-360q-35 -17 -103.5 -30.5t-126.5 -13.5q-177 0 -256.5 104t-79.5 283q0 88 17 159.5t54 130t104 91t159 32.5q113 0 204 -41l-8 -38q-97 40 -195 40q-67 0 -119.5 -22t-84 -57.5t-52 -85.5t-28 -100.5t-7.5 -108.5q0 -70 14 -128.5t45.5 -110
t91 -80.5t142.5 -29q112 0 189 34z"/>
            <glyph glyph-name="Identity.41" horiz-adv-x="806"
                   d="M169 373v-373h-43v768h43v-356h468v356h43v-768h-43v373h-468z"/>
            <glyph glyph-name="Identity.42" horiz-adv-x="296"
                   d="M169 768v-768h-43v768h43z"/>
            <glyph glyph-name="Identity.43" horiz-adv-x="309"
                   d="M140 91v677h43v-685q0 -174 -156 -235l-20 32q67 28 100 77.5t33 133.5z"/>
            <glyph glyph-name="Identity.44" horiz-adv-x="651"
                   d="M212 397l412 -397h-59l-396 388v-388h-43v768h43v-366l389 366h54z"/>
            <glyph glyph-name="Identity.45" horiz-adv-x="587"
                   d="M169 768v-729h387v-39h-430v768h43z"/>
            <glyph glyph-name="Identity.46" horiz-adv-x="969"
                   d="M780 714l-284 -693h-37l-270 690l-36 -711h-41l41 768h56l270 -689l282 689h58l38 -768h-44z"/>
            <glyph glyph-name="Identity.47" horiz-adv-x="793"
                   d="M164 713v-713h-41v768h53l453 -698v698h41v-768h-46z"/>
            <glyph glyph-name="Identity.48" horiz-adv-x="871"
                   d="M90 384v1q0 181 86 291t259 110t259.5 -110.5t86.5 -291.5q0 -83 -18.5 -152.5t-58 -127t-108 -90t-160.5 -32.5q-73 0 -133.5 22t-109.5 68t-76 125.5t-27 186.5zM135 385v-1q0 -187 83 -275t217 -88q139 0 220 89.5t81 274.5q0 167 -73 264.5t-227 97.5t-227.5 -98
t-73.5 -264z"/>
            <glyph glyph-name="Identity.49" horiz-adv-x="654"
                   d="M169 0h-43v768h158q150 0 224 -48t74 -165q0 -122 -70 -181t-191 -59h-152v-315zM169 353h142q228 0 228 199q0 101 -64.5 139t-188.5 38h-117v-376z"/>
            <glyph glyph-name="Identity.50" horiz-adv-x="871"
                   d="M799 -129l-17 -39q-94 5 -198.5 48.5t-156.5 103.5q-71 2 -129.5 24t-106 67t-74.5 124t-27 185q0 181 86 291.5t259 110.5t259.5 -110.5t86.5 -291.5q0 -77 -16.5 -142t-50.5 -120.5t-94 -90.5t-140 -43q46 -45 139.5 -79.5t179.5 -37.5zM135 385v-1q0 -187 83 -275
t217 -88q139 0 220 89.5t81 274.5q0 167 -73 264.5t-227 97.5t-227.5 -98t-73.5 -264z"/>
            <glyph glyph-name="Identity.51" horiz-adv-x="667"
                   d="M561 0q-35 107 -68 187q-33 82 -68 120t-95 45h-164v-352h-41v768h166q58 0 101 -8t80.5 -28t57.5 -59.5t20 -97.5q0 -49 -13.5 -86.5t-38.5 -60.5t-49.5 -36t-56.5 -23q43 -13 75.5 -49.5t61.5 -110.5l78 -209h-46zM347 389q67 11 114 54t47 129q0 85 -54.5 121
t-160.5 36h-127v-340h181z"/>
            <glyph glyph-name="Identity.52" horiz-adv-x="575"
                   d="M492 734l-14 -39q-28 18 -80 33.5t-97 15.5q-44 0 -81 -13t-65 -49t-28 -90q0 -26 9 -47.5t20.5 -36t38 -31t45 -26t57.5 -27.5q52 -24 84.5 -43t62.5 -46t44 -60.5t14 -77.5q0 -104 -60 -157t-156 -53q-121 0 -238 52l12 38q114 -50 224 -50q76 0 125.5 39t49.5 129
q0 65 -44.5 106.5t-139.5 86.5q-53 25 -79 39t-56.5 38.5t-43 54.5t-12.5 71q0 93 61 142.5t152 49.5q53 0 108 -15.5t87 -33.5z"/>
            <glyph glyph-name="Identity.53" horiz-adv-x="608"
                   d="M325 0h-43v729h-262v39h568v-39h-263v-729z"/>
            <glyph glyph-name="Identity.54" horiz-adv-x="803"
                   d="M400 -16h-1q-138 0 -209.5 74t-71.5 186v524h43v-508q0 -38 7.5 -71t25 -64t44.5 -53t68.5 -35.5t94.5 -13.5q65 0 113 19.5t74.5 54t39 75t12.5 88.5v508h43v-524q0 -112 -71.5 -186t-211.5 -74z"/>
            <glyph glyph-name="Identity.55" horiz-adv-x="682"
                   d="M343 54l271 714h45l-299 -768h-38l-299 768h46z"/>
            <glyph glyph-name="Identity.56" horiz-adv-x="981"
                   d="M714 66l191 702h44l-214 -768h-42l-201 687l-202 -687h-40l-217 768h45l195 -702l198 688h42z"/>
            <glyph glyph-name="Identity.57" horiz-adv-x="737"
                   d="M393 391l291 -391h-55l-261 357l-261 -357h-54l292 388l-284 380h53l256 -347l251 347h52z"/>
            <glyph glyph-name="Identity.58" horiz-adv-x="663"
                   d="M312 373l-289 395h52l260 -359l254 359h52l-286 -392v-376h-43v373z"/>
            <glyph glyph-name="Identity.59" horiz-adv-x="678"
                   d="M553 729h-459v39h509v-39l-499 -690h519v-39h-570v38z"/>
            <glyph glyph-name="Identity.60" horiz-adv-x="390"
                   d="M313 759h-155v-918h155v-31h-196v980h196v-31z"/>
            <glyph glyph-name="Identity.61" horiz-adv-x="477"
                   d="M42 768h34l361 -883h-34z"/>
            <glyph glyph-name="Identity.62" horiz-adv-x="390"
                   d="M77 759v31h196v-980h-196v31h156v918h-156z"/>
            <glyph glyph-name="Identity.63" horiz-adv-x="516"
                   d="M78 359l159 395h40l159 -395h-39l-141 356l-138 -356h-40z"/>
            <glyph glyph-name="Identity.64" horiz-adv-x="500"
                   d="M0 -139v48h500v-48h-500z"/>
            <glyph glyph-name="Identity.65" horiz-adv-x="500"
                   d="M156 782l141 -120l-25 -10l-153 116z"/>
            <glyph glyph-name="Identity.66" horiz-adv-x="598"
                   d="M479 168q0 -113 48 -164l-37 -9q-39 44 -46 120q-23 -59 -78 -93.5t-121 -34.5q-78 0 -129.5 41.5t-51.5 122.5q0 67 28 102.5t108.5 56.5t237.5 29v67q0 71 -26.5 106.5t-107.5 35.5q-96 0 -184 -56l-13 37q89 56 201 56q100 0 135.5 -45t35.5 -132v-240zM438 304
q-199 -11 -267 -40t-68 -111q0 -31 10.5 -55.5t26 -38t36.5 -22t38 -11t34 -2.5q75 0 124 41.5t66 102.5v136z"/>
            <glyph glyph-name="Identity.67" horiz-adv-x="679"
                   d="M159 0h-34v805l42 7v-349q25 45 77 82.5t133 37.5q96 0 156 -67.5t60 -210.5q0 -52 -7 -96.5t-23.5 -86t-42.5 -70t-67 -46t-94 -17.5q-56 0 -109.5 24.5t-84.5 60.5zM166 351v-171q0 -48 4 -63q25 -35 74.5 -63t111.5 -28q195 0 195 277q0 110 -44.5 176.5t-134.5 66.5
q-45 0 -82.5 -14.5t-61 -37.5t-37.5 -42.5t-21 -38.5q-4 -20 -4 -62z"/>
            <glyph glyph-name="Identity.68" horiz-adv-x="539"
                   d="M85 276v1q0 142 63.5 226.5t197.5 84.5q64 0 132 -21l-9 -38q-63 22 -123 22q-116 0 -167.5 -77t-51.5 -198q0 -52 11 -95.5t35.5 -80t69 -57.5t106.5 -21q78 0 127 21l8 -39q-58 -20 -137 -20q-72 0 -124 23.5t-81.5 65.5t-43 92.5t-13.5 110.5z"/>
            <glyph glyph-name="Identity.69" horiz-adv-x="681"
                   d="M302 -12h-1q-95 0 -155.5 67.5t-60.5 209.5q0 66 11.5 120t37.5 100t73.5 71.5t112.5 25.5q56 0 108 -23.5t84 -60.5v307l41 7v-665q0 -99 22 -143l-38 -8q-21 47 -23 112q-26 -45 -78 -82.5t-134 -37.5zM513 220v172q0 47 -3 62q-26 36 -75 63.5t-112 27.5
q-195 0 -195 -278q0 -109 44.5 -175t134.5 -66q45 0 82.5 14.5t61.5 37.5t37.5 42.5t21.5 38.5q3 23 3 61z"/>
            <glyph glyph-name="Identity.70" horiz-adv-x="639"
                   d="M353 23h1q101 0 182 38l9 -36q-80 -40 -194 -40q-119 0 -192.5 70.5t-73.5 219.5q0 140 68 227t183 87q103 0 161 -64t58 -199v-23h-427q-9 -147 54.5 -213.5t170.5 -66.5zM332 553h-1q-82 0 -135.5 -58.5t-65.5 -158.5h385q-4 217 -183 217z"/>
            <glyph glyph-name="Identity.71" horiz-adv-x="351"
                   d="M143 532h-112v36h112v33q0 102 34 157.5t127 55.5q46 0 94 -15l-8 -36q-45 13 -83 13q-65 0 -93.5 -36t-28.5 -140v-32h160v-36h-160v-532h-42v532z"/>
            <glyph glyph-name="Identity.72" horiz-adv-x="676"
                   d="M132 -142q92 -53 195 -53q93 0 140 46.5t47 121.5v134q-26 -45 -77.5 -82t-132.5 -37q-96 0 -156.5 67.5t-60.5 209.5q0 66 11.5 120t37.5 100t73.5 71.5t112.5 25.5q58 0 111 -24t84 -62q0 33 9 73h37q-8 -37 -8 -100v-499q0 -87 -57 -144.5t-171 -57.5q-108 0 -207 54z
M514 220v172q0 47 -3 62q-26 35 -75.5 63t-111.5 28q-195 0 -195 -278q0 -109 44.5 -175t134.5 -66q45 0 82.5 14.5t61.5 37.5t37.5 42.5t21.5 38.5q3 23 3 61z"/>
            <glyph glyph-name="Identity.73" horiz-adv-x="680"
                   d="M167 480q42 45 101.5 72t116.5 27q175 0 175 -214v-365h-41v358q0 37 -5.5 66.5t-19.5 58t-43.5 44t-73.5 15.5q-55 0 -113.5 -27.5t-96.5 -71.5v-443h-42v805l42 7v-332z"/>
            <glyph glyph-name="Identity.74" horiz-adv-x="290"
                   d="M172 766v-59h-55v59h55zM166 569v-569h-43v569h43z"/>
            <glyph glyph-name="Identity.75" horiz-adv-x="298"
                   d="M179 765v-58h-55v58h55zM130 569h43v-545q0 -100 -31 -162.5t-108 -101.5l-25 28q70 36 95.5 92.5t25.5 148.5v540z"/>
            <glyph glyph-name="Identity.76" horiz-adv-x="553"
                   d="M212 301l311 -301h-53l-303 296v-296h-42v805l42 7v-511l283 268h55z"/>
            <glyph glyph-name="Identity.77" horiz-adv-x="292"
                   d="M167 812v-812h-42v805z"/>
            <glyph glyph-name="Identity.78" horiz-adv-x="1058"
                   d="M170 478q39 45 98 73t115 28q121 0 155 -103q44 47 106 75t119 28q176 0 176 -214v-365h-42v358q0 37 -5.5 66t-19.5 58t-44 44.5t-74 15.5q-53 0 -111.5 -27t-95.5 -69q8 -35 8 -94v-352h-40v358q0 184 -142 184q-52 0 -109 -27.5t-93 -71.5v-443h-42v465q0 55 -15 102
l38 7q16 -49 18 -96z"/>
            <glyph glyph-name="Identity.79" horiz-adv-x="683"
                   d="M114 567l37 7q17 -47 19 -95q40 44 100.5 72t116.5 28q176 0 176 -214v-365h-42v358q0 38 -5.5 67t-19.5 57.5t-43.5 44t-73.5 15.5q-55 0 -113 -27.5t-95 -71.5v-443h-42v465q0 55 -15 102z"/>
            <glyph glyph-name="Identity.80" horiz-adv-x="683"
                   d="M597 286v-1q0 -62 -13.5 -114t-42 -95.5t-80 -68t-120.5 -24.5t-120 24.5t-80 68t-42.5 95.5t-13.5 115q0 62 13.5 113.5t42.5 94.5t80 67.5t120 24.5t120.5 -24.5t80 -67.5t42 -94.5t13.5 -113.5zM341 20h1q107 0 159.5 70t52.5 197q0 125 -53 194t-160 69t-159.5 -69
t-52.5 -194q0 -127 52.5 -197t159.5 -70z"/>
            <glyph glyph-name="Identity.81" horiz-adv-x="682"
                   d="M380 583h1q96 0 155.5 -67.5t59.5 -210.5q0 -52 -7 -96.5t-23.5 -86t-42.5 -70t-67 -46t-94 -17.5q-56 0 -108 24t-84 61v-304h-41v695q0 55 -15 102l37 7q17 -44 19 -111q25 45 77 82.5t133 37.5zM169 351v-171q0 -40 3 -63q26 -36 75 -63.5t112 -27.5q195 0 195 277
q0 110 -44.5 176.5t-135.5 66.5q-45 0 -82 -14.5t-61 -37.5t-37.5 -42.5t-21.5 -38.5q-3 -45 -3 -62z"/>
            <glyph glyph-name="Identity.82" horiz-adv-x="675"
                   d="M524 569h38q-8 -37 -8 -100v-699h-41v337q-27 -45 -78.5 -82t-132.5 -37q-96 0 -156.5 67.5t-60.5 209.5q0 66 11.5 120t37.5 100t73.5 71.5t112.5 25.5q57 0 109.5 -23.5t83.5 -61.5q2 39 11 72zM513 220v172q0 47 -3 62q-26 36 -75 63.5t-112 27.5q-195 0 -195 -278
q0 -109 44.5 -175t134.5 -66q45 0 82.5 14.5t61.5 37.5t37.5 42.5t21.5 38.5q3 23 3 61z"/>
            <glyph glyph-name="Identity.83" horiz-adv-x="394"
                   d="M170 464q28 54 83.5 84t119.5 30l-3 -38q-62 0 -117.5 -31.5t-81.5 -91.5v-417h-42v407q0 113 -15 160l37 7q17 -42 19 -110z"/>
            <glyph glyph-name="Identity.84" horiz-adv-x="497"
                   d="M412 547l-11 -35q-67 35 -147 35q-46 0 -86.5 -25t-40.5 -83q0 -46 28.5 -71t101.5 -53q83 -32 124.5 -68.5t41.5 -99.5q0 -85 -50.5 -123t-124.5 -38q-105 0 -187 37l11 37q78 -36 173 -36q136 0 136 121q0 49 -35 78t-115 60q-76 30 -110.5 61t-34.5 94q0 75 51 109.5
t117 34.5q90 0 158 -35z"/>
            <glyph glyph-name="Identity.85" horiz-adv-x="362"
                   d="M271 31h31v-31l-34 -3q-66 -6 -98.5 23.5t-32.5 105.5v406h-104v36h104v143l41 9v-152h141v-36h-141v-402q0 -57 20.5 -78t72.5 -21z"/>
            <glyph glyph-name="Identity.86" horiz-adv-x="683"
                   d="M514 82q-43 -45 -102.5 -72.5t-116.5 -27.5q-176 0 -176 214v373h42v-366q0 -37 5.5 -66t19.5 -57.5t43.5 -44t73.5 -15.5q55 0 113.5 27.5t95.5 71.5v450h42v-464q0 -64 17 -111l-39 -7q-18 45 -18 95z"/>
            <glyph glyph-name="Identity.87" horiz-adv-x="576"
                   d="M291 55l203 514h45l-230 -569h-38l-232 569h45z"/>
            <glyph glyph-name="Identity.88" horiz-adv-x="926"
                   d="M670 55l171 514h45l-196 -569h-40l-186 508l-187 -508h-40l-197 569h46l174 -514l184 507h39z"/>
            <glyph glyph-name="Identity.89" horiz-adv-x="563"
                   d="M255 286l-198 283h49l175 -255l176 255h51l-203 -282l206 -287h-50l-182 259l-178 -259h-50z"/>
            <glyph glyph-name="Identity.90" horiz-adv-x="560"
                   d="M296 71q82 204 182 498h45q-113 -323 -205 -544q-82 -199 -156 -261l-39 20q35 27 76 91t76 150l-236 544h47z"/>
            <glyph glyph-name="Identity.91" horiz-adv-x="518"
                   d="M402 533h-334v36h382v-40l-359 -492h384v-37h-432v38z"/>
            <glyph glyph-name="Identity.92" horiz-adv-x="262"
                   d="M161 366v-72h-60v72h60z"/>
            <glyph glyph-name="Identity.93" horiz-adv-x="500"
                   d="M227 0h29l-21 -66q59 0 84 -15.5t25 -47.5q0 -79 -143 -81l-3 24q62 1 87.5 15t25.5 42q0 24 -25 31.5t-88 7.5z"/>
            <glyph glyph-name="Identity.94"
                   d="M500 410l289 287l23 -23l-287 -289l287 -289l-23 -23l-289 287l-289 -287l-23 23l287 289l-287 289l23 23z"/>
            <glyph glyph-name="Identity.95"
                   d="M500 668h1q16 0 27.5 -11.5t11.5 -28.5q0 -16 -12 -28t-28 -12t-28 12t-12 28q0 17 11.5 28.5t28.5 11.5zM125 402h750v-34h-750v34zM500 182h1q16 0 27.5 -12t11.5 -28q0 -17 -11.5 -28.5t-28.5 -11.5t-28.5 11.5t-11.5 28.5q0 16 12 28t28 12z"/>
            <glyph glyph-name="Identity.96"
                   d="M182 0l299 768h38l299 -768h-46l-102 262h-344l-100 -262h-44zM339 298h319l-159 419z"/>
            <glyph glyph-name="Identity.97"
                   d="M763 206v-1q0 -205 -250 -205h-207v768h187q241 0 241 -177q0 -148 -146 -185q175 -23 175 -200zM693 586v1q0 143 -203 143h-142v-308h199q146 26 146 164zM348 387v-349h154q47 0 80 5.5t67.5 22t52.5 52.5t18 91q0 92 -55 135t-143 43h-174z"/>
            <glyph glyph-name="Identity.98"
                   d="M440 0h-43v768h397v-39h-354v-729z"/>
            <glyph glyph-name="Identity.99"
                   d="M188 0v38l293 744h37l294 -745v-37h-624zM233 41h534l-267 689z"/>
            <glyph glyph-name="Identity.100"
                   d="M368 729v-311h310v-39h-310v-340h370v-39h-412v768h385v-39h-343z"/>
            <glyph glyph-name="Identity.101"
                   d="M716 729h-458v39h509v-39l-500 -690h519v-39h-569v38z"/>
            <glyph glyph-name="Identity.102"
                   d="M266 373v-373h-43v768h43v-356h468v356h43v-768h-43v373h-468z"/>
            <glyph glyph-name="Identity.103"
                   d="M846 384v-1q0 -82 -18.5 -151.5t-58 -127t-108 -90t-161.5 -32.5q-73 0 -133.5 22t-109 68t-75.5 125.5t-27 186.5q0 181 86 291.5t259 110.5t259.5 -110.5t86.5 -291.5zM200 385v-1q0 -187 83 -275t217 -88q139 0 220 90t81 274q0 109 -29.5 187.5t-98 126.5t-173.5 48
q-154 0 -227 -98t-73 -264zM273 410h458v-36h-458v36z"/>
            <glyph glyph-name="Identity.104"
                   d="M521 768v-768h-42v768h42z"/>
            <glyph glyph-name="Identity.105"
                   d="M397 397l412 -397h-58l-396 388v-388h-43v768h43v-366l388 366h54z"/>
            <glyph glyph-name="Identity.106"
                   d="M499 714l-272 -714h-45l299 768h39l299 -768h-47z"/>
            <glyph glyph-name="Identity.107"
                   d="M796 714l-284 -693h-38l-270 690l-36 -711h-41l41 768h56l271 -689l281 689h58l38 -768h-43z"/>
            <glyph glyph-name="Identity.108"
                   d="M267 713v-713h-41v768h53l453 -698v698h41v-768h-46z"/>
            <glyph glyph-name="Identity.109"
                   d="M219 768h564v-40h-564v40zM275 415h452v-39h-452v39zM193 41h616v-41h-616v41z"/>
            <glyph glyph-name="Identity.110"
                   d="M845 384v-1q0 -65 -11 -122.5t-37 -109t-65 -89t-98.5 -59t-133.5 -21.5q-73 0 -133.5 22t-109 68t-75.5 125.5t-27 186.5q0 181 86 291.5t259 110.5t259 -110.5t86 -291.5zM199 385v-1q0 -188 83 -275.5t218 -87.5q139 0 220 90t81 274q0 109 -29.5 187.5t-98 126.5
t-173.5 48q-154 0 -227.5 -98t-73.5 -264z"/>
            <glyph glyph-name="Identity.111"
                   d="M281 729v-729h-43v768h524v-768h-43v729h-438z"/>
            <glyph glyph-name="Identity.112"
                   d="M383 0h-43v768h158q150 0 223.5 -48t73.5 -165q0 -122 -70 -181t-190 -59h-152v-315zM383 353h142q227 0 227 199q0 101 -64.5 139t-188.5 38h-116v-376z"/>
            <glyph glyph-name="Identity.113"
                   d="M534 390l-266 -351h521v-39h-573v37l265 353l-241 339v39h510v-39h-459z"/>
            <glyph glyph-name="Identity.114"
                   d="M521 0h-43v729h-262v39h568v-39h-263v-729z"/>
            <glyph glyph-name="Identity.115"
                   d="M478 373l-289 395h52l260 -359l256 359h51l-287 -392v-376h-43v373z"/>
            <glyph glyph-name="Identity.116"
                   d="M805 388v-1q0 -74 -20.5 -125.5t-61 -80.5t-88.5 -42.5t-114 -17.5v-121h-42v121q-49 2 -87 9.5t-76.5 25.5t-64 46.5t-41.5 75.5t-16 110q0 127 69 194t216 75v111h42v-111q147 -8 215.5 -75t68.5 -194zM236 388v-1q0 -114 60 -169t183 -60v462q-124 -6 -183.5 -62
t-59.5 -170zM521 158q122 5 182 60t60 170q0 114 -59.5 170t-182.5 62v-462z"/>
            <glyph glyph-name="Identity.117"
                   d="M524 391l292 -391h-55l-261 357l-261 -357h-54l292 388l-285 380h54l256 -347l250 347h53z"/>
            <glyph glyph-name="Identity.118"
                   d="M479 768h42v-525q129 1 190.5 47.5t62.5 146.5q2 120 25 170t71 79l30 -26q-47 -29 -65.5 -79t-19.5 -152q-2 -111 -73.5 -167.5t-220.5 -57.5v-204h-42v204q-144 3 -214 59t-72 166q-2 103 -20 152.5t-65 78.5l30 26q32 -19 49.5 -40t31.5 -72.5t15 -136.5
q2 -98 61 -144.5t184 -49.5v525z"/>
            <glyph glyph-name="Identity.119"
                   d="M500 748h-1q-282 0 -282 -321q0 -102 44 -203t127 -182v-42h-251v41h204q-79 80 -123 183.5t-44 205.5q0 80 18.5 144t56.5 113t101.5 75.5t149.5 26.5t149.5 -26.5t101.5 -75.5t56.5 -113t18.5 -144q0 -102 -44 -205.5t-123 -183.5h204v-41h-251v42q83 81 127 182
t44 203q0 321 -283 321z"/>
            <glyph glyph-name="Identity.120"
                   d="M407 -10h-1q-70 0 -122.5 25t-80.5 66t-41 85.5t-13 92.5q0 57 14.5 111t45 103t86 79t127.5 30q89 0 154.5 -53.5t113.5 -170.5q24 68 71 217l40 -10q-62 -191 -87 -255q40 -101 97 -301l-41 -12q-51 182 -81 263q-48 -132 -114 -201t-168 -69zM425 545h-1
q-112 0 -172 -84t-60 -199q0 -95 56 -163.5t164 -68.5q84 0 147 66.5t112 212.5q-44 120 -103 178t-143 58z"/>
            <glyph glyph-name="Identity.121"
                   d="M318 -149h-42v718q0 126 58 202.5t177 76.5q88 0 148.5 -50.5t60.5 -152.5q0 -81 -42.5 -138.5t-117.5 -69.5q93 -16 141 -73t48 -146q0 -109 -65.5 -172t-166.5 -63q-127 0 -199 67v-199zM509 22h1q35 0 68.5 11.5t62.5 34t47 62.5t18 91q0 83 -55 139t-173 56v36
q88 0 144.5 47t56.5 142q0 68 -39.5 118.5t-127.5 50.5q-94 0 -143.5 -62.5t-49.5 -176.5l-1 -484q76 -65 191 -65z"/>
            <glyph glyph-name="Identity.122"
                   d="M493 54q46 140 115 273.5t133 215.5l37 -20q-107 -133 -204 -356q-98 -225 -121 -406l-42 8q11 82 53 224q-11 118 -38.5 216t-86.5 182t-143 119l26 33q225 -97 271 -489z"/>
            <glyph glyph-name="Identity.123"
                   d="M242 837l45 7q1 -93 42.5 -138t151.5 -90q139 -56 201.5 -132t62.5 -200q0 -53 -14 -102.5t-43.5 -94.5t-86 -72.5t-132.5 -27.5q-117 0 -193.5 70t-76.5 200q0 275 283 317q-147 57 -192.5 109.5t-47.5 153.5zM244 260v-1q0 -42 11.5 -81t36 -75t70.5 -57.5t108 -21.5
q114 0 172.5 76t58.5 181q0 191 -176 268q-139 -16 -210 -86t-71 -203z"/>
            <glyph glyph-name="Identity.124"
                   d="M687 74l9 -38q-92 -50 -207 -50q-82 0 -143 38t-61 113q0 151 182 167q-72 7 -116 38.5t-44 89.5q0 52 29 86t68.5 46.5t86.5 12.5q90 0 168 -21l-7 -36q-77 21 -156 21q-72 0 -109.5 -30.5t-37.5 -82.5q0 -54 54 -79.5t183 -25.5v-35q-143 0 -200.5 -36.5t-57.5 -109.5
q0 -50 43 -83.5t122 -33.5q111 0 194 49z"/>
            <glyph glyph-name="Identity.125"
                   d="M348 783q88 -6 196 -6q98 0 154 7l4 -35q-181 -105 -283 -253q-95 -137 -95 -274q0 -175 217 -175q91 0 132.5 -18t41.5 -67q0 -69 -74 -107l-25 18q55 34 55 80q0 34 -28.5 45.5t-108.5 11.5q-253 0 -253 208q0 146 102 293q90 132 253 235q-146 -7 -288 0v37z"/>
            <glyph glyph-name="Identity.126"
                   d="M292 0v445q0 47 -8.5 69.5t-36.5 22.5q-32 0 -71 -39l-14 30q51 49 98 49q71 0 73 -100q41 45 102 73.5t117 28.5q174 0 174 -214v-581h-41v574q0 38 -5.5 67t-19.5 57.5t-43.5 44t-73.5 15.5q-55 0 -113.5 -28.5t-95.5 -73.5v-440h-42z"/>
            <glyph glyph-name="Identity.127"
                   d="M768 416v-1q0 -214 -68.5 -322t-199.5 -108t-199.5 108.5t-68.5 322.5q0 216 63 324.5t205 108.5q143 0 205.5 -108.5t62.5 -324.5zM725 444q-1 182 -52.5 275t-172.5 93q-122 0 -173 -93t-53 -275h451zM725 406h-451q0 -189 57 -286t169 -97q223 0 225 383z"/>
            <glyph glyph-name="Identity.128"
                   d="M439 100v469h42v-454q0 -43 8.5 -62t36.5 -19q36 0 71 37l14 -29q-46 -48 -97 -48q-43 0 -59 26.5t-16 79.5z"/>
            <glyph glyph-name="Identity.129"
                   d="M455 320q43 -57 146 -156t161 -146l-30 -30q-54 43 -158.5 145t-148.5 160q-40 -42 -46 -50v-243h-40v569h40v-280q80 93 180.5 180.5t165.5 110.5l11 -38q-53 -21 -130.5 -83t-150.5 -139z"/>
            <glyph glyph-name="Identity.130"
                   d="M528 540l-238 -540h-49l269 591q-31 114 -81 165.5t-124 51.5l7 41q92 0 147 -58.5t92 -191.5q144 -523 246 -580l-32 -30q-102 62 -237 551z"/>
            <glyph glyph-name="Identity.131"
                   d="M658 82q-40 -45 -98 -73t-113 -28q-62 0 -97 31t-45 84v-312h-41v785h42v-347q0 -41 5 -72.5t19 -63.5t43.5 -49.5t73.5 -17.5q54 0 113 28t97 73v449h41v-455q0 -42 9 -61.5t37 -19.5q35 0 71 38l14 -30q-47 -47 -98 -47q-70 0 -73 88z"/>
            <glyph glyph-name="Identity.132"
                   d="M510 50q88 143 154.5 296t66.5 223h44q0 -85 -83 -263.5t-167 -305.5h-39l-236 569h47z"/>
            <glyph glyph-name="Identity.133"
                   d="M308 782q90 -7 198 -7q114 0 164 9l2 -36q-9 -1 -35.5 -2t-41.5 -3q-79 -10 -130.5 -49.5t-51.5 -93.5q0 -53 49.5 -76t151.5 -23v-36q-135 -21 -213 -96t-78 -167q0 -82 50.5 -118.5t166.5 -36.5q92 0 133.5 -18t41.5 -67q0 -69 -74 -107l-25 18q55 33 55 80
q0 34 -28.5 45.5t-108.5 11.5q-131 0 -192.5 44.5t-61.5 142.5q0 58 24 108.5t64 84t85 56t92 32.5q-93 4 -133.5 34t-40.5 85q0 51 39.5 91.5t109.5 53.5q-115 0 -215 4z"/>
            <glyph glyph-name="Identity.134"
                   d="M769 290v-1q0 -138 -71 -221.5t-198 -83.5q-128 0 -199 83.5t-71 222.5q0 137 71 217.5t199 80.5t198.5 -80.5t70.5 -217.5zM274 291v-1q0 -121 57.5 -194.5t168.5 -73.5q110 0 167.5 74t57.5 195q0 119 -57.5 190t-167.5 71q-111 0 -168.5 -71t-57.5 -190z"/>
            <glyph glyph-name="Identity.135"
                   d="M713 530v-530h-42v530h-297v-530h-42v530h-31q-72 0 -117 -30l-10 35q23 16 63 25t73 9h547v-39h-144z"/>
            <glyph glyph-name="Identity.136"
                   d="M275 153v-370h-44v507q0 136 71 217t199 81t198.5 -80.5t70.5 -217.5q0 -139 -70 -222.5t-195 -83.5q-87 0 -148 45.5t-82 123.5zM501 552h-1q-110 0 -167 -71t-57 -190q0 -122 57 -195.5t168 -73.5t168.5 74t57.5 195q0 119 -57.5 190t-168.5 71z"/>
            <glyph glyph-name="Identity.137"
                   d="M603 570q104 -5 219 17l5 -35q-80 -15 -175 -16q116 -71 116 -246q0 -139 -71 -222.5t-198 -83.5q-128 0 -199 83.5t-71 222.5q0 137 71 217.5t199 80.5q57 0 104 -18zM499 552h-1q-110 0 -167.5 -71t-57.5 -190q0 -121 57.5 -195t168.5 -74q110 0 167.5 74t57.5 195
q0 119 -57.5 190t-167.5 71z"/>
            <glyph glyph-name="Identity.138"
                   d="M512 530v-415q0 -43 8.5 -62t37.5 -19q36 0 69 37l16 -29q-48 -48 -97 -48q-44 0 -60 26.5t-16 79.5v430h-147q-78 0 -124 -30l-10 35q23 16 63.5 25t73.5 9h455v-39h-269z"/>
            <glyph glyph-name="Identity.139"
                   d="M500 20h1q186 0 186 182v367h42v-378q0 -101 -58 -155.5t-171 -54.5t-171 54.5t-58 155.5v378h43v-367q0 -182 186 -182z"/>
            <glyph glyph-name="Identity.140"
                   d="M479 800h42v-220q131 -1 204.5 -85t73.5 -206q0 -141 -74.5 -220t-203.5 -80v-179h-42v179q-129 1 -203.5 80t-74.5 220q0 122 73.5 206t204.5 85v220zM479 544q-105 -2 -170.5 -72t-65.5 -183q0 -118 61.5 -190t174.5 -74v519zM757 289v1q0 112 -65.5 182t-170.5 72
v-519q113 2 174.5 74t61.5 190z"/>
            <glyph glyph-name="Identity.141"
                   d="M547 232q72 -134 127 -221t103 -126l-31 -29q-51 41 -103.5 125t-122.5 218l-222 -329l-38 22l237 343l-62 112.5t-55 90.5t-59 78t-52 41l24 31q51 -23 105.5 -102.5t125.5 -216.5l210 312l38 -20z"/>
            <glyph glyph-name="Identity.142"
                   d="M479 800h42v-752q147 2 200 66q49 60 49 209q0 98 10.5 152t42.5 94l37 -16q-32 -42 -41 -92t-9 -145q0 -163 -62 -231q-67 -75 -227 -76v-199h-42v199q-165 0 -234 76q-61 67 -61 231q0 95 -9.5 145t-41.5 92l37 16q33 -40 43.5 -94.5t10.5 -151.5q0 -153 49 -209
q56 -65 206 -66v752z"/>
            <glyph glyph-name="Identity.143"
                   d="M286 577l24 -29q-68 -32 -121 -112.5t-53 -189.5q0 -96 47.5 -157.5t133.5 -61.5q80 0 126.5 68t48.5 181h39q2 -113 48.5 -181t126.5 -68q49 0 85.5 19t56.5 51.5t29.5 69.5t9.5 79q0 98 -47 181.5t-128 120.5l25 29q77 -34 134.5 -121.5t57.5 -210.5
q0 -109 -54.5 -183.5t-165.5 -74.5q-89 0 -141.5 65.5t-55.5 145.5q-7 -82 -59.5 -146.5t-138.5 -64.5q-110 0 -165.5 74.5t-55.5 182.5q0 102 51.5 196.5t141.5 136.5z"/>
            <glyph glyph-name="Identity.144"
                   d="M412 919h39v-51h-39v51zM587 919h39v-51h-39v51zM368 729v-311h310v-39h-310v-340h370v-39h-412v768h385v-39h-343z"/>
            <glyph glyph-name="Identity.145"
                   d="M182 0l299 768h38l299 -768h-46l-102 262h-344l-100 -262h-44zM339 298h319l-159 419z"/>
            <glyph glyph-name="Identity.146"
                   d="M315 0v768h374v-39h-332v-280h116q149 0 223 -47.5t74 -164.5q0 -120 -70 -178.5t-190 -58.5h-195zM357 39h143q227 0 227 197q0 52 -18 87t-53 54t-78.5 26.5t-104.5 7.5h-116v-372z"/>
            <glyph glyph-name="Identity.147"
                   d="M763 206v-1q0 -205 -250 -205h-207v768h187q241 0 241 -177q0 -148 -146 -185q175 -23 175 -200zM693 586v1q0 143 -203 143h-142v-308h199q146 26 146 164zM348 387v-349h154q47 0 80 5.5t67.5 22t52.5 52.5t18 91q0 92 -55 135t-143 43h-174z"/>
            <glyph glyph-name="Identity.148"
                   d="M440 0h-43v768h397v-39h-354v-729z"/>
            <glyph glyph-name="Identity.149"
                   d="M317 768h412v-729h53l-6 -163h-34l-3 124h-554l-3 -124h-31l-5 163h40q131 183 131 710v19zM235 39h448v690h-323q0 -499 -125 -690z"/>
            <glyph glyph-name="Identity.150"
                   d="M368 729v-311h310v-39h-310v-340h370v-39h-412v768h385v-39h-343z"/>
            <glyph glyph-name="Identity.151"
                   d="M479 768h42v-358h62q55 0 93 40.5t90 142.5q22 43 37 69t37 53.5t47.5 40.5t55.5 13v-39q-22 0 -41 -11t-38 -37.5t-30.5 -46.5l-32.5 -59q-23 -44 -34.5 -63.5t-32.5 -50t-42 -46.5t-46 -22q19 -4 36 -12.5t28.5 -16t26 -26.5l21.5 -28t21 -37.5l18 -37l20 -43.5
l23 -49.5t22 -40.5t26.5 -35t30 -20t38.5 -9v-41q-27 0 -50.5 10t-39.5 23.5t-32.5 39.5t-27 47t-25.5 56q-47 108 -88.5 153.5t-110.5 45.5h-62v-373h-42v373h-62q-69 0 -110.5 -45.5t-88.5 -153.5q-15 -35 -25.5 -56t-27 -47t-32.5 -39.5t-39.5 -23.5t-50.5 -10v41
q21 0 38.5 9t30 20t26.5 35t22 40.5l23 49.5l20 43.5l18 37t21 37.5l21.5 28t26 26.5t28.5 16t36 12.5q-25 6 -46 22t-42 46.5t-32.5 50t-34.5 63.5l-32.5 59t-30.5 46.5t-38 37.5t-41 11v39q30 0 55.5 -13t47.5 -40.5t37 -53.5t37 -69q52 -102 90 -142.5t93 -40.5h62v358z
"/>
            <glyph glyph-name="Identity.152"
                   d="M500 407q220 -6 220 -187q0 -45 -14.5 -85t-45.5 -74t-87 -54t-131 -20q-94 0 -172 23l8 40q74 -24 164 -24q104 0 169.5 48.5t65.5 146.5q0 82 -57 121t-185 39h-84v37h67q109 0 170.5 49.5t61.5 133.5q0 64 -40 102t-117 38q-108 0 -202 -54l-13 36q99 57 216 57
q87 0 143 -42.5t56 -133.5q0 -76 -49.5 -131t-143.5 -66z"/>
            <glyph glyph-name="Identity.153"
                   d="M730 713l-459 -713h-46v768h42v-698l452 698h53v-768h-42v713z"/>
            <glyph glyph-name="Identity.154"
                   d="M356 929h29q6 -67 115 -67q110 0 115 67h29q-3 -48 -40.5 -73.5t-103.5 -25.5t-103.5 25.5t-40.5 73.5zM731 713l-458 -713h-47v768h43v-698l452 698h53v-768h-43v713z"/>
            <glyph glyph-name="Identity.155"
                   d="M305 768h42v-358h93q56 0 93.5 40t89.5 143q22 43 37.5 69t38 53.5t48 40.5t56.5 13v-39q-22 0 -41.5 -11.5t-38 -37t-31 -46.5t-32.5 -59l-27 -50.5t-26.5 -43.5t-31 -41.5t-32.5 -28t-39 -18.5q19 -4 36 -12.5t29 -16t26.5 -26.5l21.5 -28t21 -37t18 -37l20 -44
q18 -40 29 -61t28.5 -46.5t37.5 -36t45 -10.5v-41q-34 0 -60.5 12.5t-47.5 40.5t-35 53.5t-33 69.5q-47 108 -88.5 153.5t-111.5 45.5h-93v-373h-42v768z"/>
            <glyph glyph-name="Identity.156"
                   d="M312 768h411v-767h-44v728h-325q0 -555 -150 -735l-44 16q152 178 152 739v19z"/>
            <glyph glyph-name="Identity.157"
                   d="M796 714l-284 -693h-38l-270 690l-36 -711h-41l41 768h56l271 -689l281 689h58l38 -768h-43z"/>
            <glyph glyph-name="Identity.158"
                   d="M266 373v-373h-43v768h43v-356h468v356h43v-768h-43v373h-468z"/>
            <glyph glyph-name="Identity.159"
                   d="M845 384v-1q0 -65 -11 -122.5t-37 -109t-65 -89t-98.5 -59t-133.5 -21.5q-73 0 -133.5 22t-109 68t-75.5 125.5t-27 186.5q0 181 86 291.5t259 110.5t259 -110.5t86 -291.5zM500 21h1q138 0 219 90t81 274q0 109 -29.5 187.5t-98 126.5t-173.5 48q-154 0 -227.5 -98
t-73.5 -264q0 -188 83 -276t218 -88z"/>
            <glyph glyph-name="Identity.160"
                   d="M281 729v-729h-43v768h524v-768h-43v729h-438z"/>
            <glyph glyph-name="Identity.161"
                   d="M383 0h-43v768h158q150 0 223.5 -48t73.5 -165q0 -122 -70 -181t-190 -59h-152v-315zM383 353h142q227 0 227 199q0 101 -64.5 139t-188.5 38h-116v-376z"/>
            <glyph glyph-name="Identity.162"
                   d="M227 373v1q0 88 17 159t54 129.5t104 91t159 32.5q113 0 204 -41l-8 -38q-97 40 -195 40q-67 0 -119.5 -22t-84 -57.5t-52 -85.5t-28 -100.5t-7.5 -108.5q0 -70 14 -128.5t46 -109.5t91.5 -80t141.5 -29q51 0 109.5 12t96.5 28l6 -39q-34 -16 -96 -28.5t-117 -12.5
q-91 0 -157 29t-104.5 82.5t-56.5 121.5t-18 154z"/>
            <glyph glyph-name="Identity.163"
                   d="M521 0h-43v729h-262v39h568v-39h-263v-729z"/>
            <glyph glyph-name="Identity.164"
                   d="M714 768h46l-254 -612q-34 -81 -75 -119.5t-112 -38.5l-3 39q55 0 88 31.5t63 101.5l21 49l-277 549h50l248 -503z"/>
            <glyph glyph-name="Identity.165"
                   d="M479 0v121q-49 2 -87 9.5t-76.5 25.5t-64 46.5t-41.5 75.5t-16 110q0 127 69 194t216 75v111h42v-111q147 -8 215.5 -75t68.5 -194q0 -74 -20.5 -126t-61 -81t-88.5 -42.5t-114 -17.5v-121h-42zM236 388v-1q0 -114 60 -169t183 -60v462q-124 -6 -183.5 -62t-59.5 -170z
M521 158q122 5 182 60t60 170q0 114 -59.5 170t-182.5 62v-462z"/>
            <glyph glyph-name="Identity.166"
                   d="M524 391l292 -391h-55l-261 357l-261 -357h-54l292 388l-285 380h54l256 -347l250 347h53z"/>
            <glyph glyph-name="Identity.167"
                   d="M231 768h43v-730h445v730h43v-730h44l-4 -138h-34l-3 100h-534v768z"/>
            <glyph glyph-name="Identity.168"
                   d="M681 352q-114 -56 -237 -56q-59 0 -101 18t-62 49t-28.5 62t-8.5 66v277h42v-268q0 -70 37 -117t129 -47q128 0 229 57v375h42v-768h-42v352z"/>
            <glyph glyph-name="Identity.169"
                   d="M842 0h-682v768h42v-730h278v730h42v-730h278v730h42v-768z"/>
            <glyph glyph-name="Identity.170"
                   d="M161 768h42v-730h278v730h42v-730h278v730h42v-730h45l-4 -138h-35l-2 100h-686v768z"/>
            <glyph glyph-name="Identity.171"
                   d="M390 0v729h-247v39h289v-315h116q149 0 223 -48t74 -165q0 -122 -70 -181t-190 -59h-195zM432 39h143q227 0 227 199q0 100 -65 138.5t-189 38.5h-116v-376z"/>
            <glyph glyph-name="Identity.172"
                   d="M193 0v768h42v-315h116q149 0 223 -48t74 -165q0 -122 -70 -181t-191 -59h-194zM235 39h143q226 0 226 199q0 100 -64.5 138.5t-187.5 38.5h-117v-376zM805 768v-768h-42v768h42z"/>
            <glyph glyph-name="Identity.173"
                   d="M328 0v768h43v-315h115q150 0 224 -48t74 -165q0 -122 -70.5 -181t-190.5 -59h-195zM371 39h142q227 0 227 199q0 100 -65 138.5t-188 38.5h-116v-376z"/>
            <glyph glyph-name="Identity.174"
                   d="M286 415h429q-4 67 -19.5 122.5t-47 104.5t-88.5 77t-134 28q-98 0 -195 -40l-8 38q91 41 204 41q92 0 159 -32.5t104 -91t54 -130t17 -159.5q0 -86 -18 -154t-56.5 -121.5t-104.5 -82.5t-157 -29q-55 0 -117 12.5t-96 28.5l6 39q38 -16 96.5 -28t109.5 -12
q82 0 140.5 28.5t90 79t46 110t15.5 132.5h-430v39z"/>
            <glyph glyph-name="Identity.175"
                   d="M161 372v-372h-42v768h42v-356h166q6 171 81 272.5t222 101.5q151 0 228 -108.5t77 -293.5q0 -67 -10 -125t-33 -109.5t-58 -88t-87 -57.5t-117 -21q-60 0 -111 19t-95.5 61.5t-70.5 121t-26 187.5h-166zM630 22h1q120 0 189.5 89.5t69.5 272.5q0 78 -14 141.5t-44 113.5
t-81.5 78t-120.5 28q-134 0 -196.5 -99.5t-62.5 -261.5q0 -187 71.5 -274.5t187.5 -87.5z"/>
            <glyph glyph-name="Identity.176"
                   d="M282 209q28 74 60.5 110t76.5 50q-32 10 -56.5 23t-49.5 36t-39 60.5t-14 86.5q0 58 20 97.5t58 59.5t81 28t101 8h166v-768h-42v352h-163q-60 -7 -95.5 -44.5t-68.5 -120.5q-42 -105 -67 -187h-46q22 63 78 209zM644 729h-127q-106 0 -160.5 -36t-54.5 -121
q0 -86 47 -129t114 -54h181v340z"/>
            <glyph glyph-name="Identity.177"
                   d="M676 168q0 -114 47 -164l-36 -9q-39 44 -46 120q-23 -59 -78 -93.5t-121 -34.5q-78 0 -130 41.5t-52 122.5q0 67 28.5 102.5t109 56.5t237.5 29v67q0 71 -26.5 106.5t-108.5 35.5q-95 0 -183 -56l-14 37q90 56 202 56q100 0 135.5 -45t35.5 -132v-240zM635 304
q-199 -11 -267 -40t-68 -111q0 -31 10.5 -55.5t26 -38t36.5 -22t38 -11t34 -2.5q75 0 124 41.5t66 102.5v136z"/>
            <glyph glyph-name="Identity.178"
                   d="M534 549h1q98 0 157.5 -66t59.5 -206q0 -59 -12 -109t-38 -93t-72 -67.5t-109 -24.5q-105 0 -171 81.5t-66 236.5q0 198 57 309t203 137q108 20 150 50l16 -34q-55 -34 -161 -54t-155 -90t-62 -183q33 49 85 81t117 32zM326 297v-1q0 -117 49 -196.5t147 -79.5
q49 0 85.5 20t55.5 48t31 66t15 66.5t3 57.5q0 123 -51 179t-133 56q-63 0 -116.5 -38.5t-82.5 -90.5q-3 -27 -3 -87z"/>
            <glyph glyph-name="Identity.179"
                   d="M709 155v-1q0 -154 -196 -154h-196v569h181q185 0 185 -131q0 -51 -29 -88.5t-90 -45.5q145 -15 145 -149zM643 430v1q0 51 -33 78t-120 27h-132v-217h133q152 0 152 111zM358 286v-252h145q164 0 164 123q0 63 -40 96t-135 33h-134z"/>
            <glyph glyph-name="Identity.180"
                   d="M437 0h-41v569h324v-37h-283v-532z"/>
            <glyph glyph-name="Identity.181"
                   d="M339 559v10h332v-531h46l-5 -162h-31l-3 124h-442l-3 -124h-31l-4 162h48q93 133 93 521zM291 38h339v495h-252q0 -355 -87 -495z"/>
            <glyph glyph-name="Identity.182"
                   d="M530 23h1q99 0 182 38l9 -36q-80 -40 -194 -40q-119 0 -192.5 70.5t-73.5 219.5q0 140 67.5 227t182.5 87q104 0 161.5 -64t57.5 -199v-23h-426q-9 -147 54.5 -213.5t170.5 -66.5zM508 553h-1q-81 0 -135 -58.5t-66 -158.5h386q-3 111 -48.5 164t-135.5 53z"/>
            <glyph glyph-name="Identity.183"
                   d="M480 569h40v-260h85q40 0 70 33.5t67 99.5q18 32 31 52t31 40.5t39.5 30t46.5 9.5v-37q-23 0 -45 -17.5t-35.5 -37t-35.5 -57.5q-18 -31 -26.5 -44.5t-24.5 -36t-32 -34.5t-34 -17q22 -6 40.5 -18.5t29 -22.5t25.5 -34.5t19 -32.5l20 -40q14 -29 22.5 -44t22 -33
t29.5 -26t37 -8v-39q-54 0 -85 33t-62 98q-14 30 -23 46.5t-24.5 39t-30 34t-36 20t-47.5 8.5h-74v-274h-40v274h-74q-26 0 -47.5 -8.5t-36 -20t-30 -34t-24.5 -39t-23 -46.5q-31 -65 -62 -98t-85 -33v39q21 0 37 8t29.5 26t22 33t22.5 44q39 78 62 104q30 32 72 44
q-18 5 -34 17t-32 34.5t-24.5 36t-26.5 44.5q-22 38 -35.5 57.5t-35.5 37t-45 17.5v37q47 0 79 -33t69 -99t67 -99.5t70 -33.5h85v260z"/>
            <glyph glyph-name="Identity.184"
                   d="M540 303q147 -16 147 -147q0 -85 -59.5 -129t-171.5 -44q-80 0 -146 16l8 36q64 -16 137 -16q187 0 187 140q0 56 -38.5 88.5t-145.5 32.5h-69v35h27q210 0 210 124q0 48 -32 78.5t-107 30.5q-91 0 -167 -42l-12 34q80 44 182 44q88 0 134 -37t46 -105q0 -49 -33 -87
t-97 -52z"/>
            <glyph glyph-name="Identity.185"
                   d="M679 517l-356 -517h-43v569h41v-506l350 506h49v-569h-41v517z"/>
            <glyph glyph-name="Identity.186"
                   d="M500 661h1q109 0 114 67h29q-3 -48 -40.5 -73t-103.5 -25t-103.5 25t-40.5 73h29q5 -67 115 -67zM679 517l-356 -517h-43v569h41v-506l350 506h49v-569h-41v517z"/>
            <glyph glyph-name="Identity.187"
                   d="M318 569h41v-260h84q22 0 41 10t36.5 31.5t29.5 40.5t30 51q36 66 68.5 99t80.5 33v-37q-33 0 -59 -28.5t-57 -83.5q-18 -31 -26.5 -44.5t-24.5 -36t-32 -34.5t-34 -17q27 -8 47 -21t37 -38t24.5 -39.5l24.5 -49.5q15 -30 23 -44t22 -33t30 -26.5t37 -7.5v-39
q-29 0 -51 9.5t-39.5 30.5t-28.5 39.5t-27 51.5q-19 39 -30 58t-31 44t-44.5 35.5t-56.5 10.5h-74v-274h-41v569z"/>
            <glyph glyph-name="Identity.188"
                   d="M671 0h-41v533h-252q0 -402 -111 -541l-37 19q109 132 109 548v10h332v-569z"/>
            <glyph glyph-name="Identity.189"
                   d="M737 524l-221 -512h-36l-208 510l-30 -522h-40l34 569h58l207 -499l215 499h59l30 -569h-42z"/>
            <glyph glyph-name="Identity.190"
                   d="M322 272v-272h-41v569h41v-259h356v259h41v-569h-41v272h-356z"/>
            <glyph glyph-name="Identity.191"
                   d="M756 286v-1q0 -62 -13.5 -114t-42 -95.5t-80 -68t-120.5 -24.5t-120 24.5t-80 68t-42.5 95.5t-13.5 115q0 62 13.5 113.5t42.5 94.5t80 67.5t120 24.5t120.5 -24.5t80 -67.5t42 -94.5t13.5 -113.5zM288 287v-1q0 -126 52.5 -196t159.5 -70t159.5 70t52.5 197
q0 125 -52.5 194t-159.5 69t-159.5 -69t-52.5 -194z"/>
            <glyph glyph-name="Identity.192"
                   d="M327 533v-533h-41v569h428v-569h-41v533h-346z"/>
            <glyph glyph-name="Identity.193"
                   d="M557 583h1q96 0 155.5 -67.5t59.5 -210.5q0 -52 -7 -96.5t-23.5 -86t-42.5 -70t-67 -46t-94 -17.5q-57 0 -108.5 24t-83.5 61v-304h-41v695q0 55 -15 102l37 7q17 -44 19 -111q25 45 77 82.5t133 37.5zM346 351v-171q0 -40 3 -63q26 -36 75.5 -63.5t111.5 -27.5
q194 0 194 277q0 110 -44 176.5t-135 66.5q-45 0 -82 -14.5t-61 -37.5t-37.5 -42.5t-21.5 -38.5q-3 -45 -3 -62z"/>
            <glyph glyph-name="Identity.194"
                   d="M293 276v1q0 142 63.5 226.5t197.5 84.5q64 0 132 -21l-8 -38q-64 22 -124 22q-116 0 -167.5 -77t-51.5 -198q0 -52 11 -95.5t35.5 -80t69 -57.5t106.5 -21q77 0 127 21l8 -39q-57 -20 -136 -20q-72 0 -124.5 23.5t-82 65.5t-43 92.5t-13.5 110.5z"/>
            <glyph glyph-name="Identity.195"
                   d="M520 0h-40v533h-214v36h468v-36h-214v-533z"/>
            <glyph glyph-name="Identity.196"
                   d="M514 71q74 186 182 498h45q-121 -339 -205 -544q-81 -198 -157 -261l-39 20q35 27 77 91.5t76 149.5l-237 544h47z"/>
            <glyph glyph-name="Identity.197"
                   d="M479 800h41v-320q78 103 211 103q95 0 155 -67t60 -210q0 -66 -11.5 -120t-37 -100t-72.5 -71.5t-113 -25.5q-56 0 -108.5 27t-82.5 71v-277h-42v280q-37 -47 -85 -74.5t-125 -27.5q-96 0 -156 67t-60 210q0 66 11.5 120t37 100t73 71.5t112.5 25.5q57 0 109.5 -27
t82.5 -71v316zM520 375v-177q0 -46 4 -61q22 -47 71 -79t114 -32q194 0 194 278q0 109 -44 175.5t-134 66.5q-132 0 -201 -110q-4 -20 -4 -61zM480 196v177q0 41 -4 62q-23 46 -72 78t-113 32q-195 0 -195 -278q0 -109 44 -175t134 -66q131 0 202 109q4 30 4 61z"/>
            <glyph glyph-name="Identity.198"
                   d="M475 286l-198 283h48l176 -255l175 255h52l-203 -282l206 -287h-50l-182 259l-178 -259h-50z"/>
            <glyph glyph-name="Identity.199"
                   d="M288 569h42v-532h333v532h41v-532h43l-4 -137h-32l-2 100h-421v569z"/>
            <glyph glyph-name="Identity.200"
                   d="M627 254q-86 -40 -191 -40q-49 0 -83 14t-50.5 37.5t-23.5 47t-7 50.5v206h41v-197q0 -123 132 -123q102 0 182 41v279h41v-569h-41v254z"/>
            <glyph glyph-name="Identity.201"
                   d="M818 0h-634v569h42v-532h254v532h42v-532h254v532h42v-569z"/>
            <glyph glyph-name="Identity.202"
                   d="M182 0v569h41v-532h255v532h41v-532h255v532h41v-532h43l-4 -137h-31l-2 100h-639z"/>
            <glyph glyph-name="Identity.203"
                   d="M214 569h240v-228h106q221 0 221 -167q0 -174 -198 -174h-170v532h-199v37zM454 36h123q83 0 123 33.5t40 103.5q0 133 -179 133h-107v-270z"/>
            <glyph glyph-name="Identity.204"
                   d="M234 569h41v-228h105q221 0 221 -167q0 -174 -197 -174h-170v569zM275 36h122q83 0 123 33.5t40 103.5q0 133 -178 133h-107v-270zM719 569h41v-569h-41v569z"/>
            <glyph glyph-name="Identity.205"
                   d="M349 0v569h41v-228h106q221 0 221 -167q0 -174 -198 -174h-170zM390 36h123q83 0 123 33.5t40 103.5q0 133 -179 133h-107v-270z"/>
            <glyph glyph-name="Identity.206"
                   d="M654 276h-313v38h312q-6 105 -58 171t-158 66q-60 0 -123 -22l-9 38q68 21 132 21q134 0 197.5 -84.5t63.5 -227.5q0 -60 -13.5 -110.5t-43 -92.5t-81.5 -65.5t-124 -23.5q-81 0 -136 20l7 39q51 -21 127 -21q216 0 220 254z"/>
            <glyph glyph-name="Identity.207"
                   d="M199 270v-270h-42v569h42v-260h185q2 57 16.5 105t43 87.5t78 62t114.5 22.5q89 0 147.5 -42t82.5 -107t24 -151q0 -64 -14 -116.5t-42.5 -95.5t-79 -67t-118.5 -24q-125 0 -187.5 79.5t-64.5 207.5h-185zM636 20h1q106 0 159 70t53 196q0 123 -52.5 193.5t-160.5 70.5
t-160 -70.5t-52 -193.5q0 -126 53 -196t159 -70z"/>
            <glyph glyph-name="Identity.208"
                   d="M290 0q79 205 119 243q21 21 56 32q-127 27 -127 147q0 77 55.5 112t165.5 35h142v-569h-40v260h-103q-95 0 -131 -56q-31 -47 -91 -204h-46zM661 536h-105q-95 0 -135 -28.5t-40 -87.5q0 -68 41 -96.5t100 -28.5h139v241z"/>
            <glyph glyph-name="Identity.209"
                   d="M398 754h39v-52h-39v52zM572 754h39v-52h-39v52zM530 23h1q99 0 182 38l9 -36q-80 -40 -194 -40q-119 0 -192.5 70.5t-73.5 219.5q0 140 67.5 227t182.5 87q104 0 161.5 -64t57.5 -199v-23h-426q-9 -147 54.5 -213.5t170.5 -66.5zM508 553h-1q-81 0 -135 -58.5
t-66 -158.5h386q-3 111 -48.5 164t-135.5 53z"/>
            <glyph glyph-name="Identity.210"
                   d="M393 402h213v-34h-213v34z"/>
            <glyph glyph-name="Identity.211"
                   d="M0 402h1000v-34h-1000v34z"/>
            <glyph glyph-name="Identity.212"
                   d="M0 399h1000v-38h-1000v38z"/>
            <glyph glyph-name="Identity.213"
                   d="M519 880v-1000h-38v1000h38z"/>
            <glyph glyph-name="Identity.214"
                   d="M890 -10h-780v780h780v-780z"/>
            <glyph glyph-name="Identity.215"
                   d="M110 -10v780h780v-780h-780zM868 12v736h-736v-736h736z"/>
            <glyph glyph-name="Identity.216"
                   d="M500 804l475 -814h-950z"/>
            <glyph glyph-name="Identity.217"
                   d="M975 -10h-950l475 814zM500 758l-435 -746h870z"/>
            <glyph glyph-name="Identity.218"
                   d="M500 -48l-475 814h950z"/>
            <glyph glyph-name="Identity.219"
                   d="M500 -48l-475 814h950zM500 -2l435 746h-870z"/>
            <glyph glyph-name="Identity.220"
                   d="M989 380l-489 -489l-489 489l489 489z"/>
            <glyph glyph-name="Identity.221"
                   d="M500 -109l-489 489l489 489l489 -489zM958 380l-458 458l-458 -458l458 -458z"/>
            <glyph glyph-name="Identity.222"
                   d="M60 380v1q0 182 129 310.5t311 128.5t311 -129t129 -311t-129 -311t-311 -129t-311 129t-129 311zM500 -38h1q173 0 295 122.5t122 295.5t-122.5 295.5t-295.5 122.5t-295.5 -122.5t-122.5 -295.5t122.5 -295.5t295.5 -122.5z"/>
            <glyph glyph-name="Identity.223"
                   d="M60 380v1q0 182 129 310.5t311 128.5t311 -129t129 -311t-129 -311t-311 -129t-311 129t-129 311zM500 -38h1q173 0 295 122.5t122 295.5t-122.5 295.5t-295.5 122.5t-295.5 -122.5t-122.5 -295.5t122.5 -295.5t295.5 -122.5zM206 380v1q0 122 86 207.5t208 85.5t208 -86
t86 -208t-86 -208t-208 -86t-208 86t-86 208zM500 108h1q112 0 191.5 80t79.5 192t-80 192t-192 80t-192 -80t-80 -192t80 -192t192 -80z"/>
            <glyph glyph-name="Identity.224"
                   d="M500 -60h-1q-182 0 -310.5 129t-128.5 311t129 311t311 129t311 -129t129 -311t-129 -311t-311 -129z"/>
            <glyph glyph-name="Identity.225"
                   d="M29 380l-1 1q0 128 63 236t172 171t237 63t236.5 -63t171.5 -171.5t63 -236.5t-63 -237t-171.5 -172t-236.5 -63t-236.5 63t-171.5 172t-63 237zM500 -69h1q185 0 316.5 131.5t131.5 317.5t-131.5 317.5t-317.5 131.5t-317.5 -131.5t-131.5 -317.5t131.5 -317.5
t317.5 -131.5z"/>
            <glyph glyph-name="Identity.226"
                   d="M389 489l109 341h4l109 -341h338v-4l-271 -204l110 -349l-3 -2l-285 216l-285 -216l-3 2l110 349l-272 204v4h339z"/>
            <glyph glyph-name="Identity.227"
                   d="M389 489l109 341h4l109 -341h338v-4l-271 -204l110 -349l-3 -2l-285 216l-285 -216l-3 2l110 349l-272 204v4h339zM407 465l-293 2v-3l236 -174l-97 -299l3 -2l244 187l244 -187l3 2l-97 299l235 174v3l-292 -2l-91 294h-4z"/>
            <glyph glyph-name="Identity.228"
                   d="M47 128l29 28q115 -103 193 -201l-34 -27q-72 98 -188 200z"/>
            <glyph glyph-name="Identity.229"
                   d="M293 51v-1q0 -50 -36 -86t-87 -36t-87 36t-36 87q0 50 36 86.5t87 36.5t87 -36.5t36 -86.5zM73 51v-1q0 -38 29 -67t68 -29q40 0 68 28.5t28 68.5q0 39 -28 67.5t-68 28.5q-39 0 -68 -28.5t-29 -67.5z"/>
            <glyph glyph-name="Identity.230"
                   d="M289 269l25 27q78 -50 173 -123q74 84 142.5 182.5t112.5 183.5h-370q-108 -179 -271 -325l-37 22q131 113 229 253t148 292l40 -11q-33 -96 -88 -194h386l25 -14q-111 -212 -288 -413q77 -62 139 -128l-31 -29q-120 135 -335 277z"/>
            <glyph glyph-name="Identity.231"
                   d="M653 380l307 -443l-25 -16l-319 459l319 459l25 -16z"/>
            <glyph glyph-name="Identity.232"
                   d="M347 380l-307 443l25 16l319 -459l-319 -459l-25 16z"/>
            <glyph glyph-name="Identity.233"
                   d="M627 380l223 -447l-27 -12l-229 459l229 459l27 -12zM738 380l222 -447l-26 -12l-229 459l229 459l26 -12z"/>
            <glyph glyph-name="Identity.234"
                   d="M259 380l-223 447l27 12l229 -459l-229 -459l-27 12zM369 380l-222 447l26 12l229 -459l-229 -459l-26 12z"/>
            <glyph glyph-name="Identity.235"
                   d="M962 849v-30h-299v-618h-30v648h329z"/>
            <glyph glyph-name="Identity.236"
                   d="M38 -89v30h299v618h30v-648h-329z"/>
            <glyph glyph-name="Identity.237"
                   d="M970 734h-239v-531h-117v648h356v-117zM948 829h-313v-606h74v532h239v74z"/>
            <glyph glyph-name="Identity.238"
                   d="M29 27h239v531h117v-648h-356v117zM51 -68h313v606h-74v-532h-239v-74z"/>
            <glyph glyph-name="Identity.239"
                   d="M678 838h284v-4q-91 -74 -147 -192.5t-56 -261.5t56 -261.5t147 -192.5v-4h-284v916z"/>
            <glyph glyph-name="Identity.240"
                   d="M322 838v-916h-284v4q91 74 147 192.5t56 261.5t-56 261.5t-147 192.5v4h284z"/>
            <glyph glyph-name="Identity.241"
                   d="M400 326q-79 -32 -126.5 -91.5t-47.5 -126.5q0 -73 56 -73q68 0 136 48q-19 92 -19 214q0 19 1 29zM590 354q-12 1 -38 1q-59 0 -117 -16v-40q0 -113 14 -190q100 90 141 245zM606 439l35 -4q-5 -31 -10 -54q85 -16 130.5 -66.5t45.5 -126.5q0 -93 -62 -152t-189 -77
l-13 34q227 28 227 195q0 64 -37 106t-110 55q-47 -177 -166 -277q10 -38 17 -55l-35 -13q-6 16 -13 45q-75 -49 -149 -49q-42 0 -63.5 28.5t-21.5 78.5q0 79 57.5 149t151.5 105q2 65 9 131h-209v33h212q6 51 15 99l36 -2q-6 -31 -14 -97h341v-33h-345q-7 -59 -9 -119
q54 15 115 15q31 0 45 -2q6 25 9 53z"/>
            <glyph glyph-name="Identity.242"
                   d="M375 426q-104 -42 -167.5 -118.5t-63.5 -162.5q0 -50 20.5 -73.5t68.5 -23.5q84 0 166 61q-25 118 -25 276q0 27 1 41zM617 460q-15 2 -48 2q-81 0 -155 -23q-1 -17 -1 -51q0 -144 19 -252q131 118 185 324zM637 567l39 -5q-7 -42 -13 -71q110 -19 168 -82.5t58 -162.5
q0 -246 -319 -292l-15 37q293 35 293 255q0 84 -48.5 138.5t-144.5 71.5q-62 -231 -214 -360q9 -36 21 -70l-37 -15q-11 29 -18 60q-90 -62 -179 -62q-122 0 -122 135q0 100 74.5 187.5t195.5 132.5q3 86 12 174h-273v37h277q8 69 18 130l40 -3q-10 -59 -18 -127h441v-37
h-446q-9 -82 -12 -161q72 21 155 21q21 0 55 -2q8 36 12 71z"/>
            <glyph glyph-name="Identity.243"
                   d="M637 505l30 21q80 -77 116 -174t40 -230l-39 -3q-2 128 -36 221.5t-111 164.5zM206 515l38 -3q-6 -72 -6 -169q0 -137 43 -228.5t92 -91.5q52 0 92 154l32 -14q-50 -179 -123 -179q-65 0 -119.5 102.5t-54.5 254.5q0 81 6 174z"/>
            <glyph glyph-name="Identity.244"
                   d="M685 670l33 25q103 -99 148.5 -223t50.5 -293l-44 -4q-2 163 -46.5 283.5t-141.5 211.5zM132 681l43 -3q-9 -116 -9 -217q0 -176 55.5 -294.5t118.5 -118.5q70 0 122 198l36 -15q-31 -111 -68.5 -169t-87.5 -58q-80 0 -148.5 130t-68.5 325q0 111 7 222z"/>
            <glyph glyph-name="Identity.245"
                   d="M349 585l14 34q101 -45 302 -86l-7 -35q-212 47 -309 87zM228 366q188 43 309 43q89 0 144.5 -49t55.5 -138q0 -239 -399 -274l-10 36q191 16 281 74.5t90 162.5q0 73 -44.5 113t-117.5 40q-124 0 -302 -44z"/>
            <glyph glyph-name="Identity.246"
                   d="M308 771l15 38q141 -62 387 -110l-8 -39q-263 56 -394 111zM151 487q247 55 398 55q111 0 180.5 -62.5t69.5 -176.5q0 -149 -125.5 -239.5t-382.5 -113.5l-12 40q476 39 476 312q0 94 -57.5 147.5t-150.5 53.5q-157 0 -387 -57z"/>
            <glyph glyph-name="Identity.247"
                   d="M345 592l12 33q112 -44 320 -82l-7 -34q-198 37 -325 83zM227 405q229 0 421 19l21 -25l-196 -197q28 14 56 14q25 0 42 -16.5t19 -48.5q4 -73 7 -92q6 -39 27 -48t89 -9q66 0 118 8v-36q-57 -7 -124 -7q-76 0 -105.5 15t-38.5 61q-2 9 -3.5 41t-3.5 52q-5 47 -41 47
q-33 0 -62 -18q-26 -13 -42 -29q-77 -69 -187 -181l-28 27q63 57 208.5 200t203.5 205q-204 -14 -379 -18z"/>
            <glyph glyph-name="Identity.248"
                   d="M296 771l12 36q67 -27 186 -56.5t220 -47.5l-8 -37q-259 49 -410 105zM145 532q256 0 536 28l25 -33l-252 -258q38 18 71 18q32 0 52 -21t22 -63q5 -93 10 -119q8 -51 37 -64.5t115 -13.5q84 0 151 12v-41q-69 -8 -157 -8q-97 0 -135.5 19.5t-49.5 77.5l-9 119
q-6 65 -53 65q-40 0 -80 -23q-25 -13 -53 -39q-35 -32 -240 -234l-32 29q78 69 266 257l274 279q-274 -22 -494 -26z"/>
            <glyph glyph-name="Identity.249"
                   d="M399 251q-71 -32 -114.5 -81.5t-43.5 -100.5q0 -39 29 -59t78 -20q27 0 39 15t12 56v190zM207 487h192v128h37v-128h197v-34h-197v-152q66 21 141 21q104 0 157 -47.5t53 -135.5q0 -83 -51 -132t-152 -49q-24 0 -59 5v37q35 -6 62 -6q83 0 123 38.5t40 106.5
q0 150 -179 150q-66 0 -135 -23v-206q0 -55 -21 -79t-65 -24q-63 0 -103.5 28.5t-40.5 80.5q0 66 53.5 126t139.5 95v166h-192v34zM708 535q81 -50 146 -129l-27 -25q-23 31 -64.5 68.5t-78.5 59.5z"/>
            <glyph glyph-name="Identity.250"
                   d="M375 338q-93 -41 -150.5 -105.5t-57.5 -130.5q0 -47 34.5 -75.5t99.5 -28.5q42 0 58 22t16 80v238zM127 633h248v170h41v-170h271v-37h-271v-204q87 29 185 29q132 0 199 -58t67 -170q0 -105 -65 -168t-190 -63q-23 0 -79 6l1 40q41 -7 78 -7q108 0 160.5 51t52.5 142
q0 191 -232 191q-92 0 -177 -30v-256q0 -74 -25.5 -106.5t-84.5 -32.5q-84 0 -131 40t-47 96q0 83 68.5 159.5t178.5 121.5v219h-248v37zM775 697q92 -57 187 -164l-30 -28q-29 39 -82.5 87.5t-98.5 76.5z"/>
            <glyph glyph-name="Identity.251"
                   d="M767 631q82 -84 132 -191.5t67 -214.5l-40 -9q-36 233 -192 391zM90 537q106 15 246 27q32 124 46 239l41 -5q-20 -128 -47 -231q72 5 112 5q87 0 128 -50.5t41 -155.5q0 -110 -18 -211t-46 -145q-19 -30 -43.5 -41.5t-67.5 -11.5q-68 0 -141 17l4 40q60 -19 131 -19
q34 0 51 8t33 32q25 38 40.5 132.5t15.5 197.5q0 90 -31 129.5t-101 39.5q-41 0 -118 -5q-87 -327 -223 -520l-36 20q136 188 219 497q-140 -13 -229 -29z"/>
            <glyph glyph-name="Identity.252"
                   d="M842 838l22 19q63 -56 115 -130l-24 -19q-46 71 -113 130zM750 779l22 20q62 -56 115 -130l-26 -19q-47 72 -111 129zM769 627q159 -164 198 -404l-41 -9q-36 233 -190 390zM90 537q141 18 243 27q30 115 45 239l41 -5q-16 -110 -46 -231q75 5 115 5q87 0 128 -50.5
t41 -155.5q0 -110 -18 -211t-46 -145q-20 -33 -46.5 -43.5t-71.5 -9.5q-71 2 -134 17l4 40q52 -16 124 -19q37 -1 55.5 7t35.5 33q25 38 40.5 132.5t15.5 197.5q0 88 -31 128.5t-101 40.5q-43 0 -120 -5q-88 -328 -220 -520l-36 20q134 189 215 497q-138 -13 -226 -29z"/>
            <glyph glyph-name="Identity.253"
                   d="M133 425l-1 37q230 0 465 17q-28 66 -54 152q-203 -13 -377 -16l-1 38q193 0 368 13q-21 79 -30 134l43 5q9 -62 28 -136q156 11 263 29l5 -37q-96 -14 -259 -27q21 -74 53 -153q168 13 257 27l5 -37q-90 -13 -247 -24q59 -130 131 -204l-23 -34q-158 76 -343 76
q-97 0 -148.5 -38t-51.5 -101q0 -74 90.5 -112.5t251.5 -38.5q84 0 147 5l-3 -40q-61 -4 -139 -4q-186 0 -287 49.5t-101 141.5q0 80 63.5 127t173.5 47q171 0 306 -60q-52 61 -106 183q-247 -17 -479 -19z"/>
            <glyph glyph-name="Identity.254"
                   d="M876 855l24 18q54 -55 95 -126l-27 -18q-39 73 -92 126zM771 814l24 18q54 -55 95 -126l-27 -18q-39 73 -92 126zM133 425l-1 37q217 0 457 16q-32 69 -60 151q-184 -11 -363 -14l-1 37q182 0 353 12q-23 76 -34 136l43 5q10 -66 32 -138q151 11 248 28l5 -37
q-107 -15 -242 -26q24 -78 58 -151q169 11 265 27l5 -37q-79 -11 -253 -25q64 -130 137 -203l-23 -34q-158 76 -343 76q-97 0 -148.5 -38t-51.5 -101q0 -74 90.5 -112.5t251.5 -38.5q84 0 147 5l-3 -40q-61 -4 -139 -4q-186 0 -287 49.5t-101 141.5q0 80 63.5 127t173.5 47
q171 0 306 -60q-53 61 -113 182q-252 -16 -472 -18z"/>
            <glyph glyph-name="Identity.255"
                   d="M684 811l34 -27q-73 -80 -216 -204t-243 -193q-11 -7 -11 -15q0 -9 10 -16q352 -231 498 -380l-35 -30q-150 161 -503 387q-23 15 -23 37q0 23 25 39q99 65 248.5 195t215.5 207z"/>
            <glyph glyph-name="Identity.256"
                   d="M858 852l23 17q62 -64 111 -150l-26 -17q-42 80 -108 150zM769 780l25 17q62 -66 109 -150l-27 -17q-47 87 -107 150zM672 806l33 -27q-76 -81 -215.5 -202t-238.5 -189q-11 -8 -11 -16q0 -9 10 -16q347 -226 498 -380l-35 -30q-148 159 -503 388q-23 15 -23 37
q0 21 25 38q98 64 244.5 191.5t215.5 205.5z"/>
            <glyph glyph-name="Identity.257"
                   d="M201 796l42 -6q-36 -200 -36 -416q0 -208 52 -350l-40 -13q-53 145 -53 357q0 213 35 428zM381 566h348q-5 106 -15 236l43 2q9 -130 12 -238h154v-39h-153v-69q0 -214 -40.5 -322.5t-156.5 -184.5l-31 29q112 70 150.5 172t38.5 306q0 45 -1 69h-349v39z"/>
            <glyph glyph-name="Identity.258"
                   d="M868 854l22 19q59 -58 106 -127l-23 -18q-48 75 -105 126zM786 788l22 18q56 -53 106 -127l-23 -18q-45 70 -105 127zM199 787l42 -6q-36 -208 -36 -415q0 -204 52 -350l-40 -13q-52 143 -52 357q0 208 34 427zM381 555h341q-3 84 -16 246l43 2q9 -136 12 -248h162v-38
h-161v-60q0 -214 -40 -321.5t-156 -184.5l-32 28q113 69 151.5 171.5t38.5 306.5q0 10 -0.5 29.5t-0.5 30.5h-342v38z"/>
            <glyph glyph-name="Identity.259"
                   d="M504 694h1q149 0 285 8l17 -39q-92 -53 -236 -163l-27 27l192 134q-132 -6 -237 -6q-132 0 -287 18l8 40q136 -19 284 -19zM167 148v1q0 91 93 204l33 -21q-84 -103 -84 -179q0 -72 83 -100.5t275 -28.5q167 0 279 27l7 -42q-133 -26 -289 -26q-207 0 -302 36t-95 129z
"/>
            <glyph glyph-name="Identity.260"
                   d="M884 856l26 13q49 -71 80 -153l-28 -12q-25 75 -78 152zM762 840l26 15q47 -69 79 -152l-28 -14q-32 85 -77 151zM506 688h1q168 0 280 8l20 -40q-106 -64 -234 -162l-28 27l194 134q-132 -6 -238 -6q-125 0 -289 19l8 39q136 -19 286 -19zM167 148v1q0 91 93 204l33 -21
q-84 -103 -84 -179q0 -72 83 -100.5t275 -28.5q167 0 279 27l7 -42q-133 -26 -289 -26q-207 0 -302 36t-95 129z"/>
            <glyph glyph-name="Identity.261"
                   d="M116 557v38q66 -2 107 -2q174 0 342 13q-35 101 -48 194l42 5q12 -96 47 -196q174 13 281 36l8 -38q-98 -20 -276 -35q74 -198 181 -300l-31 -35q-188 76 -356 76q-94 0 -146.5 -40t-52.5 -107q0 -172 354 -172q53 0 131 5l-1 -39q-56 -5 -128 -5q-397 0 -397 214
q0 81 64.5 130.5t169.5 49.5q161 0 328 -60q-89 94 -157 280q-176 -13 -363 -13q-68 0 -99 1z"/>
            <glyph glyph-name="Identity.262"
                   d="M846 850l23 19q60 -57 103 -122l-25 -20q-48 77 -101 123zM752 796l23 19q60 -57 103 -122l-25 -19q-49 77 -101 122zM116 555v38q66 -2 107 -2q176 0 342 13q-35 103 -48 196l42 5q11 -91 47 -198q173 13 281 36l8 -38q-98 -20 -276 -35q74 -195 181 -298l-31 -35
q-188 76 -356 76q-94 0 -146.5 -40t-52.5 -107q0 -172 354 -172q53 0 131 5l-1 -39q-56 -5 -128 -5q-397 0 -397 214q0 81 64.5 130.5t169.5 49.5q161 0 328 -60q-89 95 -157 278q-175 -13 -363 -13q-68 0 -99 1z"/>
            <glyph glyph-name="Identity.263"
                   d="M244 792h45q-7 -220 -7 -536q0 -137 51.5 -197t163.5 -60q118 0 200.5 72t135.5 243l39 -18q-60 -183 -152.5 -260.5t-223.5 -77.5q-132 0 -193.5 73.5t-61.5 222.5q0 35 1.5 224.5t1.5 313.5z"/>
            <glyph glyph-name="Identity.264"
                   d="M244 792h45q-7 -220 -7 -536q0 -137 51.5 -197t163.5 -60q118 0 200.5 72t135.5 243l39 -18q-60 -183 -152.5 -260.5t-223.5 -77.5q-132 0 -193.5 73.5t-61.5 222.5q0 35 1.5 224.5t1.5 313.5zM685 726l23 18q61 -61 114 -147l-26 -19q-46 80 -111 148zM579 665l24 19
q63 -66 114 -148l-26 -18q-48 81 -112 147z"/>
            <glyph glyph-name="Identity.265"
                   d="M593 362q-7 63 -44.5 97t-97.5 34q-57 0 -96.5 -42t-39.5 -100q0 -64 38 -102t102 -38q58 0 98 46.5t40 98.5v6zM105 671h487q0 25 -0.5 69.5t-0.5 62.5h42v-132h274v-37h-274v-264q3 -17 3 -35q0 -79 -10.5 -133.5t-41 -106.5t-91 -89t-155.5 -62l-18 38
q144 36 201.5 97t68.5 164q-52 -68 -139 -68q-83 0 -129 49t-46 128q0 73 48.5 125.5t125.5 52.5q93 0 143 -61q-1 51 -1 165h-487v37z"/>
            <glyph glyph-name="Identity.266"
                   d="M840 860l24 18q59 -64 93 -127l-26 -15q-31 64 -91 124zM726 827l24 18q55 -58 94 -126l-26 -16q-34 66 -92 124zM593 361q-7 64 -44.5 98t-97.5 34q-57 0 -96.5 -42t-39.5 -100q0 -64 38 -102t102 -38q58 0 98 46t40 98v6zM105 670h487q0 26 -0.5 70.5t-0.5 62.5h42
v-133h274v-38h-274v-262q3 -18 3 -36q0 -63 -6 -108.5t-24.5 -91.5t-51 -79t-86.5 -62t-130 -49l-18 38q143 36 201 96.5t69 163.5q-53 -67 -139 -67q-83 0 -129 49t-46 128q0 72 49 124.5t125 52.5q92 0 143 -60q-1 51 -1 163h-487v38z"/>
            <glyph glyph-name="Identity.267"
                   d="M66 491q40 4 201 19q0 43 0.5 129t0.5 126h42q-3 -120 -3 -252q75 7 220 19t179 15v64q0 138 -3 192h41q2 -108 2 -193v-60l185 15l3 -40q-35 -2 -188 -13q-1 -144 -10 -207t-30.5 -84.5t-70.5 -21.5q-58 0 -114 8v36q46 -8 109 -8q34 0 48 16t20.5 71.5t7.5 186.5
q-202 -16 -398 -34v-7q0 -151 4 -279q5 -110 62.5 -148.5t219.5 -37.5q111 0 209 10l1 -41q-116 -8 -205 -8q-182 0 -252.5 45.5t-75.5 177.5q-4 84 -4 279v6l-197 -20z"/>
            <glyph glyph-name="Identity.268"
                   d="M873 857l23 17q57 -65 96 -140l-26 -16q-37 73 -93 139zM773 810l23 17q54 -61 96 -140l-26 -16q-38 77 -93 139zM66 491l201 18q0 44 0.5 130t0.5 126h42q-3 -120 -3 -252l397 33v65q0 133 -3 187h41q2 -110 2 -189v-60q55 5 187 15l3 -39l-190 -14q-1 -144 -10 -207
t-30.5 -84t-70.5 -21q-55 0 -114 7v37q46 -8 109 -8q34 0 48 16t20.5 71.5t7.5 185.5q-173 -12 -396 -33v-7q0 -151 4 -279q5 -110 62.5 -148.5t219.5 -37.5q111 0 209 10l1 -41q-116 -8 -205 -8q-182 0 -252.5 45.5t-75.5 177.5q-4 84 -4 279v5l-98 -9.5l-99 -9.5z"/>
            <glyph glyph-name="Identity.269"
                   d="M198 728q273 0 530 15l18 -38l-408 -265q496 48 528 52l6 -38q-78 -7 -124 -17t-91 -32q-215 -106 -215 -242q0 -78 74 -116.5t232 -50.5l-8 -41q-175 15 -258 62t-83 140q0 152 232 271q-396 -35 -551 -58l-6 40q73 7 179 22q72 41 201 124.5t215 145.5
q-321 -12 -469 -13z"/>
            <glyph glyph-name="Identity.270"
                   d="M860 850l23 18q62 -64 105 -135l-26 -18q-36 69 -102 135zM770 791l23 18q60 -60 104 -135l-26 -18q-42 76 -101 135zM198 728q247 0 527 14l19 -38l-406 -264q496 48 528 52l6 -38q-78 -7 -124 -17t-91 -32q-215 -106 -215 -242q0 -78 74 -116.5t232 -50.5l-8 -41
q-175 15 -258 62t-83 140q0 152 232 271q-396 -35 -551 -58l-6 40q73 7 179 22q72 41 201 124.5t215 145.5q-321 -12 -469 -13z"/>
            <glyph glyph-name="Identity.271"
                   d="M105 668h205q12 79 17 134l42 -3q-6 -63 -18 -131h325v-39h-331q-34 -189 -89.5 -372t-121.5 -299l-38 19q66 114 121 292t86 360h-198v39zM883 493v-37q-54 3 -135 3q-135 0 -236 -13l-1 38q88 10 243 12q76 0 129 -3zM499 226l36 -10q-37 -67 -37 -113q0 -42 61.5 -60
t197.5 -18q82 0 139 8v-40q-66 -6 -138 -6q-151 0 -225 25t-74 84q0 54 40 130z"/>
            <glyph glyph-name="Identity.272"
                   d="M825 826l23 19q60 -60 114 -148l-26 -19q-46 80 -111 148zM717 770l24 19q62 -62 114 -148l-26 -18q-48 81 -112 147zM105 668h205q12 79 17 134l42 -3q-6 -63 -18 -131h325v-39h-331q-34 -189 -89.5 -372t-121.5 -299l-38 19q66 114 121 292t86 360h-198v39zM883 493
v-37q-54 3 -135 3q-135 0 -236 -13l-1 38q88 10 243 12q76 0 129 -3zM499 226l36 -10q-37 -67 -37 -113q0 -42 61.5 -60t197.5 -18q82 0 139 8v-40q-66 -6 -138 -6q-151 0 -225 25t-74 84q0 54 40 130z"/>
            <glyph glyph-name="Identity.273"
                   d="M119 654h216q8 61 14 149l41 -1q-5 -74 -15 -148h493v-38h-498q-35 -220 -100 -335q80 55 181.5 92t184.5 37q98 0 160 -58t62 -144q0 -251 -403 -251q-58 0 -113 4l-1 41q54 -5 118 -5q357 0 357 209q0 69 -51 118t-134 49q-84 0 -187 -41t-193 -110l-40 29
q79 127 118 365h-210v38z"/>
            <glyph glyph-name="Identity.274"
                   d="M827 854l22 18q58 -56 107 -135l-26 -19q-44 75 -103 136zM701 825l23 18q53 -52 107 -135l-26 -18q-47 79 -104 135zM119 649h215q10 77 15 154l41 -1q-5 -76 -15 -153h493v-37h-499q-36 -221 -99 -331q80 55 181.5 92t184.5 37q98 0 160 -58t62 -144q0 -251 -403 -251
q-58 0 -113 4l-1 41q54 -5 118 -5q357 0 357 209q0 69 -51 118t-134 49q-84 0 -187 -41t-193 -110l-40 29q81 131 117 361h-209v37z"/>
            <glyph glyph-name="Identity.275"
                   d="M162 408q295 71 386 71q109 0 177.5 -62.5t68.5 -164.5q0 -267 -414 -277l-7 38q381 6 381 238q0 85 -56.5 138t-153.5 53q-106 0 -373 -71z"/>
            <glyph glyph-name="Identity.276"
                   d="M72 580q10 2 53 12.5t57 13.5t53.5 12.5t56.5 13l52.5 10.5l54.5 10.5l48 8.5t48.5 7t41.5 3.5t40 1.5q143 0 231 -82.5t88 -218.5q0 -173 -131.5 -263.5t-412.5 -97.5l-8 41q265 4 386.5 82.5t121.5 235.5q0 117 -75 190t-205 73q-128 0 -491 -95z"/>
            <glyph glyph-name="Identity.277"
                   d="M842 830l23 19q58 -58 114 -147l-26 -19q-49 86 -111 147zM729 786l24 19q58 -60 113 -147l-26 -19q-47 85 -111 147zM72 576q10 2 53 12.5t57 13.5t53.5 12.5t56.5 13l52.5 10.5l54.5 10.5l48 8.5t48.5 7t41.5 3.5t40 1.5q143 0 231 -82.5t88 -218.5
q0 -173 -131.5 -263.5t-412.5 -97.5l-8 41q265 4 386.5 82.5t121.5 235.5q0 117 -75 190t-205 73q-128 0 -491 -95z"/>
            <glyph glyph-name="Identity.278"
                   d="M94 669q258 6 549 30q23 2 212 20l5 -41q-72 -3 -144 -14q-29 -3 -77 -32q-109 -67 -177 -159t-68 -193q0 -123 101.5 -192.5t286.5 -80.5l-5 -40q-197 9 -311 89.5t-114 221.5q0 107 71.5 206.5t192.5 174.5q-246 -20 -519 -30z"/>
            <glyph glyph-name="Identity.279"
                   d="M94 669q258 6 549 30q23 2 212 20l5 -41q-72 -3 -144 -14q-29 -3 -77 -32q-109 -67 -177 -159t-68 -193q0 -123 101.5 -192.5t286.5 -80.5l-5 -40q-197 9 -311 89.5t-114 221.5q0 107 71.5 206.5t192.5 174.5q-246 -20 -519 -30zM797 553l25 15q57 -69 99 -155l-26 -15
q-39 87 -98 155zM690 504l26 16q61 -79 98 -156l-27 -15q-35 79 -97 155z"/>
            <glyph glyph-name="Identity.280"
                   d="M765 565l17 -40l-114.5 -40t-111 -43t-107.5 -47.5t-90.5 -51t-75.5 -57.5t-46.5 -62t-18.5 -69q0 -153 336 -153q163 0 291 21l5 -42q-138 -19 -295 -19q-380 0 -380 192q0 78 65 143.5t182 125.5q-44 61 -57.5 141t-13.5 239h43q0 -156 12 -232.5t52 -129.5
q90 43 307 124z"/>
            <glyph glyph-name="Identity.281"
                   d="M818 807l23 18q66 -67 113 -148l-26 -17q-42 76 -110 147zM705 764l24 19q63 -66 113 -149l-27 -17q-47 82 -110 147zM765 565l17 -40l-114.5 -40t-111 -43t-107.5 -47.5t-90.5 -51t-75.5 -57.5t-46.5 -62t-18.5 -69q0 -153 336 -153q163 0 291 21l5 -42
q-138 -19 -295 -19q-380 0 -380 192q0 78 65 143.5t182 125.5q-44 61 -57.5 141t-13.5 239h43q0 -156 12 -232.5t52 -129.5q90 43 307 124z"/>
            <glyph glyph-name="Identity.282"
                   d="M917 553l-21 -33q-45 33 -118.5 74.5t-130.5 63.5l20 33q136 -59 250 -138zM110 650h187q23 84 36 160l42 -5q-13 -73 -36 -155h196v-38h-207q-89 -301 -203 -466l-37 22q113 156 197 444h-175v38zM667 174q-72 25 -135 25q-72 0 -112.5 -28t-40.5 -76q0 -41 44.5 -71
t105.5 -30q71 0 104.5 31t33.5 94v55zM666 505h40q-1 -21 -1 -97q0 -149 1 -211q103 -42 191 -112l-26 -30q-73 63 -165 103v-39q0 -161 -174 -161q-83 0 -136 40.5t-53 96.5q0 63 51 101t138 38q65 0 134 -23v197v97z"/>
            <glyph glyph-name="Identity.283"
                   d="M166 323v1q0 243 49 473l44 -7q-52 -214 -52 -465q0 -232 52 -354l-42 -13q-51 135 -51 365zM717 655h1q66 0 154 -2l-2 -40q-71 6 -169 6q-155 0 -288 -16l-3 39q145 13 307 13zM895 73v-40q-103 -10 -191 -10q-145 0 -223.5 25.5t-78.5 90.5q0 56 48 148l37 -9
q-46 -88 -46 -132q0 -47 66.5 -66t196.5 -19q100 0 191 12z"/>
            <glyph glyph-name="Identity.284"
                   d="M821 104q-77 41 -152 41q-56 0 -88 -20.5t-32 -56.5q0 -38 33 -57t84 -19q60 0 98 26.5t57 85.5zM359 132q-74 120 -114 302q-122 -119 -122 -289q0 -58 23 -89t64 -31q74 0 149 107zM277 462q33 -172 105 -293q92 157 132 393q-138 -20 -237 -100zM211 723l38 1
q3 -121 20 -221q109 78 251 97q13 101 13 190l40 -1q-1 -89 -14 -185q17 2 53 2q131 0 201.5 -86.5t70.5 -233.5q0 -96 -17 -166q38 -23 92 -65l-25 -29q-37 30 -78 58q-48 -127 -188 -127q-72 0 -113.5 29.5t-41.5 80.5q0 50 42.5 81.5t114.5 31.5q80 0 160 -40
q13 56 13 147q0 132 -61 206.5t-177 74.5q-35 0 -51 -2q-44 -266 -149 -433q22 -30 34 -43l-27 -32q-16 18 -31 40q-87 -114 -180 -114q-50 0 -82.5 41t-32.5 116q0 97 39 184t111 151q-20 115 -25 247z"/>
            <glyph glyph-name="Identity.285"
                   d="M816 134q-70 39 -152 39q-71 0 -113 -26.5t-42 -66.5q0 -41 39 -64.5t101 -23.5q77 0 115.5 31.5t51.5 110.5zM320 614l21 -15q-14 -44 -23 -94l-1 -58q79 88 172 137.5t178 49.5q72 0 114 -29t63.5 -103.5t21.5 -205.5q0 -79 -8 -145q48 -29 104 -80l-25 -30
q-48 48 -86 72q-18 -84 -64.5 -119.5t-135.5 -35.5q-81 0 -130 33.5t-49 88.5t51.5 91t139.5 36q86 0 158 -36q5 44 5 125q0 116 -17 180.5t-52 90.5t-97 26q-76 0 -167 -50t-177 -147q-4 -354 -4 -439h-40q0 78 4 390q-51 -67 -169 -256l-33 23q111 164 171 272
q21 37 33 83l2 103q-98 -11 -190 -18l-4 39q81 4 194 18q3 123 3 192h41q-4 -176 -4 -189z"/>
            <glyph glyph-name="Identity.286"
                   d="M476 674q-150 -16 -243 -127t-93 -257q0 -83 34.5 -150t80.5 -67q36 0 73.5 43t69.5 118.5t53.5 191.5t24.5 248zM100 289v1q0 110 52 207t149 157.5t215 60.5q184 0 281 -93.5t97 -253.5q0 -154 -84.5 -254t-275.5 -141l-20 40q182 34 259.5 123.5t77.5 231.5
q0 144 -87 226t-244 82h-3q-5 -187 -44 -337t-97 -230t-122 -80q-61 0 -107.5 78t-46.5 182z"/>
            <glyph glyph-name="Identity.287"
                   d="M714 172q-76 30 -148 30q-67 0 -107 -26t-40 -69q0 -41 41 -71.5t108 -30.5q88 0 117 36t29 131zM378 590h325q-3 115 -3 202h42v-133v-69h175v-38h-174q2 -82 7 -213t5 -144q83 -38 169 -105l-24 -33q-72 60 -145 96q-3 -101 -43 -142.5t-141 -41.5q-85 0 -137.5 40.5
t-52.5 97.5t51.5 93.5t134.5 36.5q71 0 147 -26q0 32 -10 341h-326v38zM196 788l41 -6q-38 -185 -38 -413q0 -248 48 -395l-40 -11q-47 154 -47 404q0 210 36 421z"/>
            <glyph glyph-name="Identity.288"
                   d="M865 860l21 17q62 -62 111 -145l-24 -17q-43 78 -108 145zM769 802l21 17q63 -63 111 -146l-24 -17q-42 77 -108 146zM712 172q-76 30 -148 30q-67 0 -107 -26t-40 -69q0 -41 41 -71.5t108 -30.5q87 0 116.5 36t29.5 131zM378 586h323q-4 156 -4 206h42v-133v-73h177v-39
h-176q2 -74 7 -197.5t5 -154.5q84 -37 170 -105l-24 -33q-73 60 -146 96q-2 -101 -42 -142.5t-142 -41.5q-85 0 -137 40t-52 98q0 57 51 93.5t134 36.5q70 0 148 -26q-3 112 -10 336h-324v39zM196 788l41 -6q-38 -185 -38 -413q0 -247 47 -395l-39 -11q-48 158 -48 404
q0 214 37 421z"/>
            <glyph glyph-name="Identity.289"
                   d="M994 759v-1q0 -43 -30.5 -73t-73.5 -30t-73 30t-30 73q0 44 30 74t73 30t73.5 -30t30.5 -73zM810 758q0 -32 24 -55.5t56 -23.5q33 0 56.5 23.5t23.5 55.5q0 33 -23.5 56.5t-56.5 23.5q-32 0 -56 -23.5t-24 -56.5zM712 172q-76 30 -148 30q-67 0 -107 -26t-40 -69
q0 -41 41 -71.5t108 -30.5q87 0 116.5 36t29.5 131zM378 586h323q-4 156 -4 206h42q0 -17 -0.5 -62.5t-0.5 -70.5q0 -12 0.5 -36t0.5 -37h177v-39h-176q2 -74 7 -197.5t5 -154.5q84 -37 170 -105l-24 -33q-73 60 -146 96q-2 -101 -42 -142.5t-142 -41.5q-85 0 -137 40
t-52 98q0 57 51 93.5t134 36.5q70 0 148 -26q-3 112 -10 336h-324v39zM196 788l41 -6q-38 -185 -38 -413q0 -247 47 -395l-39 -11q-48 158 -48 404q0 214 37 421z"/>
            <glyph glyph-name="Identity.290"
                   d="M359 690q32 18 52 42l30 -26q-104 -104 -166.5 -236.5t-62.5 -231.5q0 -113 63.5 -172t166.5 -59q131 0 203.5 92t72.5 277q0 158 -57 376l36 11q39 -109 106.5 -190t160.5 -122l-19 -37q-79 38 -134.5 96.5t-86.5 120.5q33 -145 33 -265q0 -193 -80.5 -296t-237.5 -103
q-120 0 -192.5 70t-72.5 199q0 88 49 205t116 201q-84 -41 -268 -52l-5 41q82 2 164.5 18t128.5 41z"/>
            <glyph glyph-name="Identity.291"
                   d="M857 854l22 17q64 -66 112 -146l-25 -17q-47 82 -109 146zM746 810l23 19q66 -71 113 -147l-26 -17q-48 83 -110 145zM359 690q32 18 52 42l30 -26q-104 -104 -166.5 -236.5t-62.5 -231.5q0 -113 63.5 -172t166.5 -59q131 0 203.5 92t72.5 277q0 158 -57 376l35 10
q84 -229 268 -311l-19 -37q-79 38 -134.5 96.5t-86.5 120.5q33 -145 33 -265q0 -193 -80.5 -296t-237.5 -103q-120 0 -192.5 70t-72.5 199q0 88 49 205t116 201q-84 -41 -268 -52l-5 41q82 2 164.5 18t128.5 41z"/>
            <glyph glyph-name="Identity.292"
                   d="M983 758v-1q0 -43 -30 -73t-73 -30q-44 0 -74 30t-30 74q0 43 30 73t74 30q43 0 73 -30t30 -73zM800 758v-1q0 -32 23.5 -55.5t56.5 -23.5q32 0 55.5 23.5t23.5 56.5q0 32 -23.5 56t-55.5 24q-33 0 -56.5 -24t-23.5 -56zM359 690q32 18 52 42l30 -26
q-104 -104 -166.5 -236.5t-62.5 -231.5q0 -113 63.5 -172t166.5 -59q131 0 203.5 92t72.5 277q0 158 -57 376l35 10q84 -229 268 -311l-19 -37q-79 38 -134.5 96.5t-86.5 120.5q33 -145 33 -265q0 -193 -80.5 -296t-237.5 -103q-120 0 -192.5 70t-72.5 199q0 88 49 205
t116 201q-84 -41 -268 -52l-5 41q82 2 164.5 18t128.5 41z"/>
            <glyph glyph-name="Identity.293"
                   d="M311 791q90 -17 206 -48t181 -57l-15 -37q-60 25 -178 56.5t-206 46.5zM497 316q-59 61 -59 124q0 50 29 130l40 -10q-27 -70 -27 -116q0 -53 51 -107q61 -65 87 -116.5t26 -105.5q0 -66 -43.5 -105.5t-129.5 -39.5q-99 0 -195 36l6 39q97 -37 187 -37q66 0 99.5 28
t33.5 80q0 91 -105 200zM730 361l34 20q46 -55 103 -148t88 -162l-40 -19q-28 70 -83 161.5t-102 147.5zM239 359l37 -14q-26 -64 -84.5 -159t-109.5 -155l-34 23q51 54 110 149.5t81 155.5z"/>
            <glyph glyph-name="Identity.294"
                   d="M838 837l24 19q57 -58 112 -148l-25 -17q-46 81 -111 146zM729 789l23 19q60 -63 112 -149l-25 -17q-47 82 -110 147zM311 791q90 -17 206 -48t181 -57l-15 -37q-60 25 -178 56.5t-206 46.5zM497 316q-59 61 -59 124q0 50 29 130l40 -10q-27 -70 -27 -116q0 -53 51 -107
q61 -65 87 -116.5t26 -105.5q0 -66 -43.5 -105.5t-129.5 -39.5q-99 0 -195 36l6 39q97 -37 187 -37q66 0 99.5 28t33.5 80q0 91 -105 200zM730 361l34 20q46 -55 103 -148t88 -162l-40 -19q-28 70 -83 161.5t-102 147.5zM239 359l37 -14q-26 -64 -84.5 -159t-109.5 -155
l-34 23q51 54 110 149.5t81 155.5z"/>
            <glyph glyph-name="Identity.295"
                   d="M311 791q90 -17 206 -48t181 -57l-15 -37q-60 25 -178 56.5t-206 46.5zM955 646v-1q0 -45 -32.5 -77t-77.5 -32q-46 0 -78 32.5t-32 77.5q0 46 32 78t78 32t78 -32t32 -78zM759 646v-1q0 -34 25.5 -59.5t60.5 -25.5t60.5 25.5t25.5 60.5t-25.5 61t-60.5 26t-60.5 -26
t-25.5 -61zM497 316q-59 61 -59 124q0 50 29 130l40 -10q-27 -70 -27 -116q0 -53 51 -107q61 -65 87 -116.5t26 -105.5q0 -66 -43.5 -105.5t-129.5 -39.5q-99 0 -195 36l6 39q97 -37 187 -37q66 0 99.5 28t33.5 80q0 91 -105 200zM730 361l34 20q46 -55 103 -148t88 -162
l-40 -19q-28 70 -83 161.5t-102 147.5zM239 359l37 -14q-26 -64 -84.5 -159t-109.5 -155l-34 23q51 54 110 149.5t81 155.5z"/>
            <glyph glyph-name="Identity.296"
                   d="M36 211l94.5 107.5l111 131.5l73.5 88q49 55 96 55q51 0 106 -71q69 -90 201 -221t246 -217l-28 -32q-111 87 -240.5 215.5t-201.5 217.5q-48 60 -84 60q-34 0 -76 -47q-33 -36 -266 -314z"/>
            <glyph glyph-name="Identity.297"
                   d="M737 709l24 19q59 -62 109 -150l-26 -18q-45 84 -107 149zM619 665l24 18q62 -67 109 -151l-26 -17q-47 87 -107 150zM36 211l94.5 107.5l111 131.5l73.5 88q49 55 96 55q51 0 106 -71q69 -90 201 -221t246 -217l-28 -32q-111 87 -240.5 215.5t-201.5 217.5
q-48 60 -84 60q-34 0 -76 -47q-33 -36 -266 -314z"/>
            <glyph glyph-name="Identity.298"
                   d="M888 577v-1q0 -44 -32 -76.5t-78 -32.5t-78 32t-32 78t32 78t78 32t78 -32t32 -78zM692 577v-1q0 -35 25.5 -60t60.5 -25t60.5 25.5t25.5 60.5t-25.5 60.5t-60.5 25.5t-60.5 -25.5t-25.5 -60.5zM36 211l94.5 107.5l111 131.5l73.5 88q49 55 96 55q51 0 106 -71
q69 -90 201 -221t246 -217l-28 -32q-111 87 -240.5 215.5t-201.5 217.5q-48 60 -84 60q-34 0 -76 -47q-33 -36 -266 -314z"/>
            <glyph glyph-name="Identity.299"
                   d="M198 792l41 -6q-40 -195 -40 -412q-2 -245 48 -397l-40 -12q-47 158 -47 404q0 209 38 423zM709 177q-73 29 -140 29q-70 0 -111 -28t-41 -73q0 -41 40.5 -70t108.5 -29q87 0 115 37t28 127v7zM379 494h319q-5 175 -5 194h-299v38h502v-38h-162q0 -33 2 -125q0 -23 2 -69
h172v-38h-171q2 -57 5.5 -146.5t4.5 -108.5q74 -34 166 -105l-23 -33q-77 62 -142 96q-2 -100 -40 -144.5t-139 -44.5q-88 0 -139.5 39t-51.5 97q0 61 51.5 98t138.5 37q69 0 139 -24l-4 109.5t-5 129.5h-321v38z"/>
            <glyph glyph-name="Identity.300"
                   d="M872 861l21 17q56 -52 106 -125l-24 -17q-40 67 -103 125zM808 831q61 -56 106 -125l-23 -17q-40 67 -104 126zM198 792l41 -6q-40 -195 -40 -412q-2 -245 48 -397l-40 -12q-47 158 -47 404q0 209 38 423zM706 177q-72 29 -140 29q-70 0 -111 -28t-41 -73q0 -41 40.5 -70
t108.5 -29q87 0 115 37t28 127v7zM378 493h317q-4 99 -6 192h-296v37h429v-37h-91q0 -75 1 -122q1 -12 1.5 -35t0.5 -35h176v-38h-175l6 -132.5t5 -121.5q76 -35 166 -105l-23 -33q-77 62 -143 96q-1 -100 -39 -144.5t-139 -44.5q-88 0 -139.5 39t-51.5 97q0 61 51.5 98
t138.5 37q69 0 139 -24q-2 55 -10 238h-318v38z"/>
            <glyph glyph-name="Identity.301"
                   d="M810 767v-1q0 -31 24 -54.5t56 -23.5q33 0 56.5 23.5t23.5 55.5q0 33 -23.5 56.5t-56.5 23.5q-32 0 -56 -23.5t-24 -56.5zM709 177q-73 29 -140 29q-70 0 -111 -28t-41 -73q0 -41 40.5 -70t108.5 -29q87 0 115 37t28 127v7zM379 493h319q-4 143 -5 193h-299v38h402
q-9 19 -9 43q0 44 30 74t73 30q44 0 74 -30.5t30 -73.5v-1q0 -42 -30.5 -72t-73.5 -30q-41 0 -72 29v-7h-84q0 -33 2 -123q0 -22 2 -70h172v-38h-171q2 -56 5.5 -145t4.5 -109q74 -34 166 -105l-23 -33q-77 62 -142 96q-2 -100 -40 -144.5t-139 -44.5q-88 0 -139.5 39
t-51.5 97q0 61 51.5 98t138.5 37q69 0 139 -24l-4 109.5t-5 128.5h-321v38zM198 792l41 -6q-40 -195 -40 -412q-2 -245 48 -397l-40 -12q-47 158 -47 404q0 209 38 423z"/>
            <glyph glyph-name="Identity.302"
                   d="M501 177q-81 25 -152 25q-77 0 -123 -29.5t-46 -77.5q0 -46 44.5 -74.5t117.5 -28.5q89 0 124 39.5t35 134.5v11zM170 452h325q-1 33 -2.5 96t-1.5 92h-341v38h340q-2 96 -2 125h43v-67v-58h321v-38h-321q0 -28 1.5 -91.5t2.5 -96.5h296v-38h-295q4 -111 6 -211
q154 -53 298 -164l-28 -32q-127 105 -270 156q0 -111 -45 -159t-152 -48q-90 0 -147 39.5t-57 98.5q0 65 57 104.5t153 39.5q72 0 150 -23q-1 27 -5 199h-326v38z"/>
            <glyph glyph-name="Identity.303"
                   d="M388 394q-138 -3 -195.5 -50t-57.5 -136q0 -49 20 -81.5t54 -32.5t60 29t57 103q25 59 62 168zM489 -16q113 60 168.5 150t74.5 220q-175 38 -303 41q-39 -117 -65 -179q-37 -90 -72.5 -127t-83.5 -37q-51 0 -80.5 45t-29.5 109q0 110 72 167.5t231 58.5q45 142 80 277
q-157 -13 -312 -19l-3 39q172 0 334 19l30 -18q-49 -173 -89 -298q127 -4 296 -39q8 75 11 189l41 -1q-3 -110 -13 -196q91 -21 154 -39l-12 -39q-74 22 -148 39q-22 -139 -81 -236t-174 -158z"/>
            <glyph glyph-name="Identity.304"
                   d="M748 728q50 -43 101.5 -98t82.5 -99l-33 -25q-28 44 -81 101.5t-99 94.5zM80 672h250q0 17 4 131h42l-4 -131h255v-38h-256q-5 -160 -5 -254q2 -21 2 -61q0 -75 -52 -125q-17 -57 -17 -97q0 -61 49.5 -81t170.5 -20q150 0 224 37.5t74 137.5q0 68 -43 153l40 11
q45 -90 45 -168q0 -118 -86 -164t-256 -46q-135 0 -195.5 27.5t-60.5 100.5q0 43 12 88q-24 -15 -63 -15q-54 0 -86 36t-32 98q0 83 45 132t112 49q52 0 77 -35q0 74 3 196h-249v38zM247 439h-1q-48 0 -83 -37t-35 -109q0 -45 24 -72t63 -27q52 0 84 33.5t32 96.5
q0 115 -84 115z"/>
            <glyph glyph-name="Identity.305"
                   d="M387 155q-81 138 -113 338q-68 -54 -105.5 -130.5t-37.5 -164.5q0 -59 24 -92.5t65 -33.5q89 0 167 83zM308 517q28 -199 105 -332q107 140 135 406q-135 -6 -240 -74zM254 751h39q0 -105 10 -194q108 65 249 71q7 89 7 165l40 -1q0 -75 -7 -164q142 -6 226.5 -97
t84.5 -226q0 -249 -314 -339l-19 37q292 78 292 300q0 121 -75.5 202t-198.5 86q-31 -291 -153 -440q25 -37 48 -61l-31 -27q-16 18 -44 58q-89 -90 -192 -90q-56 0 -89.5 43t-33.5 120q0 103 46 192t129 149q-13 105 -14 216z"/>
            <glyph glyph-name="Identity.306"
                   d="M82 402h227q5 62 21 212h-232v38h237q12 104 19 153l44 -5l-21 -148h337v-38h-342q-16 -146 -22 -212h342v-39h-345q-8 -106 -8 -161q0 -117 56 -161.5t187 -44.5q127 0 183 36.5t56 123.5q0 73 -47 149l40 10q47 -80 47 -162q0 -101 -68 -148.5t-211 -47.5
q-149 0 -217 55t-68 190q0 55 8 161h-223v39z"/>
            <glyph glyph-name="Identity.307"
                   d="M160 321l179 62q-41 116 -72 186l35 14q36 -84 71 -189q136 46 210 61q-42 91 -93 149l30 18q54 -66 98 -161q20 3 33 3q184 0 184 -162q0 -68 -46.5 -110t-126.5 -42q-53 0 -111 16l3 35q55 -17 106 -17q67 0 103 31.5t36 86.5q0 67 -36.5 97t-114.5 30q-70 0 -264 -67
q70 -216 103 -399l-37 -8q-30 173 -100 395l-178 -66z"/>
            <glyph glyph-name="Identity.308"
                   d="M66 417l232 81q-49 147 -93 242l40 17q46 -103 92 -245q186 61 274 79q-20 45 -56 103t-66 93l35 19q67 -80 127 -208q24 3 43 3q230 0 230 -205q0 -87 -57 -138.5t-160 -51.5q-71 0 -141 21l3 39q69 -22 136 -22q86 0 132.5 41t46.5 112q0 85 -47.5 125t-146.5 40
q-91 0 -341 -87q90 -273 134 -513l-42 -9q-39 226 -130 509l-231 -85z"/>
            <glyph glyph-name="Identity.309"
                   d="M553 98q9 -1 26 -1q84 0 136 51t52 136q0 96 -46 148t-135 53q5 -73 5 -130q0 -161 -38 -257zM208 295v1q0 144 41 282l36 -8q-41 -138 -41 -259q0 -5 0.5 -17t0.5 -18q40 106 120 169.5t181 73.5q-5 56 -13 98l38 4l12 -100q105 0 163 -64t58 -173q0 -98 -64 -160.5
t-160 -62.5q-23 0 -42 4q-33 -64 -94 -115l-30 22q57 44 89 101q-82 24 -145 111l23 25q57 -84 138 -105q37 85 37 250v1q0 63 -6 129q-99 -8 -173.5 -70t-113.5 -170q-7 -21 -7 -52q0 -45 8 -72l-36 -8q-20 89 -20 183z"/>
            <glyph glyph-name="Identity.310"
                   d="M568 135q24 -2 35 -2q108 0 176 66.5t68 176.5q0 123 -61 192t-176 70q7 -83 7 -171q0 -211 -49 -332zM133 390v1q0 183 52 359l40 -9q-52 -176 -52 -332q0 -7 0.5 -22t0.5 -23q52 137 156 218.5t236 92.5q-6 48 -17 127l42 6q9 -58 16 -131q135 0 207.5 -81t72.5 -220
q0 -125 -80 -203t-203 -78q-29 0 -52 4q-44 -87 -124 -151l-33 24q75 58 117 135q-112 33 -191 144l28 26q74 -109 180 -135q48 112 48 324v1q0 92 -8 169q-128 -10 -227 -91t-149 -221q-9 -24 -9 -66q0 -48 14 -92l-38 -10q-27 110 -27 234z"/>
            <glyph glyph-name="Identity.311"
                   d="M492 142q-56 16 -101 16q-71 0 -109 -22.5t-38 -62.5q0 -34 37 -56.5t101 -22.5q59 0 84.5 30t25.5 87v31zM517 488h266v-35h-265q1 -60 5 -163.5t5 -122.5q129 -42 241 -129l-25 -29q-93 77 -214 122v-20q0 -152 -147 -152q-77 0 -125.5 33t-48.5 80q0 54 49 87t136 33
q44 0 97 -14q-13 364 -13 444h38v-66q0 -11 0.5 -33.5t0.5 -34.5z"/>
            <glyph glyph-name="Identity.312"
                   d="M490 190q-71 20 -130 20q-91 0 -141 -29.5t-50 -81.5q0 -44 49.5 -74t130.5 -30q77 0 109 39t32 113v43zM515 629h347v-39h-346q3 -119 14 -372q165 -52 313 -167l-29 -32q-132 107 -283 158q0 -7 0.5 -17t0.5 -13q0 -190 -182 -190q-98 0 -159 40.5t-61 100.5
q0 69 61.5 109.5t173.5 40.5q53 0 123 -18q-16 562 -16 573h43q-1 -26 -1 -85q0 -58 1 -89z"/>
            <glyph glyph-name="Identity.313"
                   d="M707 662q-63 25 -198 57.5t-231 46.5l10 38q105 -17 235.5 -48t195.5 -57zM328 630q-53 -75 -73.5 -155.5t-20.5 -207.5q85 62 181 100t181 38q118 0 182 -49.5t64 -145.5q0 -119 -109.5 -186t-336.5 -67h-28l-9 39h40q401 0 401 213q0 82 -53.5 120.5t-160.5 38.5
q-82 0 -176.5 -41t-184.5 -114l-33 13q0 157 21.5 248t78.5 171z"/>
            <glyph glyph-name="Identity.314"
                   d="M706 779l43 8q32 -169 32 -352q0 -177 -81 -296t-273 -183l-22 38q183 58 258.5 165.5t75.5 273.5q0 195 -33 346zM196 495v1q0 148 34 277l42 -9q-36 -115 -36 -264q0 -134 25 -204q31 72 105 197l30 -24q-27 -39 -66 -114t-55 -118l-38 -6q-41 104 -41 264z"/>
            <glyph glyph-name="Identity.315"
                   d="M607 13q-6 79 -45 128t-105 49q-59 0 -95 -26.5t-36 -68.5q0 -41 43.5 -67t118.5 -26q64 0 119 11zM195 733q98 0 261.5 6.5t254.5 15.5l24 -31l-361 -318q104 49 229 49q111 0 175.5 -66.5t64.5 -166.5q0 -122 -94 -189t-257 -67q-93 0 -148 35t-55 94q0 57 47.5 93.5
t120.5 36.5q81 0 129 -56t57 -147q159 48 159 200q0 85 -55.5 141t-154.5 56q-130 0 -245 -59q-38 -19 -104 -68.5t-116 -94.5l-28 32q205 158 563 483q-213 -16 -465 -18z"/>
            <glyph glyph-name="Identity.316"
                   d="M332 637l20 -12q-12 -28 -23 -101l-1 -75q111 117 214 182q69 44 124 44t84.5 -41t29.5 -118q0 -55 -7 -172q-11 -185 -11 -225q0 -84 60 -84q27 0 65.5 18t71.5 52l11 -40q-83 -70 -154 -70q-93 0 -93 124q0 45 10 219q7 119 7 172q0 124 -82 124q-42 0 -103 -38
q-44 -27 -107.5 -81.5t-120.5 -117.5q-4 -237 -4 -444h-42q2 90 6 397q-49 -62 -180 -262l-31 25q86 120 181 271q20 33 32 84l3 130q-99 -10 -196 -14l-2 38q116 3 198 13q1 32 4 172h42q-3 -58 -6 -170z"/>
            <glyph glyph-name="Identity.317"
                   d="M207 733q244 0 517 21l22 -33l-125 -111.5l-147.5 -127l-107.5 -92.5q112 50 242 50q103 0 169.5 -60t66.5 -154q0 -264 -438 -264q-38 0 -61 1l-8 42q25 -2 64 -2q218 0 309.5 56t91.5 167q0 79 -58 128t-145 49q-140 0 -257 -58q-86 -42 -205 -143l-27 30
q104 78 291.5 237t273.5 242q-247 -13 -465 -18z"/>
            <glyph glyph-name="Identity.318"
                   d="M179 465q64 2 160 10l2.5 84.5t1.5 57.5h37q-4 -66 -5 -144l10 -7q-4 -16 -12 -74l-1 -65q136 129 265 129q87 0 142 -64t55 -158q0 -217 -293 -262l-12 35q146 21 206.5 77.5t60.5 149.5q0 81 -44.5 133.5t-120.5 52.5q-120 0 -260 -137q-3 -198 -3 -326h-37q0 56 4 290
l-144 -152l-27 24q118 122 149 165q18 24 23 47l3 109q-106 -8 -157 -10z"/>
            <glyph glyph-name="Identity.319"
                   d="M88 606q104 2 208 13q1 32 4 184h42q-3 -61 -6 -183l17 -12q-8 -27 -20 -117l-1 -64q83 78 165.5 122.5t178.5 44.5q110 0 178 -81t68 -202q0 -277 -371 -334l-14 39q186 26 265 101t79 193q0 104 -58 174t-156 70q-157 0 -336 -176q-4 -227 -4 -421h-42q0 36 2.5 167
t3.5 214q-136 -140 -189 -200l-30 27q145 150 190 210q22 29 31 64q0 24 0.5 71t1.5 70q-91 -7 -203 -13z"/>
            <glyph glyph-name="Identity.320"
                   d="M423 479q-132 -45 -210.5 -138t-78.5 -191q0 -50 19 -79.5t51 -29.5q53 0 83.5 42t59.5 125q39 108 76 271zM784 53q-59 103 -155 103q-57 0 -91 -24.5t-34 -56.5q0 -36 31 -57t95 -21q97 0 154 56zM166 729q203 14 322 34l33 -17q-21 -108 -47 -215q74 18 154 18
q125 0 195 -82.5t70 -217.5q0 -138 -71.5 -212t-187.5 -74q-76 0 -120.5 29.5t-44.5 83.5q0 45 45 79t115 34q53 0 96 -24t83 -84q44 64 44 168q0 122 -59 192t-168 70q-82 0 -160 -19q-41 -174 -79 -289q-33 -100 -74.5 -151.5t-111.5 -51.5q-46 0 -75.5 40t-29.5 109
q0 116 94 219.5t243 150.5q25 112 40 202l-301 -31z"/>
            <glyph glyph-name="Identity.321"
                   d="M442 288q71 54 71 91q0 23 -23 39.5t-73 16.5q-48 0 -80 -22.5t-32 -52.5q0 -63 137 -72zM213 753q369 18 463 34l25 -34q-58 -32 -192 -114t-143 -87q132 45 229 45q101 0 160 -41t59 -112q0 -96 -88 -142.5t-245 -46.5q-24 0 -36 1l-84.5 -54t-92.5 -60q96 53 165 53
q48 0 72.5 -32.5t25.5 -110.5q100 162 209 162q80 0 123.5 -58t65.5 -191l-41 -8q-17 122 -51 172.5t-99 50.5q-50 0 -95 -37t-93 -125l-9 -17.5t-10.5 -22l-8.5 -19.5l-35 9q13 45 13 83q0 113 -81 113q-74 0 -181 -67q-64 -39 -157 -142l-30 27q105 110 176 164
q27 21 91.5 61.5l82.5 52.5q-131 18 -131 96q0 46 43.5 77t111.5 31q65 0 95.5 -23.5t30.5 -58.5q0 -44 -63 -95q286 2 286 159q0 57 -51 88t-136 31q-131 0 -281 -62q-52 -22 -157 -89l-21 31q81 45 493 301q-93 -9 -404 -28z"/>
            <glyph glyph-name="Identity.322"
                   d="M852 497l16 -36q-180 -65 -293 -118q20 -79 20 -221h-39v38q1 93 -14 166q-227 -114 -227 -216q0 -114 255 -114q156 0 257 19l5 -39q-95 -17 -261 -17q-144 0 -220.5 38t-76.5 111q0 126 257 254q-28 78 -84 78q-109 0 -242 -105q-33 -25 -83 -79l-31 26
q67 65 131.5 159t110.5 193h-223v37h239q33 76 45 136l41 -8q-15 -59 -43 -128h354v-37h-370q-69 -153 -145 -244q125 85 221 85q78 0 113 -96q86 41 287 118z"/>
            <glyph glyph-name="Identity.323"
                   d="M399 793l42 -12q-108 -303 -169 -458q82 93 163 93q59 0 86.5 -51t27.5 -174q0 -108 31 -151t89 -43q167 0 218 319l40 -9q-60 -349 -260 -349q-157 0 -157 228q0 104 -21 147t-66 43q-68 0 -143 -90q-29 -36 -44 -69q-16 -35 -108 -260l-41 16q67 143 167.5 408.5
t144.5 411.5z"/>
            <glyph glyph-name="Identity.324"
                   d="M161 815l22 18q66 -61 117 -141l-26 -18q-47 76 -113 141zM47 744l23 17q59 -59 112 -146l-26 -16q-46 80 -109 145z"/>
            <glyph glyph-name="Identity.325"
                   d="M254 729v-1q0 -42 -30 -72t-73 -30t-73.5 30t-30.5 73t30.5 73.5t73.5 30.5t73 -30.5t30 -73.5zM71 729v-1q0 -32 23.5 -55t56.5 -23q32 0 55.5 23.5t23.5 55.5q0 33 -23.5 56.5t-55.5 23.5q-33 0 -56.5 -23.5t-23.5 -56.5z"/>
            <glyph glyph-name="Identity.326"
                   d="M201 556h584l28 -19q-105 -153 -208 -254l-30 20q45 43 98.5 107.5t82.5 109.5h-555v36zM468 441h38q0 -75 -4.5 -128.5t-18 -108t-38 -95t-65 -79.5t-98.5 -72l-28 26q57 31 96 67.5t62.5 74t35.5 89.5t16 102t4 124z"/>
            <glyph glyph-name="Identity.327"
                   d="M112 719h757l35 -24q-53 -76 -128 -167t-139 -154l-34 24q58 54 129.5 139.5t108.5 141.5h-729v40zM465 575h43q0 -97 -5.5 -164.5t-22.5 -137.5t-48 -122t-83 -101.5t-126 -92.5l-31 31q61 34 106 70t75 79.5t48.5 86.5t28 102.5t12.5 114.5t3 134z"/>
            <glyph glyph-name="Identity.328"
                   d="M544 389v-433h-40v404q-156 -109 -292 -162l-21 33q140 50 302.5 165t240.5 216l30 -23q-75 -94 -220 -200z"/>
            <glyph glyph-name="Identity.329"
                   d="M550 516v-559h-43v528q-209 -147 -381 -213l-22 37q178 64 387.5 213.5t307.5 277.5l33 -26q-96 -120 -282 -258z"/>
            <glyph glyph-name="Identity.330"
                   d="M237 479h243v139h38v-139h238l32 -11q-27 -372 -344 -511l-23 31q160 67 238 186t87 270h-471v-196h-38v231z"/>
            <glyph glyph-name="Identity.331"
                   d="M166 623h311v180h43v-180h309l36 -15q-8 -116 -36 -212t-81.5 -181t-139.5 -150.5t-203 -108.5l-26 37q413 147 438 590h-608v-253h-43v293z"/>
            <glyph glyph-name="Identity.332"
                   d="M189 55h289v417h-229v36h506v-36h-237v-417h297v-37h-626v37z"/>
            <glyph glyph-name="Identity.333"
                   d="M99 73h375v546h-300v39h653v-39h-310v-546h386v-40h-804v40z"/>
            <glyph glyph-name="Identity.334"
                   d="M564 379q-59 -92 -157.5 -185.5t-196.5 -154.5l-25 28q99 58 203 158t157 191h-356v37h375v165h39v-165h204v-37h-204v-361q0 -97 -95 -97q-54 0 -102 7v36q37 -6 96 -6q34 0 48 15t14 49v320z"/>
            <glyph glyph-name="Identity.335"
                   d="M587 501q-75 -117 -203 -239t-254 -201l-28 32q127 74 264 206t203 250h-463v40h481v214h43v-214h268v-40h-268v-468q0 -62 -27 -93t-89 -31q-70 0 -129 7v42q52 -8 123 -8q43 0 61 20.5t18 65.5v417z"/>
            <glyph glyph-name="Identity.336"
                   d="M131 591h321q10 84 12 212h42q-2 -115 -12 -212h338q-2 -173 -18 -334t-32 -209q-16 -50 -46.5 -70.5t-85.5 -20.5q-92 0 -142 7v41q51 -7 139 -7q36 0 58.5 13.5t35.5 49.5q16 44 31 192.5t15 297.5h-298q-29 -203 -109.5 -346t-224.5 -246l-31 31q138 96 216.5 232
t106.5 329h-316v40z"/>
            <glyph glyph-name="Identity.337"
                   d="M839 834l26 14q54 -66 97 -160l-29 -15q-35 84 -94 161zM711 794l26 14q54 -70 96 -162l-28 -14q-40 91 -94 162zM131 591h321q10 84 12 212h42q-2 -115 -12 -212h338q-2 -173 -18 -334t-32 -209q-16 -50 -46.5 -70.5t-85.5 -20.5q-92 0 -142 7v41q51 -7 139 -7
q36 0 58.5 13.5t35.5 49.5q16 44 31 192.5t15 297.5h-298q-29 -203 -109.5 -346t-224.5 -246l-31 31q138 96 216.5 232t106.5 329h-316v40z"/>
            <glyph glyph-name="Identity.338"
                   d="M98 264l398 52l-41 246l-330 -44l-6 40l330 42l-33 199l43 6l33 -199l319 41l6 -38l-318 -42l40 -245l368 48l5 -38l-367 -49l54 -322l-43 -7l-54 324l-398 -53z"/>
            <glyph glyph-name="Identity.339"
                   d="M776 847l27 15q45 -62 83 -154l-30 -14q-34 90 -80 153zM652 829l27 15q46 -63 83 -153l-29 -15q-36 89 -81 153zM98 264l398 52l-41 245l-330 -43l-6 39l330 43l-33 199l43 6l33 -200l319 42l6 -38l-318 -42l40 -245l368 48l5 -38l-367 -49l54 -322l-43 -7l-54 324
l-398 -53z"/>
            <glyph glyph-name="Identity.340"
                   d="M399 642h379l32 -16q-53 -238 -191 -409.5t-358 -262.5l-28 35q215 85 347.5 245.5t178.5 369.5h-384q-122 -188 -246 -284l-33 28q101 74 197.5 207.5t142.5 247.5l39 -14q-28 -69 -76 -147z"/>
            <glyph glyph-name="Identity.341"
                   d="M856 844l23 16q55 -67 99 -156l-25 -16q-40 85 -97 156zM737 801l23 16q54 -64 99 -157l-25 -16q-49 100 -97 157zM399 642h379l32 -16q-53 -238 -191 -409.5t-358 -262.5l-28 35q215 85 347.5 245.5t178.5 369.5h-384q-122 -188 -246 -284l-33 28q101 74 197.5 207.5
t142.5 247.5l39 -14q-28 -69 -76 -147z"/>
            <glyph glyph-name="Identity.342"
                   d="M680 539q-19 -209 -101.5 -349.5t-264.5 -237.5l-31 32q178 90 258.5 223t95.5 332h-321q-93 -164 -201 -260l-33 26q94 80 179 221t123 279l40 -10q-32 -110 -87 -216h591v-40h-248z"/>
            <glyph glyph-name="Identity.343"
                   d="M853 838l23 16q55 -65 99 -155l-25 -17q-42 88 -97 156zM734 794l23 16q54 -65 99 -157l-25 -16q-43 92 -97 157zM680 539q-19 -209 -101.5 -349.5t-264.5 -237.5l-31 32q178 90 258.5 223t95.5 332h-321q-93 -164 -201 -260l-33 26q94 80 179 221t123 279l40 -10
q-32 -110 -87 -216h591v-40h-248z"/>
            <glyph glyph-name="Identity.344"
                   d="M158 658h649v-635h-651v40h608v555h-606v40z"/>
            </font>
</defs>
</svg>
