<?xml version="1.0" standalone="no"?><!DOCTYPE svg PUBLIC "-//W3C//DTD SVG 1.1//EN"
        "http://www.w3.org/Graphics/SVG/1.1/DTD/svg11.dtd" >
<svg xmlns="http://www.w3.org/2000/svg">
    <metadata></metadata>
    <defs>
        <font id="tyPolandLukaszDziedzic: Lato Bold: 2011" horiz-adv-x="2403">
            <font-face font-family="Lato" font-weight="700" font-stretch="normal" units-per-em="2048"
                       panose-1="2 15 8 2 2 2 4 3 2 3" ascent="1919" descent="-410" x-height="3"
                       bbox="-181 -370 2341 1919" underline-thickness="163" underline-position="-122"
                       unicode-range="U+000d-fb02"/>
            <missing-glyph horiz-adv-x="748"
                           d="M68 0 L68 1365 L612 1365 L612 0 L68 0 ZM136 68 L544 68 L544 1297 L136 1297 L136 68 Z"/>
            <glyph glyph-name="uni000D" unicode="" d=""/>
            <glyph glyph-name="glyph3" unicode="" d=""/>
            <glyph glyph-name="space" unicode=" " d=""/>
            <glyph glyph-name="exclam" unicode="!"
                   d="M214 139 Q214 171 226 199.5 Q238 228 259 248.5 Q280 269 308.5 281.5 Q337 294 370 294 Q402 294 430.5 281.5 Q459 269 479.5 248.5 Q500 228 512 199.5 Q524 171 524 139 Q524 106 512 78 Q500 50 479.5 29.5 Q459 9 430 -2.5 Q401 -14 370 -14 Q337 -14 308.5 -2.5 Q280 9 259 29.5 Q238 50 226 78 Q214 106 214 139 ZM253 895 L253 1481 L492 1481 L492 895 Q492 802 482.5 712.5 Q473 623 458 522 L287 522 Q272 622 262.5 712 Q253 802 253 895 Z"/>
            <glyph glyph-name="quotedbl" unicode="&quot;"
                   d="M134 1186 L134 1481 L354 1481 L354 1186 L331 1026 Q324 981 305 957 Q286 933 243 933 Q206 933 184.5 957 Q163 981 157 1026 L134 1186 ZM511 1186 L511 1481 L731 1481 L731 1186 L708 1026 Q701 981 682 957 Q663 933 620 933 Q583 933 561.5 957 Q540 981 534 1026 L511 1186 Z"/>
            <glyph glyph-name="numbersign" unicode="#"
                   d="M40 486 Q40 500 43 519 L56 600 L251 600 L304 883 L85 883 L104 988 Q111 1027 136 1046 Q161 1065 216 1065 L330 1065 L393 1395 Q401 1436 431 1458.5 Q461 1481 501 1481 L615 1481 L538 1065 L746 1065 L825 1481 L938 1481 Q974 1481 996.5 1460.5 Q1019 1440 1019 1408 Q1019 1398 1018 1393 L954 1065 L1162 1065 L1143 959 Q1136 920 1110.5 901.5 Q1085 883 1031 883 L929 883 L877 600 L1022 600 Q1055 600 1072 584 Q1089 568 1089 530 Q1089 516 1085 498 L1073 418 L851 418 L772 0 L656 0 Q625 0 603 24.5 Q581 49 581 85 Q581 90 581.5 94.5 Q582 99 583 104 L643 418 L433 418 L374 92 Q365 43 332 21.5 Q299 0 259 0 L147 0 L225 418 L108 418 Q75 418 57.5 434 Q40 450 40 486 ZM459 600 L669 600 L721 883 L512 883 L459 600 Z"/>
            <glyph glyph-name="dollar" unicode="$"
                   d="M71 178 L148 294 Q158 309 175.5 319 Q193 329 211 329 Q234 329 259.5 313 Q285 297 317.5 275.5 Q350 254 392 232.5 Q434 211 492 201 L530 659 Q457 679 386 707 Q315 735 258.5 780.5 Q202 826 167 896 Q132 966 132 1070 Q132 1148 163.5 1222 Q195 1296 254 1354.5 Q313 1413 400 1451 Q487 1489 600 1494 L611 1623 Q613 1648 631.5 1667.5 Q650 1687 680 1687 L773 1687 L756 1485 Q865 1468 943.5 1423.5 Q1022 1379 1080 1324 L1019 1231 Q1005 1211 990.5 1200.5 Q976 1190 955 1190 Q940 1190 919 1199.5 Q898 1209 871 1223 Q844 1237 811 1251.5 Q778 1266 738 1275 L702 851 Q776 828 848.5 801 Q921 774 978.5 731 Q1036 688 1072 624 Q1108 560 1108 464 Q1108 369 1076 285.5 Q1044 202 983.5 138 Q923 74 833.5 34 Q744 -6 630 -14 L617 -165 Q615 -189 597 -208.5 Q579 -228 549 -228 L456 -228 L474 -9 Q354 7 249 56 Q144 105 71 178 ZM371 1095 Q371 1056 384 1026 Q397 996 421 973 Q445 950 478 932 Q511 914 550 900 L582 1279 Q526 1272 485.5 1255 Q445 1238 419.5 1213.5 Q394 1189 382.5 1159 Q371 1129 371 1095 ZM648 198 Q757 212 812.5 271 Q868 330 868 425 Q868 464 854.5 493 Q841 522 816 544.5 Q791 567 757 583.5 Q723 600 683 613 L648 198 Z"/>
            <glyph glyph-name="percent" unicode="%"
                   d="M62 1122 Q62 1208 88 1278 Q114 1348 159.5 1396 Q205 1444 267.5 1470 Q330 1496 403 1496 Q477 1496 540 1470 Q603 1444 649 1396 Q695 1348 720.5 1278 Q746 1208 746 1122 Q746 1038 718 970.5 Q690 903 643 855.5 Q596 808 533.5 782.5 Q471 757 403 757 Q329 757 267 782.5 Q205 808 159.5 855.5 Q114 903 88 970.5 Q62 1038 62 1122 ZM139 0 L1239 1441 Q1251 1456 1269.5 1468.5 Q1288 1481 1321 1481 L1504 1481 L404 38 Q392 22 373 11 Q354 0 328 0 L139 0 ZM259 1122 Q259 1065 270 1026.5 Q281 988 300 964.5 Q319 941 346 931 Q373 921 403 921 Q434 921 461 931 Q488 941 508 964.5 Q528 988 539.5 1026.5 Q551 1065 551 1122 Q551 1181 539.5 1221.5 Q528 1262 508 1286.5 Q488 1311 461 1321.5 Q434 1332 403 1332 Q372 1332 345.5 1321.5 Q319 1311 300 1286.5 Q281 1262 270 1222 Q259 1182 259 1122 ZM898 348 Q898 434 923.5 503.5 Q949 573 994.5 621.5 Q1040 670 1102.5 696 Q1165 722 1239 722 Q1313 722 1376 696 Q1439 670 1485 621.5 Q1531 573 1556.5 503.5 Q1582 434 1582 348 Q1582 264 1554 196.5 Q1526 129 1479 81.5 Q1432 34 1369.5 8 Q1307 -18 1239 -18 Q1165 -18 1102.5 8 Q1040 34 994.5 81.5 Q949 129 923.5 196.5 Q898 264 898 348 ZM1095 348 Q1095 291 1106 252 Q1117 213 1136 189.5 Q1155 166 1181.5 155.5 Q1208 145 1239 145 Q1270 145 1297 155.5 Q1324 166 1344 189.5 Q1364 213 1376 252 Q1388 291 1388 348 Q1388 407 1376 447 Q1364 487 1344 512 Q1324 537 1297 547.5 Q1270 558 1239 558 Q1208 558 1181.5 547.5 Q1155 537 1136 512 Q1117 487 1106 447.5 Q1095 408 1095 348 Z"/>
            <glyph glyph-name="ampersand" unicode="&amp;"
                   d="M66 408 Q66 477 88.5 538.5 Q111 600 150.5 653.5 Q190 707 245 750 Q300 793 366 823 Q312 900 286.5 973.5 Q261 1047 261 1119 Q261 1196 289 1265 Q317 1334 371 1385.5 Q425 1437 503 1467 Q581 1497 679 1497 Q769 1497 840 1469.5 Q911 1442 962 1396 Q1013 1350 1042 1290.5 Q1071 1231 1076 1167 L915 1134 Q912 1133 908.5 1133 Q905 1133 902 1133 Q885 1133 871 1142.5 Q857 1152 849 1172 Q840 1199 825.5 1223 Q811 1247 790.5 1265 Q770 1283 742.5 1294 Q715 1305 679 1305 Q636 1305 602 1290 Q568 1275 544.5 1250 Q521 1225 509 1191.5 Q497 1158 497 1121 Q497 1090 503.5 1061.5 Q510 1033 524.5 1004.5 Q539 976 562 945.5 Q585 915 618 881 L1012 472 Q1046 537 1066 608.5 Q1086 680 1093 754 Q1095 778 1108 792 Q1121 806 1145 806 L1304 806 Q1303 671 1265 548 Q1227 425 1156 322 L1466 0 L1219 0 Q1200 0 1184.5 2 Q1169 4 1156 9.5 Q1143 15 1130.5 24.5 Q1118 34 1105 48 L1002 154 Q904 74 784 29 Q664 -16 523 -16 Q437 -16 355 13 Q273 42 208.5 97.5 Q144 153 105 231 Q66 309 66 408 ZM323 428 Q323 372 342 327 Q361 282 395 250.5 Q429 219 473.5 202 Q518 185 568 185 Q658 185 732.5 213.5 Q807 242 868 292 L479 691 Q397 638 360 571.5 Q323 505 323 428 Z"/>
            <glyph glyph-name="quotesingle" unicode="&#39;"
                   d="M134 1186 L134 1481 L354 1481 L354 1186 L331 1026 Q324 981 305 957 Q286 933 243 933 Q206 933 184.5 957 Q163 981 157 1026 L134 1186 Z"/>
            <glyph glyph-name="parenleft" unicode="("
                   d="M109 642 Q109 770 124.5 893.5 Q140 1017 174 1136.5 Q208 1256 261 1373.5 Q314 1491 390 1608 L503 1540 Q517 1532 527.5 1519 Q538 1506 538 1487 Q538 1468 524 1441 Q430 1262 379 1057.5 Q328 853 328 642 Q328 431 379 227.5 Q430 24 525 -156 Q532 -169 535 -180 Q538 -191 538 -201 Q538 -221 527.5 -234 Q517 -247 503 -255 L390 -324 Q314 -207 261 -89 Q208 29 174 148.5 Q140 268 124.5 391 Q109 514 109 642 Z"/>
            <glyph glyph-name="parenright" unicode=")"
                   d="M77 -201 Q77 -192 79.5 -180.5 Q82 -169 89 -156 Q184 23 235.5 227 Q287 431 287 642 Q287 853 235.5 1057.5 Q184 1262 90 1441 Q77 1468 77 1487 Q77 1506 87 1519 Q97 1532 112 1540 L224 1608 Q300 1491 353.5 1373.5 Q407 1256 440.5 1136.5 Q474 1017 490 893.5 Q506 770 506 642 Q506 514 490 391 Q474 268 440.5 148.5 Q407 29 353.5 -89 Q300 -207 224 -324 L112 -255 Q98 -247 87.5 -234 Q77 -221 77 -201 Z"/>
            <glyph glyph-name="asterisk" unicode="*"
                   d="M78 1081 L241 1176 Q259 1187 277 1194 Q295 1201 314 1204 Q295 1206 277 1214.5 Q259 1223 241 1234 L78 1329 L137 1432 L300 1335 Q317 1324 333 1312 Q349 1300 360 1286 Q353 1303 350.5 1322.5 Q348 1342 348 1363 L348 1552 L469 1552 L469 1365 Q469 1343 466.5 1323.5 Q464 1304 457 1286 Q468 1300 483.5 1312 Q499 1324 517 1335 L679 1430 L739 1327 L577 1234 Q559 1223 540.5 1215 Q522 1207 503 1204 Q538 1198 577 1176 L739 1080 L680 978 L517 1073 Q499 1084 483.5 1095.5 Q468 1107 456 1121 Q469 1088 469 1046 L469 857 L348 857 L348 1044 Q348 1064 350.5 1084 Q353 1104 359 1121 Q348 1107 332.5 1095.5 Q317 1084 300 1073 L138 979 L78 1081 Z"/>
            <glyph glyph-name="plus" unicode="+"
                   d="M93 594 L93 781 L489 781 L489 1201 L694 1201 L694 781 L1093 781 L1093 594 L694 594 L694 172 L489 172 L489 594 L93 594 Z"/>
            <glyph glyph-name="comma" unicode=","
                   d="M82 156 Q82 185 92.5 209.5 Q103 234 122.5 253 Q142 272 170 283 Q198 294 230 294 Q269 294 298 280 Q327 266 346.5 242 Q366 218 375 187 Q384 156 384 121 Q384 72 369 17.5 Q354 -37 325.5 -91 Q297 -145 255 -196.5 Q213 -248 159 -291 L115 -251 Q97 -236 96 -213 Q96 -205 102 -194.5 Q108 -184 116 -176 Q127 -164 143.5 -146 Q160 -128 176.5 -105 Q193 -82 206.5 -55 Q220 -28 226 3 Q194 3 167.5 15 Q141 27 122 47.5 Q103 68 92.5 95.5 Q82 123 82 156 Z"/>
            <glyph glyph-name="hyphen" unicode="-" d="M102 513 L102 724 L633 724 L633 513 L102 513 Z"/>
            <glyph glyph-name="period" unicode="."
                   d="M75 139 Q75 171 86.5 199.5 Q98 228 119 248.5 Q140 269 169 281.5 Q198 294 230 294 Q262 294 290.5 281.5 Q319 269 339.5 248.5 Q360 228 372.5 199.5 Q385 171 385 139 Q385 106 372.5 78 Q360 50 339.5 29.5 Q319 9 290.5 -2.5 Q262 -14 230 -14 Q197 -14 168.5 -2.5 Q140 9 119 29.5 Q98 50 86.5 78 Q75 106 75 139 Z"/>
            <glyph glyph-name="slash" unicode="/"
                   d="M-18 -97 L580 1433 Q597 1476 630 1499 Q663 1522 709 1522 L816 1522 L223 -3 Q214 -27 199.5 -44 Q185 -61 166.5 -73 Q148 -85 128 -91 Q108 -97 88 -97 L-18 -97 Z"/>
            <glyph glyph-name="zero" unicode="0"
                   d="M51 740 Q51 935 92 1077.5 Q133 1220 206 1313 Q279 1406 377.5 1451.5 Q476 1497 592 1497 Q708 1497 807.5 1451.5 Q907 1406 980.5 1313 Q1054 1220 1095.5 1077.5 Q1137 935 1137 740 Q1137 546 1095.5 403.5 Q1054 261 980.5 168 Q907 75 807.5 29.5 Q708 -16 592 -16 Q476 -16 377.5 29.5 Q279 75 206 168 Q133 261 92 404 Q51 547 51 740 ZM312 740 Q312 579 335 474 Q358 369 397 306.5 Q436 244 487 219 Q538 194 592 194 Q647 194 698.5 219 Q750 244 789 306.5 Q828 369 852 474 Q876 579 876 740 Q876 901 852 1006.5 Q828 1112 789 1174.5 Q750 1237 698.5 1262 Q647 1287 592 1287 Q538 1287 487 1262 Q436 1237 397 1174.5 Q358 1112 335 1006.5 Q312 901 312 740 Z"/>
            <glyph glyph-name="one" unicode="1"
                   d="M169 1099 L621 1483 L828 1483 L828 189 L1095 189 L1095 0 L275 0 L275 189 L575 189 L575 1053 Q575 1103 579 1158 L366 980 Q353 969 339 965 Q325 961 311 961 Q291 961 274 969.5 Q257 978 249 989 L169 1099 Z"/>
            <glyph glyph-name="two" unicode="2"
                   d="M86 0 L86 84 Q86 110 97 137.5 Q108 165 131 188 L581 639 Q637 696 681.5 748.5 Q726 801 756 852 Q786 903 802 956 Q818 1009 818 1067 Q818 1120 802.5 1160.5 Q787 1201 758.5 1228.5 Q730 1256 690.5 1270 Q651 1284 602 1284 Q511 1284 452 1238 Q393 1192 370 1114 Q359 1075 336 1058 Q313 1041 279 1041 Q264 1041 245 1044 L112 1068 Q127 1174 171 1254.5 Q215 1335 281 1389 Q347 1443 432.5 1470 Q518 1497 616 1497 Q718 1497 803.5 1467 Q889 1437 949.5 1381.5 Q1010 1326 1043.5 1248 Q1077 1170 1077 1075 Q1077 993 1053 923.5 Q1029 854 988.5 790.5 Q948 727 894 667.5 Q840 608 780 547 L446 206 Q495 220 542.5 228 Q590 236 633 236 L1013 236 Q1054 236 1078 212.5 Q1102 189 1102 152 L1102 0 L86 0 Z"/>
            <glyph glyph-name="three" unicode="3"
                   d="M92 376 L204 422 Q233 434 262 434 Q289 434 310 423 Q331 412 342 390 Q360 354 382 319.5 Q404 285 435 257.5 Q466 230 507.5 213.5 Q549 197 606 197 Q671 197 719 218 Q767 239 799 272.5 Q831 306 847 347.5 Q863 389 863 431 Q863 484 852 527.5 Q841 571 805 602 Q769 633 702 650.5 Q635 668 522 668 L522 848 Q615 849 676.5 865.5 Q738 882 774.5 911 Q811 940 825.5 981 Q840 1022 840 1071 Q840 1176 782.5 1230 Q725 1284 626 1284 Q536 1284 476.5 1236.5 Q417 1189 393 1114 Q381 1075 359.5 1058 Q338 1041 303 1041 Q287 1041 268 1044 L135 1068 Q150 1174 194.5 1254.5 Q239 1335 305 1389 Q371 1443 456.5 1470 Q542 1497 640 1497 Q742 1497 824.5 1468 Q907 1439 965.5 1387 Q1024 1335 1055 1265.5 Q1086 1196 1086 1115 Q1086 1044 1070.5 990.5 Q1055 937 1024.5 897 Q994 857 950.5 829.5 Q907 802 852 783 Q985 741 1050.5 655 Q1116 569 1116 439 Q1116 328 1075 243.5 Q1034 159 964.5 101 Q895 43 803.5 13.5 Q712 -16 609 -16 Q497 -16 414.5 9.5 Q332 35 270.5 85 Q209 135 166 208 Q123 281 92 376 Z"/>
            <glyph glyph-name="four" unicode="4"
                   d="M24 545 L725 1482 L965 1482 L965 558 L1151 558 L1151 412 Q1151 392 1137.5 376.5 Q1124 361 1099 361 L965 361 L965 0 L743 0 L743 361 L119 361 Q93 361 73.5 377 Q54 393 49 417 L24 545 ZM293 558 L743 558 L743 1042 Q743 1075 745.5 1113 Q748 1151 753 1192 L293 558 Z"/>
            <glyph glyph-name="five" unicode="5"
                   d="M78 158 L156 265 Q181 300 221 300 Q247 300 273 283.5 Q299 267 334 247.5 Q369 228 415 212 Q461 196 526 196 Q596 196 649 218.5 Q702 241 737.5 281.5 Q773 322 791 377.5 Q809 433 809 499 Q809 620 739 688 Q669 756 532 756 Q424 756 316 717 L159 762 L282 1481 L1013 1481 L1013 1373 Q1013 1319 978.5 1285 Q944 1251 864 1251 L457 1251 L403 942 Q503 962 587 963 Q704 963 792.5 928 Q881 893 941 831.5 Q1001 770 1032 687.5 Q1063 605 1063 510 Q1063 392 1021.5 295 Q980 198 906.5 128.5 Q833 59 732 21.5 Q631 -16 512 -16 Q442 -16 379.5 -2 Q317 12 262.5 36 Q208 60 161.5 91.5 Q115 123 78 158 Z"/>
            <glyph glyph-name="six" unicode="6"
                   d="M89 504 Q89 608 131.5 718 Q174 828 263 947 L616 1421 Q634 1446 670 1463.5 Q706 1481 752 1481 L977 1481 L538 943 Q524 926 511 910.5 Q498 895 485 879 Q528 901 578 913 Q628 925 686 925 Q770 925 849.5 897 Q929 869 989.5 813.5 Q1050 758 1086.5 675 Q1123 592 1123 481 Q1123 378 1085.5 287.5 Q1048 197 979 129 Q910 61 813.5 22.5 Q717 -16 600 -16 Q481 -16 387 21.5 Q293 59 226.5 127.5 Q160 196 124.5 291.5 Q89 387 89 504 ZM332 465 Q332 404 349 353 Q366 302 399 266 Q432 230 481 210 Q530 190 595 190 Q655 190 706 210.5 Q757 231 793 268 Q829 305 849.5 354.5 Q870 404 870 463 Q870 526 850.5 577 Q831 628 795.5 663 Q760 698 709.5 716.5 Q659 735 599 735 Q539 735 489.5 714.5 Q440 694 405 658 Q370 622 351 572 Q332 522 332 465 Z"/>
            <glyph glyph-name="seven" unicode="7"
                   d="M98 1310 L98 1481 L1122 1481 L1122 1371 Q1122 1322 1111.5 1292 Q1101 1262 1091 1241 L530 86 Q513 50 481.5 25 Q450 0 395 0 L212 0 L785 1132 Q821 1202 865 1251 L157 1251 Q133 1251 115.5 1268.5 Q98 1286 98 1310 Z"/>
            <glyph glyph-name="eight" unicode="8"
                   d="M80 416 Q80 547 144.5 637.5 Q209 728 345 772 Q236 817 182.5 900 Q129 983 129 1100 Q129 1184 163.5 1256.5 Q198 1329 259.5 1383 Q321 1437 406.5 1467 Q492 1497 594 1497 Q696 1497 781.5 1467 Q867 1437 928.5 1383 Q990 1329 1024.5 1256.5 Q1059 1184 1059 1100 Q1059 983 1004.5 900 Q950 817 843 772 Q979 728 1043.5 637.5 Q1108 547 1108 416 Q1108 318 1070.5 238 Q1033 158 965.5 101.5 Q898 45 803.5 14.5 Q709 -16 594 -16 Q479 -16 384.5 14.5 Q290 45 222.5 101.5 Q155 158 117.5 237.5 Q80 317 80 416 ZM340 420 Q340 369 356.5 325 Q373 281 405 249 Q437 217 484.5 199 Q532 181 594 181 Q656 181 703.5 199 Q751 217 783 249 Q815 281 831.5 325 Q848 369 848 420 Q848 542 780.5 604.5 Q713 667 594 667 Q475 667 407.5 604.5 Q340 542 340 420 ZM376 1096 Q376 1052 386.5 1010.5 Q397 969 423 936.5 Q449 904 491 884.5 Q533 865 594 865 Q655 865 697 884.5 Q739 904 765 936.5 Q791 969 801.5 1010.5 Q812 1052 812 1096 Q812 1138 798.5 1175.5 Q785 1213 758.5 1242.5 Q732 1272 691 1289.5 Q650 1307 594 1307 Q538 1307 497 1289.5 Q456 1272 428.5 1242.5 Q401 1213 388.5 1175.5 Q376 1138 376 1096 Z"/>
            <glyph glyph-name="nine" unicode="9"
                   d="M133 1017 Q133 1116 170 1203 Q207 1290 273.5 1355.5 Q340 1421 433 1459 Q526 1497 639 1497 Q753 1497 843.5 1461 Q934 1425 998 1360.5 Q1062 1296 1096 1206 Q1130 1116 1130 1009 Q1130 940 1118.5 878.5 Q1107 817 1085 760 Q1063 703 1032 649.5 Q1001 596 964 542 L625 58 Q608 33 573.5 16.5 Q539 0 495 0 L262 0 L722 574 Q739 596 754.5 616.5 Q770 637 784 657 Q733 624 672 607.5 Q611 591 543 591 Q466 591 392 617.5 Q318 644 260.5 698 Q203 752 168 831 Q133 910 133 1017 ZM386 1036 Q386 912 450 847 Q514 782 632 782 Q693 782 740.5 801.5 Q788 821 821 855 Q854 889 871 935 Q888 981 888 1034 Q888 1094 869.5 1142 Q851 1190 817 1222.5 Q783 1255 736.5 1272.5 Q690 1290 635 1290 Q578 1290 531.5 1271 Q485 1252 453 1218.5 Q421 1185 403.5 1138.5 Q386 1092 386 1036 Z"/>
            <glyph glyph-name="colon" unicode=":"
                   d="M116 139 Q116 171 127.5 199.5 Q139 228 160 248.5 Q181 269 210 281.5 Q239 294 271 294 Q303 294 331.5 281.5 Q360 269 380.5 248.5 Q401 228 413.5 199.5 Q426 171 426 139 Q426 106 413.5 78 Q401 50 380.5 29.5 Q360 9 331.5 -2.5 Q303 -14 271 -14 Q238 -14 209.5 -2.5 Q181 9 160 29.5 Q139 50 127.5 78 Q116 106 116 139 ZM116 869 Q116 901 127.5 929.5 Q139 958 160 978.5 Q181 999 210 1011.5 Q239 1024 271 1024 Q303 1024 331.5 1011.5 Q360 999 380.5 978.5 Q401 958 413.5 929.5 Q426 901 426 869 Q426 836 413.5 808 Q401 780 380.5 759.5 Q360 739 331.5 727.5 Q303 716 271 716 Q238 716 209.5 727.5 Q181 739 160 759.5 Q139 780 127.5 808 Q116 836 116 869 Z"/>
            <glyph glyph-name="semicolon" unicode=";"
                   d="M116 869 Q116 901 127.5 929.5 Q139 958 160 978.5 Q181 999 210 1011.5 Q239 1024 271 1024 Q303 1024 331.5 1011.5 Q360 999 380.5 978.5 Q401 958 413.5 929.5 Q426 901 426 869 Q426 836 413.5 808 Q401 780 380.5 759.5 Q360 739 331.5 727.5 Q303 716 271 716 Q238 716 209.5 727.5 Q181 739 160 759.5 Q139 780 127.5 808 Q116 836 116 869 ZM123 156 Q123 185 133.5 209.5 Q144 234 163.5 253 Q183 272 211 283 Q239 294 271 294 Q310 294 339 280 Q368 266 387.5 242 Q407 218 416 187 Q425 156 425 121 Q425 72 410 17.5 Q395 -37 366.5 -91 Q338 -145 296 -196.5 Q254 -248 200 -291 L156 -251 Q138 -236 137 -213 Q137 -205 142.5 -194.5 Q148 -184 157 -176 Q168 -164 184.5 -146 Q201 -128 217 -105 Q233 -82 247 -55 Q261 -28 267 3 Q235 3 208.5 15 Q182 27 163 47.5 Q144 68 133.5 95.5 Q123 123 123 156 Z"/>
            <glyph glyph-name="less" unicode="&lt;"
                   d="M142 639 L142 741 L953 1164 L953 984 Q953 964 943 947 Q933 930 909 918 L538 727 Q514 715 488 706 Q462 697 432 690 Q462 683 488 674.5 Q514 666 538 653 L909 462 Q933 450 943 433 Q953 416 953 395 L953 215 L142 639 Z"/>
            <glyph glyph-name="equal" unicode="="
                   d="M139 414 L139 602 L1047 602 L1047 414 L139 414 ZM139 775 L139 963 L1047 963 L1047 775 L139 775 Z"/>
            <glyph glyph-name="greater" unicode="&gt;"
                   d="M234 215 L234 395 Q234 415 244.5 432.5 Q255 450 279 462 L650 653 Q695 676 756 690 Q726 697 700 706 Q674 715 650 727 L279 918 Q255 930 244.5 947 Q234 964 234 984 L234 1164 L1046 741 L1046 639 L234 215 Z"/>
            <glyph glyph-name="question" unicode="?"
                   d="M38 1347 Q73 1378 114.5 1405.5 Q156 1433 204 1453.5 Q252 1474 308.5 1485.5 Q365 1497 430 1497 Q519 1497 592.5 1472.5 Q666 1448 718 1402.5 Q770 1357 798.5 1292.5 Q827 1228 827 1148 Q827 1070 804.5 1013 Q782 956 748 914 Q714 872 674 841.5 Q634 811 598 784 Q562 757 536 731 Q510 705 505 672 L481 522 L308 522 L291 689 Q290 694 290 697.5 Q290 701 290 707 Q290 752 312.5 785 Q335 818 368.5 847.5 Q402 877 441 904.5 Q480 932 514 964 Q548 996 570.5 1037 Q593 1078 593 1134 Q593 1171 579 1200 Q565 1229 540.5 1250 Q516 1271 481.5 1282 Q447 1293 408 1293 Q350 1293 309 1280.5 Q268 1268 240 1252 Q212 1236 192.5 1223 Q173 1210 158 1210 Q121 1210 104 1241 L38 1347 ZM231 139 Q231 171 243 199.5 Q255 228 276 248.5 Q297 269 325.5 281.5 Q354 294 387 294 Q419 294 447.5 281.5 Q476 269 496.5 248.5 Q517 228 529.5 199.5 Q542 171 542 139 Q542 106 529.5 78 Q517 50 496.5 29.5 Q476 9 447.5 -2.5 Q419 -14 387 -14 Q354 -14 325.5 -2.5 Q297 9 276 29.5 Q255 50 243 78 Q231 106 231 139 Z"/>
            <glyph glyph-name="at" unicode="@"
                   d="M69 597 Q69 707 97 810 Q125 913 177 1004 Q229 1095 303 1170.5 Q377 1246 467 1300.5 Q557 1355 662 1385 Q767 1415 882 1415 Q1027 1415 1160.5 1366.5 Q1294 1318 1397 1227.5 Q1500 1137 1561.5 1006.5 Q1623 876 1623 712 Q1623 602 1591 506.5 Q1559 411 1501 340 Q1443 269 1364.5 228.5 Q1286 188 1194 188 Q1124 188 1069.5 221 Q1015 254 993 327 Q933 253 865.5 221 Q798 189 720 189 Q655 189 607.5 211.5 Q560 234 528 273.5 Q496 313 480 367 Q464 421 464 484 Q464 542 479 602.5 Q494 663 523.5 718.5 Q553 774 597.5 822.5 Q642 871 702.5 907.5 Q763 944 837.5 965 Q912 986 1004 986 Q1083 986 1139 974 Q1195 962 1247 939 L1149 559 Q1133 493 1133 450 Q1133 419 1140.5 398.5 Q1148 378 1161 365.5 Q1174 353 1192 348.5 Q1210 344 1232 344 Q1275 344 1313.5 371 Q1352 398 1380.5 447.5 Q1409 497 1426 564.5 Q1443 632 1443 712 Q1443 845 1401.5 946.5 Q1360 1048 1285.5 1116 Q1211 1184 1108 1218 Q1005 1252 882 1252 Q748 1252 632.5 1201.5 Q517 1151 432.5 1063 Q348 975 300.5 855 Q253 735 253 597 Q253 429 305 301.5 Q357 174 448.5 88.5 Q540 3 663 -40 Q786 -83 930 -83 Q1009 -83 1077.5 -74.5 Q1146 -66 1203.5 -51 Q1261 -36 1308 -17 Q1355 2 1392 24 Q1412 35 1426 35 Q1456 35 1468 2 L1503 -89 Q1397 -159 1254.5 -203 Q1112 -247 930 -247 Q745 -247 587 -188.5 Q429 -130 314 -21 Q199 88 134 244.5 Q69 401 69 597 ZM659 490 Q659 424 687.5 388 Q716 352 770 352 Q797 352 824 360.5 Q851 369 875.5 390 Q900 411 920.5 445.5 Q941 480 954 532 L1029 821 Q996 827 962 827 Q899 827 843 799.5 Q787 772 747 725 Q707 678 683 617 Q659 556 659 490 Z"/>
            <glyph glyph-name="A" unicode="a"
                   d="M6 0 L588 1481 L869 1481 L1451 0 L1238 0 Q1202 0 1179 18 Q1156 36 1146 62 L1035 365 L422 365 L311 62 Q303 38 279 19 Q255 0 220 0 L6 0 ZM493 559 L965 559 L784 1052 Q772 1085 757 1129.5 Q742 1174 728 1226 Q714 1174 700 1128.5 Q686 1083 673 1050 L493 559 Z"/>
            <glyph glyph-name="B" unicode="b"
                   d="M150 0 L150 1481 L660 1481 Q805 1481 908.5 1453 Q1012 1425 1078 1374 Q1144 1323 1174.5 1250.5 Q1205 1178 1205 1086 Q1205 1034 1190 986.5 Q1175 939 1142.5 897.5 Q1110 856 1060.5 822 Q1011 788 942 765 Q1247 696 1247 435 Q1247 341 1211.5 261 Q1176 181 1107 123.5 Q1038 66 938 33 Q838 0 709 0 L150 0 ZM425 215 L705 215 Q782 215 833.5 233.5 Q885 252 916 282.5 Q947 313 961 354 Q975 395 975 441 Q975 489 959.5 527.5 Q944 566 911.5 593.5 Q879 621 827.5 635 Q776 649 703 649 L425 649 L425 215 ZM425 840 L645 840 Q785 840 858 891 Q931 942 931 1054 Q931 1170 865.5 1219 Q800 1268 660 1268 L425 1268 L425 840 Z"/>
            <glyph glyph-name="C" unicode="c"
                   d="M63 740 Q63 907 118.5 1046 Q174 1185 274.5 1285 Q375 1385 514.5 1441 Q654 1497 823 1497 Q988 1497 1111.5 1444.5 Q1235 1392 1323 1305 L1231 1177 Q1223 1165 1210 1155.5 Q1197 1146 1175 1146 Q1151 1146 1126.5 1164.5 Q1102 1183 1064 1204.5 Q1026 1226 968 1244.5 Q910 1263 821 1263 Q717 1263 629.5 1226.5 Q542 1190 479 1122.5 Q416 1055 380.5 958 Q345 861 345 740 Q345 615 380.5 518 Q416 421 476.5 354.5 Q537 288 618.5 252.5 Q700 217 795 217 Q851 217 896.5 223 Q942 229 980.5 242.5 Q1019 256 1053 277 Q1087 298 1121 329 Q1131 338 1142.5 343.5 Q1154 349 1167 349 Q1190 349 1206 332 L1315 214 Q1225 102 1093.5 43 Q962 -16 777 -16 Q612 -16 480.5 40 Q349 96 256 196.5 Q163 297 113 436 Q63 575 63 740 Z"/>
            <glyph glyph-name="D" unicode="d"
                   d="M150 0 L150 1481 L715 1481 Q883 1481 1021 1426 Q1159 1371 1257.5 1273.5 Q1356 1176 1410 1039.5 Q1464 903 1464 740 Q1464 577 1410 441 Q1356 305 1257.5 207 Q1159 109 1021 54.5 Q883 0 715 0 L150 0 ZM427 219 L715 219 Q824 219 910 255 Q996 291 1056.5 358 Q1117 425 1150 521.5 Q1183 618 1183 740 Q1183 862 1150 959 Q1117 1056 1056.5 1123 Q996 1190 909.5 1226 Q823 1262 715 1262 L427 1262 L427 219 Z"/>
            <glyph glyph-name="E" unicode="e"
                   d="M150 0 L150 1481 L1083 1481 L1083 1262 L427 1262 L427 851 L944 851 L944 639 L427 639 L427 220 L1083 220 L1083 0 L150 0 Z"/>
            <glyph glyph-name="F" unicode="f"
                   d="M150 0 L150 1481 L1083 1481 L1083 1262 L427 1262 L427 823 L981 823 L981 603 L427 603 L427 0 L150 0 Z"/>
            <glyph glyph-name="G" unicode="g"
                   d="M63 740 Q63 907 117.5 1046.5 Q172 1186 272 1286 Q372 1386 514 1441.5 Q656 1497 834 1497 Q1015 1497 1147.5 1443.5 Q1280 1390 1372 1304 L1292 1179 Q1268 1141 1230 1141 Q1205 1141 1180 1157 Q1147 1176 1112.5 1195.5 Q1078 1215 1036.5 1229.5 Q995 1244 943.5 1253.5 Q892 1263 824 1263 Q714 1263 626 1226 Q538 1189 475.5 1120.5 Q413 1052 379 955.5 Q345 859 345 740 Q345 612 381 512.5 Q417 413 481.5 344 Q546 275 635 239 Q724 203 829 203 Q922 203 991.5 220 Q1061 237 1123 266 L1123 536 L938 536 Q911 536 896 550.5 Q881 565 881 587 L881 742 L1373 742 L1373 143 Q1317 102 1256 72 Q1195 42 1126 22.5 Q1057 3 978 -6.5 Q899 -16 808 -16 Q646 -16 510 40 Q374 96 274.5 196.5 Q175 297 119 436 Q63 575 63 740 Z"/>
            <glyph glyph-name="H" unicode="h"
                   d="M150 0 L150 1481 L427 1481 L427 844 L1121 844 L1121 1481 L1399 1481 L1399 0 L1121 0 L1121 647 L427 647 L427 0 L150 0 Z"/>
            <glyph glyph-name="I" unicode="i" d="M183 0 L183 1481 L460 1481 L460 0 L183 0 Z"/>
            <glyph glyph-name="J" unicode="j"
                   d="M39 11 L53 175 Q55 198 70 211.5 Q85 225 114 225 Q131 225 159 218 Q187 211 230 211 Q288 211 333.5 228 Q379 245 409 281.5 Q439 318 454.5 377 Q470 436 470 520 L470 1481 L745 1481 L745 526 Q745 401 714.5 301 Q684 201 623 130 Q562 59 471 21.5 Q380 -16 259 -16 Q204 -16 150.5 -9.5 Q97 -3 39 11 Z"/>
            <glyph glyph-name="K" unicode="k"
                   d="M159 0 L159 1482 L434 1482 L434 860 L499 860 Q538 860 563.5 871 Q589 882 607 905 L1016 1422 Q1042 1455 1070 1468 Q1098 1481 1141 1481 L1378 1481 L880 865 Q856 836 834.5 817 Q813 798 788 785 Q822 773 849.5 750.5 Q877 728 902 693 L1416 0 L1172 0 Q1123 0 1099 14 Q1075 28 1059 54 L640 601 Q620 628 594 639.5 Q568 651 521 651 L434 651 L434 0 L159 0 Z"/>
            <glyph glyph-name="L" unicode="l" d="M150 0 L150 1481 L425 1481 L425 227 L1018 227 L1018 0 L150 0 Z"/>
            <glyph glyph-name="M" unicode="m"
                   d="M150 0 L150 1481 L357 1481 Q375 1481 388.5 1480 Q402 1479 413 1474.5 Q424 1470 433 1461 Q442 1452 451 1437 L893 614 Q910 581 925 546 Q940 511 954 475 Q968 512 983.5 548 Q999 584 1017 616 L1455 1437 Q1463 1452 1472 1461 Q1481 1470 1491.5 1474.5 Q1502 1479 1515.5 1480 Q1529 1481 1547 1481 L1755 1481 L1755 0 L1512 0 L1512 956 Q1512 983 1514 1015 Q1516 1047 1519 1079 L1071 240 Q1056 211 1031.5 195 Q1007 179 974 179 L936 179 Q903 179 878.5 195 Q854 211 839 240 L385 1082 Q389 1048 390.5 1016 Q392 984 392 956 L392 0 L150 0 Z"/>
            <glyph glyph-name="N" unicode="n"
                   d="M150 0 L150 1481 L294 1481 Q312 1481 324.5 1479.5 Q337 1478 346.5 1473 Q356 1468 365.5 1459.5 Q375 1451 386 1437 L1163 446 Q1159 482 1157.5 516.5 Q1156 551 1156 581 L1156 1481 L1399 1481 L1399 0 L1256 0 Q1223 0 1202 10 Q1181 20 1160 47 L386 1033 Q389 1000 390.5 968 Q392 936 392 909 L392 0 L150 0 Z"/>
            <glyph glyph-name="O" unicode="o"
                   d="M69 740 Q69 903 123 1042 Q177 1181 276 1282 Q375 1383 513.5 1440 Q652 1497 820 1497 Q988 1497 1126.5 1439.5 Q1265 1382 1363 1281.5 Q1461 1181 1515.5 1042 Q1570 903 1570 740 Q1570 577 1515.5 438.5 Q1461 300 1363 198.5 Q1265 97 1126.5 40.5 Q988 -16 820 -16 Q652 -16 513.5 40.5 Q375 97 276 198.5 Q177 300 123 439 Q69 578 69 740 ZM350 740 Q350 618 383 521.5 Q416 425 477 358 Q538 291 625 255 Q712 219 820 219 Q929 219 1015.5 255 Q1102 291 1162.5 358 Q1223 425 1255 521.5 Q1287 618 1287 740 Q1287 862 1255 959 Q1223 1056 1162.5 1123.5 Q1102 1191 1015.5 1227 Q929 1263 820 1263 Q711 1263 624.5 1227 Q538 1191 477 1123.5 Q416 1056 383 959 Q350 862 350 740 Z"/>
            <glyph glyph-name="P" unicode="p"
                   d="M159 0 L159 1481 L641 1481 Q789 1481 898 1446 Q1007 1411 1077.5 1348.5 Q1148 1286 1181.5 1199 Q1215 1112 1215 1009 Q1215 901 1179.5 811.5 Q1144 722 1072 657.5 Q1000 593 892.5 557 Q785 521 641 521 L434 521 L434 0 L159 0 ZM434 736 L641 736 Q717 736 773 755 Q829 774 866 809.5 Q903 845 921.5 895.5 Q940 946 940 1009 Q940 1068 921.5 1116 Q903 1164 866 1198 Q829 1232 773 1250 Q717 1268 641 1268 L434 1268 L434 736 Z"/>
            <glyph glyph-name="Q" unicode="q"
                   d="M69 740 Q69 903 123 1042 Q177 1181 276 1282 Q375 1383 513.5 1440 Q652 1497 820 1497 Q988 1497 1126.5 1439.5 Q1265 1382 1363 1281.5 Q1461 1181 1515.5 1042 Q1570 903 1570 740 Q1570 641 1549.5 550.5 Q1529 460 1490.5 381 Q1452 302 1396.5 236 Q1341 170 1271 120 L1647 -290 L1419 -290 Q1370 -290 1330.5 -276.5 Q1291 -263 1258 -227 L1041 12 Q989 -2 934.5 -9 Q880 -16 820 -16 Q652 -16 513.5 40.5 Q375 97 276 198.5 Q177 300 123 439 Q69 578 69 740 ZM350 740 Q350 618 383 521.5 Q416 425 477 358 Q538 291 625 255 Q712 219 820 219 Q929 219 1015.5 255 Q1102 291 1162.5 358 Q1223 425 1255 521.5 Q1287 618 1287 740 Q1287 862 1255 959 Q1223 1056 1162.5 1123.5 Q1102 1191 1015.5 1227 Q929 1263 820 1263 Q711 1263 624.5 1227 Q538 1191 477 1123.5 Q416 1056 383 959 Q350 862 350 740 Z"/>
            <glyph glyph-name="R" unicode="r"
                   d="M159 0 L159 1481 L610 1481 Q762 1481 870 1449.5 Q978 1418 1047 1362 Q1116 1306 1148.5 1227.5 Q1181 1149 1181 1055 Q1181 980 1159 913.5 Q1137 847 1095.5 792.5 Q1054 738 993 697 Q932 656 854 632 Q906 602 944 547 L1315 0 L1067 0 Q1031 0 1006 14.5 Q981 29 964 55 L652 529 Q635 556 614 567.5 Q593 579 552 579 L434 579 L434 0 L159 0 ZM434 776 L606 776 Q684 776 742 795.5 Q800 815 837 849.5 Q874 884 892.5 931 Q911 978 911 1034 Q911 1147 837 1207.5 Q763 1268 610 1268 L434 1268 L434 776 Z"/>
            <glyph glyph-name="S" unicode="s"
                   d="M37 178 L117 310 Q128 324 144 334 Q160 344 179 344 Q205 344 234.5 323 Q264 302 304.5 276.5 Q345 251 400 230 Q455 209 531 209 Q649 209 713.5 265 Q778 321 778 425 Q778 483 749 520 Q720 557 672 582 Q624 607 562.5 624.5 Q501 642 437.5 662.5 Q374 683 312.5 711.5 Q251 740 203 786.5 Q155 833 125.5 902 Q96 971 96 1072 Q96 1153 128.5 1230 Q161 1307 223 1366 Q285 1425 375 1461 Q465 1497 581 1497 Q712 1497 822.5 1456 Q933 1415 1011 1341 L943 1211 Q932 1188 917 1179 Q902 1170 882 1170 Q862 1170 836 1186 Q810 1202 775 1221.5 Q740 1241 693.5 1257 Q647 1273 584 1273 Q527 1273 484 1259 Q441 1245 412 1220.5 Q383 1196 368.5 1161.5 Q354 1127 354 1086 Q354 1034 383.5 999.5 Q413 965 461 940 Q509 915 570.5 896 Q632 877 696 855 Q760 833 821.5 803.5 Q883 774 931 729.5 Q979 685 1008 620.5 Q1037 556 1037 464 Q1037 364 1003 276 Q969 188 903 123 Q837 58 741.5 21 Q646 -16 523 -16 Q452 -16 383.5 -2.5 Q315 11 252 36.5 Q189 62 134.5 98 Q80 134 37 178 Z"/>
            <glyph glyph-name="T" unicode="t"
                   d="M25 1254 L25 1481 L1193 1481 L1193 1254 L748 1254 L748 0 L472 0 L472 1254 L25 1254 Z"/>
            <glyph glyph-name="U" unicode="u"
                   d="M132 594 L132 1481 L408 1481 L408 595 Q408 510 431 441.5 Q454 373 497 324 Q540 275 602.5 248.5 Q665 222 745 222 Q825 222 888 248.5 Q951 275 994.5 323.5 Q1038 372 1061 440.5 Q1084 509 1084 594 L1084 1481 L1360 1481 L1360 594 Q1360 462 1317.5 350 Q1275 238 1195 156.5 Q1115 75 1001.5 29.5 Q888 -16 745 -16 Q603 -16 489.5 29.5 Q376 75 296.5 156.5 Q217 238 174.5 350 Q132 462 132 594 Z"/>
            <glyph glyph-name="V" unicode="v"
                   d="M4 1481 L226 1481 Q262 1481 284.5 1463.5 Q307 1446 318 1418 L667 515 Q684 471 700 418.5 Q716 366 730 307 Q754 425 788 515 L1136 1418 Q1145 1442 1168.5 1461.5 Q1192 1481 1227 1481 L1449 1481 L851 0 L602 0 L4 1481 Z"/>
            <glyph glyph-name="W" unicode="w"
                   d="M12 1481 L244 1481 Q280 1481 304 1464 Q328 1447 336 1418 L588 532 Q597 499 604.5 461 Q612 423 620 380 Q628 423 637.5 461.5 Q647 500 658 532 L949 1418 Q957 1442 981.5 1461.5 Q1006 1481 1040 1481 L1121 1481 Q1157 1481 1180.5 1464 Q1204 1447 1213 1418 L1502 532 Q1525 466 1541 387 Q1548 427 1556 464 Q1564 501 1572 532 L1824 1418 Q1831 1444 1855.5 1462.5 Q1880 1481 1915 1481 L2131 1481 L1671 0 L1422 0 L1099 1012 Q1093 1031 1086 1053.5 Q1079 1076 1073 1102 Q1067 1076 1060.5 1053.5 Q1054 1031 1048 1012 L721 0 L472 0 L12 1481 Z"/>
            <glyph glyph-name="X" unicode="x"
                   d="M12 0 L505 762 L33 1481 L307 1481 Q336 1481 348.5 1473 Q361 1465 372 1448 L709 904 Q714 917 720 930 Q726 943 734 956 L1042 1443 Q1065 1481 1101 1481 L1365 1481 L888 773 L1378 0 L1103 0 Q1075 0 1058 14.5 Q1041 29 1030 47 L687 614 Q683 602 678 591.5 Q673 581 668 571 L339 47 Q328 30 311.5 15 Q295 0 270 0 L12 0 Z"/>
            <glyph glyph-name="Y" unicode="y"
                   d="M-7 1481 L236 1481 Q272 1481 292.5 1463.5 Q313 1446 328 1419 L599 925 Q623 881 640 841.5 Q657 802 672 764 Q685 803 702 842.5 Q719 882 742 925 L1012 1419 Q1023 1442 1045.5 1461.5 Q1068 1481 1103 1481 L1347 1481 L808 575 L808 0 L532 0 L532 575 L-7 1481 Z"/>
            <glyph glyph-name="Z" unicode="z"
                   d="M63 0 L63 109 Q63 129 70.5 148 Q78 167 89 183 L851 1262 L112 1262 L112 1481 L1207 1481 L1207 1379 Q1207 1332 1181 1293 L421 220 L1189 220 L1189 0 L63 0 Z"/>
            <glyph glyph-name="bracketleft" unicode="["
                   d="M118 -315 L118 1584 L538 1584 L538 1485 Q538 1458 519 1439 Q500 1420 470 1420 L329 1420 L329 -152 L470 -152 Q500 -152 519 -170.5 Q538 -189 538 -216 L538 -315 L118 -315 Z"/>
            <glyph glyph-name="backslash" unicode="\"
                   d="M-29 1522 L80 1522 Q125 1522 158 1499 Q191 1476 209 1433 L806 -97 L699 -97 Q659 -97 621 -73.5 Q583 -50 565 -3 L-29 1522 Z"/>
            <glyph glyph-name="bracketright" unicode="]"
                   d="M77 -216 Q77 -189 96 -170.5 Q115 -152 144 -152 L286 -152 L286 1420 L144 1420 Q114 1420 95.5 1439 Q77 1458 77 1485 L77 1584 L497 1584 L497 -315 L77 -315 L77 -216 Z"/>
            <glyph glyph-name="asciicircum" unicode="^"
                   d="M125 796 L507 1481 L671 1481 L1053 796 L867 796 Q843 796 828.5 808 Q814 820 804 838 L641 1134 Q626 1163 613 1188 Q600 1213 592 1240 Q584 1213 572.5 1187 Q561 1161 546 1134 L386 838 Q377 821 361.5 808.5 Q346 796 319 796 L125 796 Z"/>
            <glyph glyph-name="underscore" unicode="_" d="M0 -137 L807 -137 L807 -301 L0 -301 L0 -137 Z"/>
            <glyph glyph-name="grave" unicode="`"
                   d="M-1 1497 L236 1497 Q278 1497 297.5 1483 Q317 1469 333 1443 L479 1194 L335 1194 Q306 1194 288 1201.5 Q270 1209 252 1230 L-1 1497 Z"/>
            <glyph glyph-name="a" unicode="a"
                   d="M83 268 Q83 327 114 385 Q145 443 218 490 Q291 537 411.5 567.5 Q532 598 712 602 L712 664 Q712 769 667.5 819.5 Q623 870 538 870 Q477 870 435.5 856 Q394 842 364 824 Q334 806 308.5 791.5 Q283 777 252 777 Q226 777 207.5 790.5 Q189 804 178 823 L132 904 Q313 1070 569 1070 Q661 1070 733.5 1040 Q806 1010 856 956 Q906 902 932 827.5 Q958 753 958 664 L958 0 L845 0 Q809 0 788.5 11 Q768 22 758 54 L735 129 Q695 93 656.5 66 Q618 39 577.5 20.5 Q537 2 490.5 -7 Q444 -16 388 -16 Q321 -16 265 1.5 Q209 19 168.5 55 Q128 91 105.5 144.5 Q83 198 83 268 ZM325 282 Q325 215 364.5 186.5 Q404 158 467 158 Q506 158 538.5 165 Q571 172 600.5 186.5 Q630 201 657 222 Q684 243 712 271 L712 449 Q601 444 527 430 Q453 416 407.5 394.5 Q362 373 343.5 344 Q325 315 325 282 Z"/>
            <glyph glyph-name="b" unicode="b"
                   d="M138 0 L138 1522 L391 1522 L391 922 Q453 989 532 1028 Q611 1067 717 1067 Q803 1067 874 1031.5 Q945 996 997 928.5 Q1049 861 1077 762 Q1105 663 1105 534 Q1105 416 1073 315.5 Q1041 215 982.5 141.5 Q924 68 840.5 26.5 Q757 -15 653 -15 Q605 -15 565 -5.5 Q525 4 492.5 21.5 Q460 39 431.5 64 Q403 89 378 120 L367 49 Q361 22 346 11 Q331 0 305 0 L138 0 ZM391 272 Q434 219 485 198 Q536 177 595 177 Q652 177 698 198.5 Q744 220 776.5 264 Q809 308 826.5 375 Q844 442 844 534 Q844 626 829 690 Q814 754 786.5 794 Q759 834 719.5 852 Q680 870 630 870 Q551 870 495 837 Q439 804 391 743 L391 272 Z"/>
            <glyph glyph-name="c" unicode="c"
                   d="M65 527 Q65 643 98 742 Q131 841 195.5 913 Q260 985 355.5 1026 Q451 1067 574 1067 Q692 1067 780.5 1029 Q869 991 940 921 L873 828 Q862 814 851.5 806 Q841 798 820 798 Q801 798 782.5 809.5 Q764 821 738.5 836 Q713 851 677.5 862.5 Q642 874 590 874 Q523 874 473 850 Q423 826 389.5 781 Q356 736 340 672 Q324 608 324 527 Q324 443 341.5 377.5 Q359 312 393 267.5 Q427 223 475 200 Q523 177 584 177 Q644 177 681.5 192 Q719 207 744.5 225 Q770 243 789 257.5 Q808 272 831 272 Q862 272 878 249 L950 157 Q908 108 859 74.5 Q810 41 757.5 21 Q705 1 648.5 -7 Q592 -15 537 -15 Q440 -15 353.5 21 Q267 57 203 127 Q139 197 102 297.5 Q65 398 65 527 Z"/>
            <glyph glyph-name="d" unicode="d"
                   d="M62 522 Q62 639 94 739.5 Q126 840 185.5 913.5 Q245 987 328 1028.5 Q411 1070 514 1070 Q602 1070 664.5 1042 Q727 1014 776 967 L776 1522 L1029 1522 L1029 0 L874 0 Q825 0 810 46 L790 147 Q757 110 721 80.5 Q685 51 643.5 29.5 Q602 8 554.5 -3.5 Q507 -15 452 -15 Q366 -15 294 20.5 Q222 56 170.5 124.5 Q119 193 90.5 293 Q62 393 62 522 ZM324 522 Q324 430 338.5 366 Q353 302 381 261.5 Q409 221 449 203 Q489 185 538 185 Q617 185 672 218 Q727 251 776 311 L776 782 Q733 834 682.5 856 Q632 878 573 878 Q516 878 469.5 856.5 Q423 835 390.5 791.5 Q358 748 341 680.5 Q324 613 324 522 Z"/>
            <glyph glyph-name="e" unicode="e"
                   d="M65 548 Q65 656 99.5 750.5 Q134 845 199 915 Q264 985 357.5 1026 Q451 1067 569 1067 Q668 1067 752 1035.5 Q836 1004 896 943 Q956 882 990 793.5 Q1024 705 1024 591 Q1024 562 1021.5 543 Q1019 524 1012.5 513.5 Q1006 503 994.5 498.5 Q983 494 966 494 L316 494 Q327 332 403 256 Q479 180 604 180 Q665 180 710 194.5 Q755 209 788 226.5 Q821 244 846 258 Q871 272 895 272 Q910 272 921.5 266 Q933 260 941 249 L1015 157 Q973 108 920.5 74.5 Q868 41 811.5 21 Q755 1 696 -7 Q637 -15 582 -15 Q472 -15 378 21 Q284 57 214 128.5 Q144 200 104.5 305 Q65 410 65 548 ZM322 646 L797 646 Q797 695 783.5 738.5 Q770 782 742.5 815 Q715 848 672.5 867 Q630 886 574 886 Q463 886 401 823.5 Q339 761 322 646 Z"/>
            <glyph glyph-name="f" unicode="f"
                   d="M24 938 L24 1041 L180 1041 L180 1119 Q180 1209 207 1281 Q234 1353 285 1403 Q336 1453 408.5 1479.5 Q481 1506 572 1506 Q645 1506 708 1487 L702 1360 Q700 1330 674.5 1323 Q649 1316 615 1316 Q570 1316 535 1306 Q500 1296 475.5 1272 Q451 1248 438 1208.5 Q425 1169 425 1111 L425 1041 L698 1041 L698 861 L433 861 L433 0 L180 0 L180 860 L89 874 Q59 879 41.5 894.5 Q24 910 24 938 Z"/>
            <glyph glyph-name="g" unicode="g"
                   d="M33 -92 Q33 -18 78 32 Q123 82 203 112 Q164 134 140.5 169.5 Q117 205 117 262 Q117 286 125 311 Q133 336 150 360.5 Q167 385 192.5 407 Q218 429 253 446 Q173 489 127.5 561 Q82 633 82 729 Q82 807 113 870 Q144 933 200 977.5 Q256 1022 332.5 1045.5 Q409 1069 499 1069 Q567 1069 626 1055 Q685 1041 734 1015 L1036 1015 L1036 921 Q1036 897 1024 883.5 Q1012 870 982 865 L888 848 Q898 821 903.5 791.5 Q909 762 909 729 Q909 651 878 588 Q847 525 792 481 Q737 437 662 413 Q587 389 499 389 Q440 389 383 400 Q334 370 334 334 Q334 302 363 287 Q392 272 439.5 266 Q487 260 547.5 258.5 Q608 257 671.5 252 Q735 247 795.5 234 Q856 221 903.5 193.5 Q951 166 980.5 118.5 Q1010 71 1010 -4 Q1010 -74 975.5 -139.5 Q941 -205 876 -256 Q811 -307 717 -338.5 Q623 -370 502 -370 Q382 -370 294 -347 Q206 -324 148 -285.5 Q90 -247 61.5 -196.5 Q33 -146 33 -92 ZM252 -59 Q252 -87 266 -111 Q280 -135 310 -152.5 Q340 -170 388 -179.5 Q436 -189 506 -189 Q577 -189 628 -178.5 Q679 -168 712 -149 Q745 -130 760.5 -104 Q776 -78 776 -47 Q776 -16 757.5 3.5 Q739 23 707.5 33.5 Q676 44 633.5 49 Q591 54 543.5 56.5 Q496 59 445 62 Q394 65 347 71 Q304 47 278 15 Q252 -17 252 -59 ZM312 723 Q312 686 324 654.5 Q336 623 359 600 Q382 577 417.5 564 Q453 551 499 551 Q546 551 580.5 564 Q615 577 638.5 599.5 Q662 622 673.5 653.5 Q685 685 685 723 Q685 801 638.5 846.5 Q592 892 499 892 Q406 892 359 846.5 Q312 801 312 723 Z"/>
            <glyph glyph-name="h" unicode="h"
                   d="M135 0 L135 1522 L388 1522 L388 937 Q449 995 523 1031 Q597 1067 696 1067 Q782 1067 848.5 1038 Q915 1009 960 956 Q1005 903 1028 830 Q1051 757 1051 669 L1051 0 L798 0 L798 669 Q798 765 753.5 817.5 Q709 870 620 870 Q554 870 496.5 840.5 Q439 811 388 760 L388 0 L135 0 Z"/>
            <glyph glyph-name="i" unicode="i"
                   d="M119 1357 Q119 1391 131.5 1420.5 Q144 1450 165.5 1471.5 Q187 1493 216.5 1506 Q246 1519 279 1519 Q313 1519 342.5 1506 Q372 1493 394 1471.5 Q416 1450 429 1420.5 Q442 1391 442 1357 Q442 1324 429 1295.5 Q416 1267 394 1245.5 Q372 1224 342 1211 Q312 1198 279 1198 Q246 1198 216.5 1211 Q187 1224 165.5 1245.5 Q144 1267 131.5 1295.5 Q119 1324 119 1357 ZM152 0 L152 1051 L404 1051 L404 0 L152 0 Z"/>
            <glyph glyph-name="j" unicode="j"
                   d="M-59 -349 L-51 -213 Q-48 -193 -35 -187 Q-22 -181 16 -181 Q54 -181 80 -173.5 Q106 -166 122 -149 Q138 -132 145 -104.5 Q152 -77 152 -36 L152 1051 L404 1051 L404 -36 Q404 -105 386.5 -165 Q369 -225 329.5 -270.5 Q290 -316 226 -342.5 Q162 -369 70 -369 Q34 -369 3 -364 Q-28 -359 -59 -349 ZM119 1357 Q119 1391 131.5 1420.5 Q144 1450 165.5 1471.5 Q187 1493 216.5 1506 Q246 1519 279 1519 Q313 1519 342.5 1506 Q372 1493 394 1471.5 Q416 1450 429 1420.5 Q442 1391 442 1357 Q442 1324 429 1295.5 Q416 1267 394 1245.5 Q372 1224 342 1211 Q312 1198 279 1198 Q246 1198 216.5 1211 Q187 1224 165.5 1245.5 Q144 1267 131.5 1295.5 Q119 1324 119 1357 Z"/>
            <glyph glyph-name="k" unicode="k"
                   d="M138 0 L138 1522 L391 1522 L391 650 L438 650 Q464 650 478.5 657.5 Q493 665 509 684 L770 1007 Q787 1027 806.5 1039 Q826 1051 858 1051 L1090 1051 L763 660 Q746 638 727.5 620.5 Q709 603 687 590 Q709 575 725 554.5 Q741 534 758 510 L1108 0 L880 0 Q850 0 829.5 10 Q809 20 793 45 L525 443 Q510 467 494.5 474 Q479 481 449 481 L391 481 L391 0 L138 0 Z"/>
            <glyph glyph-name="l" unicode="l" d="M152 0 L152 1522 L404 1522 L404 0 L152 0 Z"/>
            <glyph glyph-name="m" unicode="m"
                   d="M135 0 L135 1051 L290 1051 Q339 1051 354 1005 L371 927 Q399 958 429 983.5 Q459 1009 493 1027.5 Q527 1046 566.5 1056.5 Q606 1067 653 1067 Q752 1067 816.5 1013 Q881 959 912 870 Q937 922 974 959.5 Q1011 997 1055 1020.5 Q1099 1044 1148.5 1055.5 Q1198 1067 1248 1067 Q1335 1067 1402.5 1040.5 Q1470 1014 1516.5 962.5 Q1563 911 1587 837.5 Q1611 764 1611 669 L1611 0 L1358 0 L1358 669 Q1358 769 1314 819.5 Q1270 870 1185 870 Q1146 870 1112.5 857 Q1079 844 1054 819 Q1029 794 1014.5 756 Q1000 718 1000 669 L1000 0 L746 0 L746 669 Q746 774 704 822 Q662 870 579 870 Q525 870 477 843 Q429 816 388 769 L388 0 L135 0 Z"/>
            <glyph glyph-name="n" unicode="n"
                   d="M135 0 L135 1051 L290 1051 Q339 1051 354 1005 L372 922 Q404 955 439 981.5 Q474 1008 513.5 1027.5 Q553 1047 598 1057 Q643 1067 696 1067 Q782 1067 848.5 1038 Q915 1009 960 956 Q1005 903 1028 830 Q1051 757 1051 669 L1051 0 L798 0 L798 669 Q798 765 753.5 817.5 Q709 870 620 870 Q554 870 496.5 840.5 Q439 811 388 760 L388 0 L135 0 Z"/>
            <glyph glyph-name="o" unicode="o"
                   d="M62 527 Q62 651 99.5 751.5 Q137 852 205 921.5 Q273 991 369.5 1029 Q466 1067 584 1067 Q702 1067 797.5 1029 Q893 991 960.5 921.5 Q1028 852 1065 751.5 Q1102 651 1102 527 Q1102 402 1065 302 Q1028 202 960.5 131 Q893 60 797 22.5 Q701 -15 584 -15 Q466 -15 369.5 22.5 Q273 60 205 131 Q137 202 99.5 302 Q62 402 62 527 ZM324 525 Q324 356 387.5 267.5 Q451 179 584 179 Q715 179 778 267 Q841 355 841 525 Q841 695 778 784 Q715 873 584 873 Q451 873 387.5 783.5 Q324 694 324 525 Z"/>
            <glyph glyph-name="p" unicode="p"
                   d="M135 -343 L135 1051 L290 1051 Q315 1051 332 1039.5 Q349 1028 354 1005 L375 907 Q438 980 520.5 1025 Q603 1070 714 1070 Q800 1070 871 1034 Q942 998 994 930 Q1046 862 1074 762.5 Q1102 663 1102 534 Q1102 416 1070 315.5 Q1038 215 979.5 141.5 Q921 68 837.5 26.5 Q754 -15 650 -15 Q561 -15 499 12 Q437 39 388 87 L388 -343 L135 -343 ZM388 272 Q431 219 481.5 198 Q532 177 591 177 Q648 177 694.5 198.5 Q741 220 773.5 264 Q806 308 823.5 375 Q841 442 841 534 Q841 626 826 690 Q811 754 783.5 794 Q756 834 716.5 852 Q677 870 627 870 Q548 870 492 837 Q436 804 388 743 L388 272 Z"/>
            <glyph glyph-name="q" unicode="q"
                   d="M62 522 Q62 639 94 739.5 Q126 840 185.5 913.5 Q245 987 328 1028.5 Q411 1070 514 1070 Q563 1070 603.5 1061.5 Q644 1053 678.5 1036.5 Q713 1020 741.5 997.5 Q770 975 797 946 L810 1005 Q815 1029 832.5 1040 Q850 1051 874 1051 L1029 1051 L1029 -343 L776 -343 L776 132 Q744 98 709 71 Q674 44 634 25 Q594 6 549 -4.5 Q504 -15 452 -15 Q366 -15 294 20.5 Q222 56 170.5 124.5 Q119 193 90.5 293 Q62 393 62 522 ZM324 522 Q324 430 338.5 366 Q353 302 381 261.5 Q409 221 449 203 Q489 185 538 185 Q617 185 672 218 Q727 251 776 311 L776 782 Q733 834 682.5 856 Q632 878 573 878 Q516 878 469.5 856.5 Q423 835 390.5 791.5 Q358 748 341 680.5 Q324 613 324 522 Z"/>
            <glyph glyph-name="r" unicode="r"
                   d="M135 0 L135 1051 L284 1051 Q323 1051 338 1036.5 Q353 1022 358 987 L374 860 Q430 957 506 1013.5 Q582 1070 676 1070 Q754 1070 805 1034 L772 845 Q769 827 759 819 Q749 811 731 811 Q716 811 689.5 818 Q663 825 618 825 Q539 825 483 781.5 Q427 738 388 654 L388 0 L135 0 Z"/>
            <glyph glyph-name="s" unicode="s"
                   d="M43 113 L101 209 Q112 226 127.5 235.5 Q143 245 167 245 Q191 245 211.5 231.5 Q232 218 260 202.5 Q288 187 325 174 Q362 161 420 161 Q465 161 497 171.5 Q529 182 550 199.5 Q571 217 581 240 Q591 263 591 288 Q591 325 569 348.5 Q547 372 510.5 389.5 Q474 407 427.5 420.5 Q381 434 332.5 450.5 Q284 467 237 489 Q190 511 154 545 Q118 579 96 628 Q74 677 74 746 Q74 811 99.5 869.5 Q125 928 174.5 971.5 Q224 1015 298.5 1041 Q373 1067 470 1067 Q579 1067 668 1031 Q757 995 816 937 L759 846 Q749 830 737.5 823 Q726 816 709 816 Q691 816 669.5 826.5 Q648 837 620.5 849.5 Q593 862 557.5 872.5 Q522 883 474 883 Q399 883 356 851 Q313 819 313 768 Q313 734 335 711 Q357 688 393.5 670.5 Q430 653 476 639.5 Q522 626 570 609.5 Q618 593 664.5 572 Q711 551 747 518.5 Q783 486 805 441 Q827 396 827 333 Q827 257 799.5 193 Q772 129 719 82.5 Q666 36 587.5 10 Q509 -16 408 -16 Q354 -16 302 -6.5 Q250 3 202.5 20.5 Q155 38 114.5 61.5 Q74 85 43 113 Z"/>
            <glyph glyph-name="t" unicode="t"
                   d="M40 914 L40 1015 L209 1042 L262 1329 Q266 1349 281 1360.5 Q296 1372 318 1372 L450 1372 L450 1041 L726 1041 L726 861 L450 861 L450 292 Q450 243 474.5 215 Q499 187 540 187 Q564 187 579.5 193 Q595 199 606.5 205 Q618 211 627.5 216.5 Q637 222 646 222 Q657 222 664.5 216.5 Q672 211 680 200 L756 77 Q701 31 629 7.5 Q557 -16 480 -16 Q344 -16 270.5 61 Q197 138 197 274 L197 861 L90 861 Q70 861 55 874.5 Q40 888 40 914 Z"/>
            <glyph glyph-name="u" unicode="u"
                   d="M114 383 L114 1051 L367 1051 L367 383 Q367 287 411.5 234 Q456 181 545 181 Q611 181 668 210.5 Q725 240 776 291 L776 1051 L1029 1051 L1029 0 L874 0 Q825 0 810 46 L793 130 Q760 97 725 70 Q690 43 650.5 24 Q611 5 565.5 -5.5 Q520 -16 468 -16 Q382 -16 316 13 Q250 42 205 95 Q160 148 137 221.5 Q114 295 114 383 Z"/>
            <glyph glyph-name="v" unicode="v"
                   d="M14 1051 L224 1051 Q252 1051 271 1037.5 Q290 1024 297 1004 L500 442 Q517 393 529 346 Q541 299 550 252 Q559 299 571 346 Q583 393 601 442 L809 1004 Q816 1024 834.5 1037.5 Q853 1051 879 1051 L1078 1051 L662 0 L432 0 L14 1051 Z"/>
            <glyph glyph-name="w" unicode="w"
                   d="M7 1051 L208 1051 Q237 1051 256 1037.5 Q275 1024 281 1004 L431 442 Q443 396 451 352 Q459 308 466 264 Q477 308 490 352 Q503 396 517 442 L691 1006 Q697 1026 715.5 1039.5 Q734 1053 759 1053 L870 1053 Q898 1053 916.5 1039.5 Q935 1026 941 1006 L1113 432 Q1126 388 1137 346.5 Q1148 305 1158 263 Q1165 307 1174 351 Q1183 395 1196 442 L1352 1004 Q1357 1024 1376.5 1037.5 Q1396 1051 1421 1051 L1613 1051 L1280 0 L1076 0 Q1043 0 1029 45 L840 652 Q831 682 823 712 Q815 742 810 772 Q804 741 797 711 Q790 681 780 650 L589 45 Q575 0 534 0 L340 0 L7 1051 Z"/>
            <glyph glyph-name="x" unicode="x"
                   d="M25 0 L384 542 L39 1051 L283 1051 Q311 1051 324 1043 Q337 1035 347 1018 L567 667 Q572 684 580 701.5 Q588 719 599 736 L776 1013 Q788 1032 801.5 1041.5 Q815 1051 835 1051 L1067 1051 L721 553 L1081 0 L838 0 Q810 0 793 14.5 Q776 29 765 47 L542 413 Q533 376 516 351 L319 47 Q308 30 291.5 15 Q275 0 251 0 L25 0 Z"/>
            <glyph glyph-name="y" unicode="y"
                   d="M7 1051 L228 1051 Q259 1051 275.5 1036.5 Q292 1022 300 1004 L524 459 Q535 432 543.5 403.5 Q552 375 558 346 Q566 376 576 403.5 Q586 431 597 460 L808 1004 Q816 1024 835 1037.5 Q854 1051 878 1051 L1080 1051 L508 -289 Q497 -316 479 -329.5 Q461 -343 424 -343 L236 -343 L432 78 L7 1051 Z"/>
            <glyph glyph-name="z" unicode="z"
                   d="M69 0 L69 105 Q69 122 77 146.5 Q85 171 102 193 L606 857 L98 857 L98 1051 L895 1051 L895 946 Q895 919 885.5 894 Q876 869 862 852 L362 195 L881 195 L881 0 L69 0 Z"/>
            <glyph glyph-name="braceleft" unicode="{"
                   d="M30 561 L30 708 Q95 708 124 747 Q153 786 153 849 Q153 897 146 944.5 Q139 992 130.5 1040.5 Q122 1089 115.5 1137.5 Q109 1186 109 1236 Q109 1314 131.5 1378 Q154 1442 200.5 1488 Q247 1534 318 1559 Q389 1584 485 1584 L540 1584 L540 1471 Q540 1458 534 1448.5 Q528 1439 519.5 1432.5 Q511 1426 502 1423 Q493 1420 485 1420 L476 1420 Q404 1420 366.5 1375 Q329 1330 329 1251 Q329 1195 335 1143.5 Q341 1092 347.5 1043 Q354 994 360.5 947 Q367 900 367 852 Q367 813 356 778 Q345 743 324 715 Q303 687 274 665.5 Q245 644 208 634 Q245 623 274 602 Q303 581 324 552 Q345 523 356 488.5 Q367 454 367 416 Q367 368 360.5 320.5 Q354 273 347.5 224.5 Q341 176 335 124.5 Q329 73 329 16 Q329 -62 366.5 -107 Q404 -152 476 -152 L485 -152 Q492 -152 501.5 -155 Q511 -158 519.5 -164 Q528 -170 534 -180 Q540 -190 540 -204 L540 -315 L485 -315 Q389 -315 318 -290 Q247 -265 200.5 -219.5 Q154 -174 131.5 -110 Q109 -46 109 32 Q109 82 115.5 130.5 Q122 179 130.5 227 Q139 275 146 323.5 Q153 372 153 420 Q153 482 123.5 521.5 Q94 561 30 561 Z"/>
            <glyph glyph-name="bar" unicode="|" d="M209 -343 L209 1584 L406 1584 L406 -343 L209 -343 Z"/>
            <glyph glyph-name="braceright" unicode="}"
                   d="M75 -204 Q75 -191 80.5 -180.5 Q86 -170 94.5 -164 Q103 -158 112.5 -155 Q122 -152 129 -152 L138 -152 Q210 -152 248 -106.5 Q286 -61 286 16 Q286 72 279.5 124 Q273 176 266.5 224.5 Q260 273 254 320.5 Q248 368 248 416 Q248 454 258.5 488.5 Q269 523 289.5 552 Q310 581 340 602 Q370 623 407 634 Q370 644 340 665.5 Q310 687 289.5 715 Q269 743 258.5 778 Q248 813 248 852 Q248 900 254 947 Q260 994 266.5 1043 Q273 1092 279.5 1143.5 Q286 1195 286 1251 Q286 1330 248 1375 Q210 1420 138 1420 L129 1420 Q122 1420 112.5 1423 Q103 1426 94.5 1432.5 Q86 1439 80.5 1448.5 Q75 1458 75 1471 L75 1584 L129 1584 Q225 1584 296.5 1559 Q368 1534 414.5 1488 Q461 1442 483.5 1378 Q506 1314 506 1236 Q506 1186 499.5 1137.5 Q493 1089 484 1040.5 Q475 992 468.5 944.5 Q462 897 462 849 Q462 787 491 747.5 Q520 708 585 708 L585 561 Q520 561 491 521.5 Q462 482 462 420 Q462 372 468.5 323.5 Q475 275 484 227 Q493 179 499.5 130.5 Q506 82 506 32 Q506 -46 483.5 -110 Q461 -174 414.5 -219.5 Q368 -265 296.5 -290 Q225 -315 129 -315 L75 -315 L75 -204 Z"/>
            <glyph glyph-name="asciitilde" unicode="~"
                   d="M100 408 Q100 487 121 550.5 Q142 614 181.5 660 Q221 706 278.5 730.5 Q336 755 410 755 Q464 755 513.5 740.5 Q563 726 607.5 709 Q652 692 691 678 Q730 664 763 664 Q820 664 852 700.5 Q884 737 884 804 L1087 804 Q1087 725 1066.5 661 Q1046 597 1006.5 551.5 Q967 506 909.5 481.5 Q852 457 778 457 Q724 457 674.5 471 Q625 485 580.5 502 Q536 519 497 533.5 Q458 548 425 548 Q368 548 336 511 Q304 474 304 408 L100 408 Z"/>
            <glyph glyph-name="uni00A0" unicode="" d=""/>
            <glyph glyph-name="exclamdown" unicode=""
                   d="M214 913 Q214 946 226 974 Q238 1002 258.5 1022.5 Q279 1043 307.5 1055 Q336 1067 369 1067 Q402 1067 430 1055 Q458 1043 479 1022.5 Q500 1002 512 974 Q524 946 524 913 Q524 880 512 852 Q500 824 479 803.5 Q458 783 429.5 771 Q401 759 369 759 Q336 759 307.5 771 Q279 783 258.5 803.5 Q238 824 226 852 Q214 880 214 913 ZM253 203 Q253 296 262 385.5 Q271 475 287 575 L458 575 Q473 475 482.5 385.5 Q492 296 492 203 L492 -343 L253 -343 L253 203 Z"/>
            <glyph glyph-name="cent" unicode=""
                   d="M126 525 Q126 637 160 733.5 Q194 830 260 902 Q326 974 422.5 1017 Q519 1060 644 1065 L658 1226 Q660 1250 678.5 1269.5 Q697 1289 727 1289 L820 1289 L800 1055 Q881 1041 946.5 1006.5 Q1012 972 1067 921 L1001 831 Q991 817 981 810 Q971 803 950 803 Q936 803 920.5 809.5 Q905 816 885 826.5 Q865 837 840.5 847 Q816 857 783 865 L724 176 Q778 181 814.5 196 Q851 211 877 226.5 Q903 242 922.5 254 Q942 266 963 266 Q994 266 1010 245 L1079 155 Q1043 113 1000 83 Q957 53 910 33 Q863 13 812 2.5 Q761 -8 708 -12 L695 -163 Q693 -188 674.5 -207.5 Q656 -227 627 -227 L534 -227 L552 -8 Q461 5 383 46.5 Q305 88 247.5 156 Q190 224 158 317 Q126 410 126 525 ZM376 525 Q376 388 426 303.5 Q476 219 569 189 L628 872 Q499 856 437.5 766 Q376 676 376 525 Z"/>
            <glyph glyph-name="sterling" unicode=""
                   d="M40 614 L40 695 Q40 730 61.5 755 Q83 780 125 780 L236 780 L236 1022 Q236 1118 264.5 1204.5 Q293 1291 351.5 1356 Q410 1421 498 1459 Q586 1497 705 1497 Q787 1497 851.5 1476 Q916 1455 967 1419 Q1018 1383 1055.5 1334.5 Q1093 1286 1119 1230 L1018 1165 Q985 1149 959 1149 Q921 1149 892 1183 Q873 1206 854 1224.5 Q835 1243 813 1256.5 Q791 1270 764.5 1277 Q738 1284 705 1284 Q600 1284 547.5 1215 Q495 1146 495 1023 L495 780 L913 780 L913 680 Q913 655 893 634.5 Q873 614 842 614 L495 614 L495 416 Q495 348 469.5 295.5 Q444 243 400 198 Q476 215 551 215 L1151 215 L1151 109 Q1151 91 1143.5 71 Q1136 51 1121.5 35 Q1107 19 1087 9.5 Q1067 0 1042 0 L60 0 L60 159 Q95 167 127 182 Q159 197 183 220 Q207 243 221.5 274 Q236 305 236 347 L236 614 L40 614 Z"/>
            <glyph glyph-name="yen" unicode=""
                   d="M11 1481 L221 1481 Q257 1481 279.5 1464 Q302 1447 314 1419 L539 920 Q559 874 571.5 835 Q584 796 592 758 Q600 796 612 835 Q624 874 644 920 L866 1419 Q877 1443 900 1462 Q923 1481 957 1481 L1169 1481 L761 648 L1043 648 L1043 507 L717 507 L717 410 L1043 410 L1043 269 L717 269 L717 0 L464 0 L464 269 L136 269 L136 410 L464 410 L464 507 L136 507 L136 648 L419 648 L11 1481 Z"/>
            <glyph glyph-name="section" unicode=""
                   d="M96 701 Q96 782 138.5 846 Q181 910 268 948 Q221 988 191.5 1043 Q162 1098 162 1176 Q162 1241 187 1298.5 Q212 1356 262 1400 Q312 1444 386 1470 Q460 1496 557 1496 Q666 1496 755.5 1460 Q845 1424 903 1366 L847 1275 Q837 1259 825.5 1251.5 Q814 1244 797 1244 Q778 1244 756.5 1254.5 Q735 1265 707.5 1277.5 Q680 1290 644.5 1300.5 Q609 1311 561 1311 Q518 1311 485.5 1301 Q453 1291 431 1274 Q409 1257 397 1234.5 Q385 1212 385 1187 Q385 1154 409 1129.5 Q433 1105 473 1083 Q513 1061 563.5 1040.5 Q614 1020 667.5 997 Q721 974 771.5 946.5 Q822 919 862 883 Q902 847 926 800 Q950 753 950 691 Q950 608 911.5 541 Q873 474 788 433 Q834 395 863.5 345 Q893 295 893 225 Q893 149 866 85.5 Q839 22 785.5 -25 Q732 -72 653.5 -98 Q575 -124 473 -124 Q419 -124 367 -114 Q315 -104 267.5 -87 Q220 -70 179.5 -46.5 Q139 -23 109 5 L168 101 Q179 118 194 127.5 Q209 137 232 137 Q256 137 277 124 Q298 111 326.5 95.5 Q355 80 395 66.5 Q435 53 496 53 Q580 53 626.5 88 Q673 123 673 184 Q673 225 648.5 255 Q624 285 583 308 Q542 331 490 350 Q438 369 384.5 390.5 Q331 412 279 438 Q227 464 186 500 Q145 536 120.5 585 Q96 634 96 701 ZM321 742 Q321 699 350.5 668 Q380 637 427.5 612 Q475 587 534.5 564 Q594 541 652 514 Q693 534 711.5 565.5 Q730 597 730 634 Q730 679 701.5 710 Q673 741 627 767 Q581 793 523 815.5 Q465 838 408 864 Q362 839 341.5 810 Q321 781 321 742 Z"/>
            <glyph glyph-name="dieresis" unicode=""
                   d="M-6 1323 Q-6 1353 5 1379 Q16 1405 35.5 1424.5 Q55 1444 80 1455 Q105 1466 133 1466 Q162 1466 188 1455 Q214 1444 234 1424.5 Q254 1405 265 1379 Q276 1353 276 1323 Q276 1294 265 1269 Q254 1244 234 1225.5 Q214 1207 188 1196.5 Q162 1186 133 1186 Q105 1186 80 1196.5 Q55 1207 35.5 1225.5 Q16 1244 5 1269 Q-6 1294 -6 1323 ZM377 1323 Q377 1353 388 1379 Q399 1405 418 1424.5 Q437 1444 462.5 1455 Q488 1466 517 1466 Q546 1466 572 1455 Q598 1444 617.5 1424.5 Q637 1405 648 1379 Q659 1353 659 1323 Q659 1294 648 1269 Q637 1244 617.5 1225.5 Q598 1207 572 1196.5 Q546 1186 517 1186 Q488 1186 462.5 1196.5 Q437 1207 418 1225.5 Q399 1244 388 1269 Q377 1294 377 1323 Z"/>
            <glyph glyph-name="copyright" unicode=""
                   d="M54 740 Q54 844 81.5 941 Q109 1038 158 1122 Q207 1206 276 1275.5 Q345 1345 429 1394 Q513 1443 609.5 1470 Q706 1497 810 1497 Q914 1497 1011 1470 Q1108 1443 1192 1394 Q1276 1345 1345 1275.5 Q1414 1206 1463 1122 Q1512 1038 1539.5 941.5 Q1567 845 1567 740 Q1567 637 1539.5 540 Q1512 443 1463 359.5 Q1414 276 1345 207 Q1276 138 1192 89 Q1108 40 1011 13 Q914 -14 810 -14 Q706 -14 609.5 13 Q513 40 429 89 Q345 138 276 207 Q207 276 158 359.5 Q109 443 81.5 539.5 Q54 636 54 740 ZM193 740 Q193 607 240.5 491.5 Q288 376 371.5 290.5 Q455 205 567.5 155.5 Q680 106 810 106 Q940 106 1053.5 155.5 Q1167 205 1251 290.5 Q1335 376 1383.5 491.5 Q1432 607 1432 740 Q1432 829 1410 911 Q1388 993 1348 1064.5 Q1308 1136 1251 1193.5 Q1194 1251 1125.5 1292.5 Q1057 1334 977 1356.5 Q897 1379 810 1379 Q723 1379 643.5 1356.5 Q564 1334 495.5 1292.5 Q427 1251 371 1193.5 Q315 1136 275.5 1064.5 Q236 993 214.5 911 Q193 829 193 740 ZM362 743 Q362 847 398 934.5 Q434 1022 497.5 1085 Q561 1148 646.5 1183 Q732 1218 833 1218 Q948 1218 1029 1180 Q1110 1142 1165 1081 L1099 990 Q1093 982 1082.5 974 Q1072 966 1055 966 Q1038 966 1022.5 976 Q1007 986 985.5 998.5 Q964 1011 931 1021 Q898 1031 846 1031 Q785 1031 736.5 1011 Q688 991 655 953.5 Q622 916 604.5 863 Q587 810 587 743 Q587 673 605 620 Q623 567 654.5 531 Q686 495 729.5 476 Q773 457 824 457 Q874 457 906.5 465 Q939 473 961.5 484.5 Q984 496 1001 507 Q1018 518 1041 524 Q1052 524 1061.5 519.5 Q1071 515 1077 507 L1161 418 Q1104 345 1017 306.5 Q930 268 812 268 Q710 268 627 304.5 Q544 341 485 405 Q426 469 394 555.5 Q362 642 362 743 Z"/>
            <glyph glyph-name="ordfeminine" unicode=""
                   d="M83 1026 Q83 1060 100.5 1095 Q118 1130 161 1159 Q204 1188 276.5 1207 Q349 1226 460 1229 L460 1254 Q460 1309 436 1332.5 Q412 1356 366 1356 Q331 1356 308.5 1348.5 Q286 1341 268.5 1332 Q251 1323 235.5 1316 Q220 1309 199 1309 Q180 1309 166.5 1319 Q153 1329 145 1342 L114 1401 Q171 1453 239.5 1477 Q308 1501 388 1501 Q445 1501 491.5 1482.5 Q538 1464 570 1431 Q602 1398 619.5 1353 Q637 1308 637 1254 L637 861 L552 861 Q527 861 513 867.5 Q499 874 490 898 L478 935 Q453 915 431 899.5 Q409 884 385 873.5 Q361 863 334 858 Q307 853 273 853 Q230 853 195.5 864.5 Q161 876 136 898 Q111 920 97 952 Q83 984 83 1026 ZM257 1035 Q257 1002 276 989.5 Q295 977 331 977 Q370 977 399.5 991 Q429 1005 460 1034 L460 1117 Q400 1115 361 1108 Q322 1101 298.5 1090 Q275 1079 266 1065.5 Q257 1052 257 1035 Z"/>
            <glyph glyph-name="guillemotleft" unicode=""
                   d="M126 535 L126 567 L388 973 L471 934 Q491 925 500.5 910.5 Q510 896 510 879 Q510 857 497 835 L355 594 Q341 567 323 551 Q339 537 355 508 L497 266 Q510 243 510 221 Q510 186 471 168 L388 129 L126 535 ZM463 535 L463 567 L725 973 L808 934 Q828 925 837.5 910.5 Q847 896 847 879 Q847 857 834 835 L692 594 Q678 567 659 551 Q675 537 692 508 L834 266 Q847 243 847 221 Q847 186 808 168 L725 129 L463 535 Z"/>
            <glyph glyph-name="logicalnot" unicode=""
                   d="M139 594 L139 781 L1047 781 L1047 304 L833 304 L833 594 L139 594 Z"/>
            <glyph glyph-name="uni00AD" unicode="" d="M102 513 L102 724 L633 724 L633 513 L102 513 Z"/>
            <glyph glyph-name="registered" unicode=""
                   d="M54 740 Q54 844 81.5 941 Q109 1038 158 1122 Q207 1206 276 1275.5 Q345 1345 429 1394 Q513 1443 609.5 1470 Q706 1497 810 1497 Q914 1497 1011 1470 Q1108 1443 1192 1394 Q1276 1345 1345 1275.5 Q1414 1206 1463 1122 Q1512 1038 1539.5 941.5 Q1567 845 1567 740 Q1567 637 1539.5 540 Q1512 443 1463 359.5 Q1414 276 1345 207 Q1276 138 1192 89 Q1108 40 1011 13 Q914 -14 810 -14 Q706 -14 609.5 13 Q513 40 429 89 Q345 138 276 207 Q207 276 158 359.5 Q109 443 81.5 539.5 Q54 636 54 740 ZM193 740 Q193 607 240.5 491.5 Q288 376 371.5 290.5 Q455 205 567.5 155.5 Q680 106 810 106 Q940 106 1053.5 155.5 Q1167 205 1251 290.5 Q1335 376 1383.5 491.5 Q1432 607 1432 740 Q1432 829 1410 911 Q1388 993 1348 1064.5 Q1308 1136 1251 1193.5 Q1194 1251 1125.5 1292.5 Q1057 1334 977 1356.5 Q897 1379 810 1379 Q723 1379 643.5 1356.5 Q564 1334 495.5 1292.5 Q427 1251 371 1193.5 Q315 1136 275.5 1064.5 Q236 993 214.5 911 Q193 829 193 740 ZM476 284 L476 1202 L805 1202 Q996 1202 1085.5 1133.5 Q1175 1065 1175 937 Q1175 846 1127.5 778 Q1080 710 981 678 Q1005 665 1020 645 Q1035 625 1051 598 L1236 284 L1025 284 Q979 284 961 317 L813 587 Q803 601 790 608.5 Q777 616 752 616 L695 616 L695 284 L476 284 ZM695 773 L786 773 Q838 773 872 782 Q906 791 925 808 Q944 825 951 851 Q958 877 958 909 Q958 941 952 965 Q946 989 929 1005 Q912 1021 882 1028.5 Q852 1036 805 1036 L695 1036 L695 773 Z"/>
            <glyph glyph-name="macron" unicode="" d="M20 1243 L20 1405 L633 1405 L633 1243 L20 1243 Z"/>
            <glyph glyph-name="degree" unicode=""
                   d="M56 1150 Q56 1223 83.5 1287 Q111 1351 158.5 1398 Q206 1445 270.5 1472 Q335 1499 410 1499 Q485 1499 549.5 1472 Q614 1445 662.5 1398 Q711 1351 738.5 1287 Q766 1223 766 1150 Q766 1079 738.5 1015.5 Q711 952 662.5 904.5 Q614 857 549 829.5 Q484 802 410 802 Q335 802 270.5 829.5 Q206 857 158.5 904.5 Q111 952 83.5 1015.5 Q56 1079 56 1150 ZM232 1148 Q232 1110 245.5 1077 Q259 1044 283 1020 Q307 996 339.5 982.5 Q372 969 410 969 Q448 969 480.5 982.5 Q513 996 537 1020 Q561 1044 574.5 1077 Q588 1110 588 1148 Q588 1187 574.5 1220 Q561 1253 537 1278 Q513 1303 480 1317 Q447 1331 410 1331 Q372 1331 339.5 1317 Q307 1303 283 1278 Q259 1253 245.5 1220 Q232 1187 232 1148 Z"/>
            <glyph glyph-name="plusminus" unicode=""
                   d="M93 82 L93 269 L1093 269 L1093 82 L93 82 ZM93 720 L93 908 L489 908 L489 1271 L694 1271 L694 908 L1093 908 L1093 720 L694 720 L694 371 L489 371 L489 720 L93 720 Z"/>
            <glyph glyph-name="acute" unicode=""
                   d="M193 1194 L338 1443 Q353 1470 373.5 1483.5 Q394 1497 435 1497 L681 1497 L428 1230 Q409 1210 391 1202 Q373 1194 344 1194 L193 1194 Z"/>
            <glyph glyph-name="uni00B5" unicode=""
                   d="M114 -238 L114 1051 L367 1051 L367 383 Q367 287 411.5 234 Q456 181 545 181 Q611 181 668 210.5 Q725 240 776 291 L776 1051 L1029 1051 L1029 0 L874 0 Q825 0 810 46 L793 131 Q761 99 730 77 Q699 55 667.5 41.5 Q636 28 601.5 21.5 Q567 15 528 15 Q468 15 419 33.5 Q370 52 332 86 Q343 41 346.5 -7 Q350 -55 350 -97 L350 -343 L225 -343 Q172 -343 143 -316 Q114 -289 114 -238 Z"/>
            <glyph glyph-name="paragraph" unicode=""
                   d="M34 1062 Q34 1155 67 1232 Q100 1309 161 1364 Q222 1419 308 1450 Q394 1481 501 1481 L1403 1481 L1403 1269 L1184 1269 L1184 -214 L963 -214 L963 1269 L722 1269 L722 -214 L501 -214 L501 645 Q395 645 308.5 678.5 Q222 712 161 768.5 Q100 825 67 901 Q34 977 34 1062 Z"/>
            <glyph glyph-name="periodcentered" unicode=""
                   d="M93 609 Q93 649 108 684.5 Q123 720 149 746 Q175 772 210 787 Q245 802 285 802 Q326 802 361 787 Q396 772 422.5 746 Q449 720 464 684.5 Q479 649 479 609 Q479 569 464 535 Q449 501 422.5 475 Q396 449 361 434 Q326 419 285 419 Q245 419 210 434 Q175 449 149 475 Q123 501 108 535 Q93 569 93 609 Z"/>
            <glyph glyph-name="cedilla" unicode=""
                   d="M135 -334 L159 -256 Q164 -232 187 -232 Q194 -232 202 -234.5 Q210 -237 219.5 -240 Q229 -243 241 -245 Q253 -247 269 -247 Q303 -247 320 -234 Q337 -221 337 -203 Q337 -173 300 -160 Q263 -147 186 -137 L232 14 L390 14 L370 -56 Q461 -79 498 -117.5 Q535 -156 535 -208 Q535 -242 517 -269.5 Q499 -297 466 -316.5 Q433 -336 387 -346.5 Q341 -357 286 -357 Q244 -357 207.5 -351 Q171 -345 135 -334 Z"/>
            <glyph glyph-name="ordmasculine" unicode=""
                   d="M62 1177 Q62 1252 87 1311.5 Q112 1371 156 1412.5 Q200 1454 261.5 1476.5 Q323 1499 399 1499 Q473 1499 534.5 1476.5 Q596 1454 640 1412.5 Q684 1371 708 1311 Q732 1251 732 1177 Q732 1101 708 1040 Q684 979 640 936.5 Q596 894 534.5 871.5 Q473 849 399 849 Q323 849 261.5 871.5 Q200 894 156 936.5 Q112 979 87 1040 Q62 1101 62 1177 ZM260 1175 Q260 1084 293 1040 Q326 996 399 996 Q468 996 501.5 1039.5 Q535 1083 535 1175 Q535 1266 501.5 1309 Q468 1352 399 1352 Q326 1352 293 1309 Q260 1266 260 1175 Z"/>
            <glyph glyph-name="guillemotright" unicode=""
                   d="M147 223 Q147 243 161 266 L302 508 Q318 537 335 551 Q317 567 302 594 L161 835 Q148 858 147 879 Q147 916 186 934 L269 973 L531 567 L531 535 L269 129 L186 168 Q166 177 156.5 191.5 Q147 206 147 223 ZM484 223 Q484 243 498 266 L639 508 Q655 537 672 551 Q654 567 639 594 L498 835 Q485 858 484 879 Q484 916 523 934 L606 973 L868 567 L868 535 L606 129 L523 168 Q503 177 493.5 191.5 Q484 206 484 223 Z"/>
            <glyph glyph-name="questiondown" unicode=""
                   d="M49 -17 Q49 61 71.5 115 Q94 169 128.5 207.5 Q163 246 203.5 272.5 Q244 299 279.5 322.5 Q315 346 341.5 370 Q368 394 373 427 L396 575 L569 575 L587 409 Q588 404 588 399 Q588 394 588 389 Q588 342 565.5 310.5 Q543 279 509 254 Q475 229 436 207 Q397 185 363.5 158 Q330 131 307.5 94.5 Q285 58 285 5 Q285 -32 298.5 -61 Q312 -90 336.5 -111 Q361 -132 395 -143.5 Q429 -155 469 -155 Q527 -155 567.5 -141.5 Q608 -128 636.5 -112.5 Q665 -97 684 -84 Q703 -71 720 -71 Q756 -71 772 -102 L840 -208 Q804 -239 762.5 -266 Q721 -293 673 -314 Q625 -335 568.5 -346.5 Q512 -358 446 -358 Q357 -358 284 -334.5 Q211 -311 158.5 -267 Q106 -223 77.5 -160 Q49 -97 49 -17 ZM332 913 Q332 945 343.5 973.5 Q355 1002 376 1022.5 Q397 1043 426 1055.5 Q455 1068 487 1068 Q519 1068 548 1055.5 Q577 1043 597 1022.5 Q617 1002 629.5 973.5 Q642 945 642 913 Q642 880 629.5 852 Q617 824 597 803.5 Q577 783 548 771.5 Q519 760 487 760 Q454 760 425.5 771.5 Q397 783 376 803.5 Q355 824 343.5 852 Q332 880 332 913 Z"/>
            <glyph glyph-name="Agrave" unicode=""
                   d="M6 0 L588 1481 L869 1481 L1451 0 L1238 0 Q1202 0 1179 18 Q1156 36 1146 62 L1035 365 L422 365 L311 62 Q303 38 279 19 Q255 0 220 0 L6 0 ZM301 1834 L582 1834 Q602 1834 616.5 1832.5 Q631 1831 642.5 1826.5 Q654 1822 664.5 1813.5 Q675 1805 687 1793 L889 1586 L689 1586 Q675 1586 664 1586.5 Q653 1587 644 1589.5 Q635 1592 625.5 1597.5 Q616 1603 605 1611 L301 1834 ZM493 559 L965 559 L784 1052 Q772 1085 757 1129.5 Q742 1174 728 1226 Q714 1174 700 1128.5 Q686 1083 673 1050 L493 559 Z"/>
            <glyph glyph-name="Aacute" unicode=""
                   d="M6 0 L588 1481 L869 1481 L1451 0 L1238 0 Q1202 0 1179 18 Q1156 36 1146 62 L1035 365 L422 365 L311 62 Q303 38 279 19 Q255 0 220 0 L6 0 ZM493 559 L965 559 L784 1052 Q772 1085 757 1129.5 Q742 1174 728 1226 Q714 1174 700 1128.5 Q686 1083 673 1050 L493 559 ZM533 1586 L734 1793 Q746 1805 757 1813.5 Q768 1822 779.5 1826.5 Q791 1831 805 1832.5 Q819 1834 840 1834 L1121 1834 L818 1613 Q807 1605 797 1599.5 Q787 1594 777.5 1591 Q768 1588 757 1587 Q746 1586 732 1586 L533 1586 Z"/>
            <glyph glyph-name="Acircumflex" unicode=""
                   d="M6 0 L588 1481 L869 1481 L1451 0 L1238 0 Q1202 0 1179 18 Q1156 36 1146 62 L1035 365 L422 365 L311 62 Q303 38 279 19 Q255 0 220 0 L6 0 ZM354 1586 L602 1810 L854 1810 L1101 1586 L910 1586 Q895 1586 876.5 1590 Q858 1594 846 1603 L743 1671 Q739 1673 735.5 1676 Q732 1679 728 1682 Q726 1680 721.5 1677 Q717 1674 712 1671 L609 1603 Q598 1595 579.5 1590.5 Q561 1586 545 1586 L354 1586 ZM493 559 L965 559 L784 1052 Q772 1085 757 1129.5 Q742 1174 728 1226 Q714 1174 700 1128.5 Q686 1083 673 1050 L493 559 Z"/>
            <glyph glyph-name="Atilde" unicode=""
                   d="M6 0 L588 1481 L869 1481 L1451 0 L1238 0 Q1202 0 1179 18 Q1156 36 1146 62 L1035 365 L422 365 L311 62 Q303 38 279 19 Q255 0 220 0 L6 0 ZM415 1581 Q415 1631 428.5 1673.5 Q442 1716 467.5 1747 Q493 1778 529 1794.5 Q565 1811 610 1811 Q647 1811 681.5 1800 Q716 1789 747.5 1775.5 Q779 1762 805.5 1751 Q832 1740 854 1740 Q882 1740 898.5 1756 Q915 1772 916 1804 L1053 1804 Q1053 1753 1040 1711 Q1027 1669 1002.5 1639.5 Q978 1610 942 1593 Q906 1576 860 1576 Q823 1576 788.5 1587 Q754 1598 723 1611.5 Q692 1625 665 1636.5 Q638 1648 616 1648 Q588 1648 572 1631 Q556 1614 555 1581 L415 1581 ZM493 559 L965 559 L784 1052 Q772 1085 757 1129.5 Q742 1174 728 1226 Q714 1174 700 1128.5 Q686 1083 673 1050 L493 559 Z"/>
            <glyph glyph-name="Adieresis" unicode=""
                   d="M6 0 L588 1481 L869 1481 L1451 0 L1238 0 Q1202 0 1179 18 Q1156 36 1146 62 L1035 365 L422 365 L311 62 Q303 38 279 19 Q255 0 220 0 L6 0 ZM369 1707 Q369 1735 380 1760 Q391 1785 409.5 1804 Q428 1823 452 1834 Q476 1845 502 1845 Q531 1845 556.5 1834 Q582 1823 601.5 1804 Q621 1785 632.5 1760 Q644 1735 644 1707 Q644 1679 632.5 1654.5 Q621 1630 601.5 1611.5 Q582 1593 556.5 1583 Q531 1573 502 1573 Q475 1573 451.5 1583 Q428 1593 409.5 1611.5 Q391 1630 380 1654.5 Q369 1679 369 1707 ZM493 559 L965 559 L784 1052 Q772 1085 757 1129.5 Q742 1174 728 1226 Q714 1174 700 1128.5 Q686 1083 673 1050 L493 559 ZM812 1707 Q812 1735 822.5 1760 Q833 1785 852 1804 Q871 1823 896 1834 Q921 1845 949 1845 Q978 1845 1003 1834 Q1028 1823 1046.5 1804 Q1065 1785 1075.5 1760 Q1086 1735 1086 1707 Q1086 1679 1075.5 1654.5 Q1065 1630 1046.5 1611.5 Q1028 1593 1003 1583 Q978 1573 949 1573 Q921 1573 896 1583 Q871 1593 852 1611.5 Q833 1630 822.5 1654.5 Q812 1679 812 1707 Z"/>
            <glyph glyph-name="Aring" unicode=""
                   d="M6 0 L588 1481 L869 1481 L1451 0 L1238 0 Q1202 0 1179 18 Q1156 36 1146 62 L1035 365 L422 365 L311 62 Q303 38 279 19 Q255 0 220 0 L6 0 ZM493 559 L965 559 L784 1052 Q772 1085 757 1129.5 Q742 1174 728 1226 Q714 1174 700 1128.5 Q686 1083 673 1050 L493 559 ZM517 1723 Q517 1767 534.5 1803 Q552 1839 580.5 1864.5 Q609 1890 647 1904.5 Q685 1919 727 1919 Q771 1919 809.5 1904.5 Q848 1890 878 1864.5 Q908 1839 925.5 1803 Q943 1767 943 1723 Q943 1680 925.5 1645 Q908 1610 878 1584.5 Q848 1559 809.5 1545 Q771 1531 727 1531 Q685 1531 647 1545 Q609 1559 580.5 1584.5 Q552 1610 534.5 1645 Q517 1680 517 1723 ZM638 1723 Q638 1683 662 1657.5 Q686 1632 731 1632 Q772 1632 796.5 1657.5 Q821 1683 821 1723 Q821 1766 796.5 1791 Q772 1816 731 1816 Q686 1816 662 1791 Q638 1766 638 1723 Z"/>
            <glyph glyph-name="AE" unicode=""
                   d="M-29 0 L724 1481 L1823 1481 L1823 1262 L1112 1262 L1163 851 L1684 851 L1684 639 L1189 639 L1240 220 L1823 220 L1823 0 L1007 0 L962 365 L429 365 L284 61 Q271 33 244 16.5 Q217 0 180 0 L-29 0 ZM523 559 L938 559 L850 1276 Q834 1224 816 1178 Q798 1132 780 1093 L523 559 Z"/>
            <glyph glyph-name="Ccedilla" unicode=""
                   d="M63 740 Q63 907 118.5 1046 Q174 1185 274.5 1285 Q375 1385 514.5 1441 Q654 1497 823 1497 Q988 1497 1111.5 1444.5 Q1235 1392 1323 1305 L1231 1177 Q1223 1165 1210 1155.5 Q1197 1146 1175 1146 Q1151 1146 1126.5 1164.5 Q1102 1183 1064 1204.5 Q1026 1226 968 1244.5 Q910 1263 821 1263 Q717 1263 629.5 1226.5 Q542 1190 479 1122.5 Q416 1055 380.5 958 Q345 861 345 740 Q345 615 380.5 518 Q416 421 476.5 354.5 Q537 288 618.5 252.5 Q700 217 795 217 Q851 217 896.5 223 Q942 229 980.5 242.5 Q1019 256 1053 277 Q1087 298 1121 329 Q1131 338 1142.5 343.5 Q1154 349 1167 349 Q1190 349 1206 332 L1315 214 Q1233 112 1116.5 54 Q1000 -4 842 -14 L829 -56 Q920 -79 957 -117.5 Q994 -156 994 -208 Q994 -242 976 -269.5 Q958 -297 925.5 -316.5 Q893 -336 847 -346.5 Q801 -357 745 -357 Q703 -357 667 -351 Q631 -345 595 -334 L618 -256 Q624 -232 647 -232 Q654 -232 662 -234.5 Q670 -237 679.5 -240 Q689 -243 701 -245 Q713 -247 729 -247 Q763 -247 780 -234 Q797 -221 797 -203 Q797 -173 760 -160 Q723 -147 646 -137 L684 -11 Q540 4 425 66 Q310 128 230 227 Q150 326 106.5 456.5 Q63 587 63 740 Z"/>
            <glyph glyph-name="Egrave" unicode=""
                   d="M150 0 L150 1481 L1083 1481 L1083 1262 L427 1262 L427 851 L944 851 L944 639 L427 639 L427 220 L1083 220 L1083 0 L150 0 ZM205 1834 L486 1834 Q506 1834 520.5 1832.5 Q535 1831 546.5 1826.5 Q558 1822 568.5 1813.5 Q579 1805 591 1793 L793 1586 L593 1586 Q579 1586 568 1586.5 Q557 1587 548 1589.5 Q539 1592 529.5 1597.5 Q520 1603 509 1611 L205 1834 Z"/>
            <glyph glyph-name="Eacute" unicode=""
                   d="M150 0 L150 1481 L1083 1481 L1083 1262 L427 1262 L427 851 L944 851 L944 639 L427 639 L427 220 L1083 220 L1083 0 L150 0 ZM437 1586 L638 1793 Q650 1805 661 1813.5 Q672 1822 683.5 1826.5 Q695 1831 709 1832.5 Q723 1834 744 1834 L1025 1834 L722 1613 Q711 1605 701 1599.5 Q691 1594 681.5 1591 Q672 1588 661 1587 Q650 1586 636 1586 L437 1586 Z"/>
            <glyph glyph-name="Ecircumflex" unicode=""
                   d="M150 0 L150 1481 L1083 1481 L1083 1262 L427 1262 L427 851 L944 851 L944 639 L427 639 L427 220 L1083 220 L1083 0 L150 0 ZM258 1586 L506 1810 L758 1810 L1005 1586 L814 1586 Q799 1586 780.5 1590 Q762 1594 750 1603 L647 1671 Q643 1673 639.5 1676 Q636 1679 632 1682 Q630 1680 625.5 1677 Q621 1674 616 1671 L513 1603 Q502 1595 483.5 1590.5 Q465 1586 449 1586 L258 1586 Z"/>
            <glyph glyph-name="Edieresis" unicode=""
                   d="M150 0 L150 1481 L1083 1481 L1083 1262 L427 1262 L427 851 L944 851 L944 639 L427 639 L427 220 L1083 220 L1083 0 L150 0 ZM273 1707 Q273 1735 284 1760 Q295 1785 313.5 1804 Q332 1823 356 1834 Q380 1845 406 1845 Q435 1845 460.5 1834 Q486 1823 505.5 1804 Q525 1785 536.5 1760 Q548 1735 548 1707 Q548 1679 536.5 1654.5 Q525 1630 505.5 1611.5 Q486 1593 460.5 1583 Q435 1573 406 1573 Q379 1573 355.5 1583 Q332 1593 313.5 1611.5 Q295 1630 284 1654.5 Q273 1679 273 1707 ZM716 1707 Q716 1735 726.5 1760 Q737 1785 756 1804 Q775 1823 800 1834 Q825 1845 853 1845 Q882 1845 907 1834 Q932 1823 950.5 1804 Q969 1785 979.5 1760 Q990 1735 990 1707 Q990 1679 979.5 1654.5 Q969 1630 950.5 1611.5 Q932 1593 907 1583 Q882 1573 853 1573 Q825 1573 800 1583 Q775 1593 756 1611.5 Q737 1630 726.5 1654.5 Q716 1679 716 1707 Z"/>
            <glyph glyph-name="Igrave" unicode=""
                   d="M-100 1834 L181 1834 Q201 1834 215.5 1832.5 Q230 1831 241.5 1826.5 Q253 1822 263.5 1813.5 Q274 1805 286 1793 L488 1586 L288 1586 Q274 1586 263 1586.5 Q252 1587 243 1589.5 Q234 1592 224.5 1597.5 Q215 1603 204 1611 L-100 1834 ZM183 0 L183 1481 L460 1481 L460 0 L183 0 Z"/>
            <glyph glyph-name="Iacute" unicode=""
                   d="M132 1586 L333 1793 Q345 1805 356 1813.5 Q367 1822 378.5 1826.5 Q390 1831 404 1832.5 Q418 1834 439 1834 L720 1834 L417 1613 Q406 1605 396 1599.5 Q386 1594 376.5 1591 Q367 1588 356 1587 Q345 1586 331 1586 L132 1586 ZM183 0 L183 1481 L460 1481 L460 0 L183 0 Z"/>
            <glyph glyph-name="Icircumflex" unicode=""
                   d="M-48 1586 L200 1810 L452 1810 L699 1586 L508 1586 Q493 1586 474.5 1590 Q456 1594 444 1603 L341 1671 Q337 1673 333.5 1676 Q330 1679 326 1682 Q324 1680 319.5 1677 Q315 1674 310 1671 L207 1603 Q196 1595 177.5 1590.5 Q159 1586 143 1586 L-48 1586 ZM183 0 L183 1481 L460 1481 L460 0 L183 0 Z"/>
            <glyph glyph-name="Idieresis" unicode=""
                   d="M-33 1707 Q-33 1735 -22 1760 Q-11 1785 7.5 1804 Q26 1823 50 1834 Q74 1845 100 1845 Q129 1845 154.5 1834 Q180 1823 199.5 1804 Q219 1785 230.5 1760 Q242 1735 242 1707 Q242 1679 230.5 1654.5 Q219 1630 199.5 1611.5 Q180 1593 154.5 1583 Q129 1573 100 1573 Q73 1573 49.5 1583 Q26 1593 7.5 1611.5 Q-11 1630 -22 1654.5 Q-33 1679 -33 1707 ZM183 0 L183 1481 L460 1481 L460 0 L183 0 ZM410 1707 Q410 1735 420.5 1760 Q431 1785 450 1804 Q469 1823 494 1834 Q519 1845 547 1845 Q576 1845 601 1834 Q626 1823 644.5 1804 Q663 1785 673.5 1760 Q684 1735 684 1707 Q684 1679 673.5 1654.5 Q663 1630 644.5 1611.5 Q626 1593 601 1583 Q576 1573 547 1573 Q519 1573 494 1583 Q469 1593 450 1611.5 Q431 1630 420.5 1654.5 Q410 1679 410 1707 Z"/>
            <glyph glyph-name="Eth" unicode=""
                   d="M54 667 L54 823 L239 823 L239 1481 L804 1481 Q972 1481 1110 1426 Q1248 1371 1346.5 1273.5 Q1445 1176 1499 1039.5 Q1553 903 1553 740 Q1553 577 1499 441 Q1445 305 1346.5 207 Q1248 109 1110 54.5 Q972 0 804 0 L239 0 L239 667 L54 667 ZM516 219 L804 219 Q913 219 999 255 Q1085 291 1145.5 358 Q1206 425 1238.5 521.5 Q1271 618 1271 740 Q1271 862 1238.5 959 Q1206 1056 1145.5 1123 Q1085 1190 998.5 1226 Q912 1262 804 1262 L516 1262 L516 823 L886 823 L886 667 L516 667 L516 219 Z"/>
            <glyph glyph-name="Ntilde" unicode=""
                   d="M150 0 L150 1481 L294 1481 Q312 1481 324.5 1479.5 Q337 1478 346.5 1473 Q356 1468 365.5 1459.5 Q375 1451 386 1437 L1163 446 Q1159 482 1157.5 516.5 Q1156 551 1156 581 L1156 1481 L1399 1481 L1399 0 L1256 0 Q1223 0 1202 10 Q1181 20 1160 47 L386 1033 Q389 1000 390.5 968 Q392 936 392 909 L392 0 L150 0 ZM478 1581 Q478 1631 491.5 1673.5 Q505 1716 530.5 1747 Q556 1778 592 1794.5 Q628 1811 673 1811 Q710 1811 744.5 1800 Q779 1789 810.5 1775.5 Q842 1762 868.5 1751 Q895 1740 917 1740 Q945 1740 961.5 1756 Q978 1772 979 1804 L1116 1804 Q1116 1753 1103 1711 Q1090 1669 1065.5 1639.5 Q1041 1610 1005 1593 Q969 1576 923 1576 Q886 1576 851.5 1587 Q817 1598 786 1611.5 Q755 1625 728 1636.5 Q701 1648 679 1648 Q651 1648 635 1631 Q619 1614 618 1581 L478 1581 Z"/>
            <glyph glyph-name="Ograve" unicode=""
                   d="M69 740 Q69 903 123 1042 Q177 1181 276 1282 Q375 1383 513.5 1440 Q652 1497 820 1497 Q988 1497 1126.5 1439.5 Q1265 1382 1363 1281.5 Q1461 1181 1515.5 1042 Q1570 903 1570 740 Q1570 577 1515.5 438.5 Q1461 300 1363 198.5 Q1265 97 1126.5 40.5 Q988 -16 820 -16 Q652 -16 513.5 40.5 Q375 97 276 198.5 Q177 300 123 439 Q69 578 69 740 ZM350 740 Q350 618 383 521.5 Q416 425 477 358 Q538 291 625 255 Q712 219 820 219 Q929 219 1015.5 255 Q1102 291 1162.5 358 Q1223 425 1255 521.5 Q1287 618 1287 740 Q1287 862 1255 959 Q1223 1056 1162.5 1123.5 Q1102 1191 1015.5 1227 Q929 1263 820 1263 Q711 1263 624.5 1227 Q538 1191 477 1123.5 Q416 1056 383 959 Q350 862 350 740 ZM395 1834 L676 1834 Q696 1834 710.5 1832.5 Q725 1831 736.5 1826.5 Q748 1822 758.5 1813.5 Q769 1805 781 1793 L983 1586 L783 1586 Q769 1586 758 1586.5 Q747 1587 738 1589.5 Q729 1592 719.5 1597.5 Q710 1603 699 1611 L395 1834 Z"/>
            <glyph glyph-name="Oacute" unicode=""
                   d="M69 740 Q69 903 123 1042 Q177 1181 276 1282 Q375 1383 513.5 1440 Q652 1497 820 1497 Q988 1497 1126.5 1439.5 Q1265 1382 1363 1281.5 Q1461 1181 1515.5 1042 Q1570 903 1570 740 Q1570 577 1515.5 438.5 Q1461 300 1363 198.5 Q1265 97 1126.5 40.5 Q988 -16 820 -16 Q652 -16 513.5 40.5 Q375 97 276 198.5 Q177 300 123 439 Q69 578 69 740 ZM350 740 Q350 618 383 521.5 Q416 425 477 358 Q538 291 625 255 Q712 219 820 219 Q929 219 1015.5 255 Q1102 291 1162.5 358 Q1223 425 1255 521.5 Q1287 618 1287 740 Q1287 862 1255 959 Q1223 1056 1162.5 1123.5 Q1102 1191 1015.5 1227 Q929 1263 820 1263 Q711 1263 624.5 1227 Q538 1191 477 1123.5 Q416 1056 383 959 Q350 862 350 740 ZM627 1586 L828 1793 Q840 1805 851 1813.5 Q862 1822 873.5 1826.5 Q885 1831 899 1832.5 Q913 1834 934 1834 L1215 1834 L912 1613 Q901 1605 891 1599.5 Q881 1594 871.5 1591 Q862 1588 851 1587 Q840 1586 826 1586 L627 1586 Z"/>
            <glyph glyph-name="Ocircumflex" unicode=""
                   d="M69 740 Q69 903 123 1042 Q177 1181 276 1282 Q375 1383 513.5 1440 Q652 1497 820 1497 Q988 1497 1126.5 1439.5 Q1265 1382 1363 1281.5 Q1461 1181 1515.5 1042 Q1570 903 1570 740 Q1570 577 1515.5 438.5 Q1461 300 1363 198.5 Q1265 97 1126.5 40.5 Q988 -16 820 -16 Q652 -16 513.5 40.5 Q375 97 276 198.5 Q177 300 123 439 Q69 578 69 740 ZM350 740 Q350 618 383 521.5 Q416 425 477 358 Q538 291 625 255 Q712 219 820 219 Q929 219 1015.5 255 Q1102 291 1162.5 358 Q1223 425 1255 521.5 Q1287 618 1287 740 Q1287 862 1255 959 Q1223 1056 1162.5 1123.5 Q1102 1191 1015.5 1227 Q929 1263 820 1263 Q711 1263 624.5 1227 Q538 1191 477 1123.5 Q416 1056 383 959 Q350 862 350 740 ZM449 1586 L697 1810 L949 1810 L1196 1586 L1005 1586 Q990 1586 971.5 1590 Q953 1594 941 1603 L838 1671 Q834 1673 830.5 1676 Q827 1679 823 1682 Q821 1680 816.5 1677 Q812 1674 807 1671 L704 1603 Q693 1595 674.5 1590.5 Q656 1586 640 1586 L449 1586 Z"/>
            <glyph glyph-name="Otilde" unicode=""
                   d="M69 740 Q69 903 123 1042 Q177 1181 276 1282 Q375 1383 513.5 1440 Q652 1497 820 1497 Q988 1497 1126.5 1439.5 Q1265 1382 1363 1281.5 Q1461 1181 1515.5 1042 Q1570 903 1570 740 Q1570 577 1515.5 438.5 Q1461 300 1363 198.5 Q1265 97 1126.5 40.5 Q988 -16 820 -16 Q652 -16 513.5 40.5 Q375 97 276 198.5 Q177 300 123 439 Q69 578 69 740 ZM350 740 Q350 618 383 521.5 Q416 425 477 358 Q538 291 625 255 Q712 219 820 219 Q929 219 1015.5 255 Q1102 291 1162.5 358 Q1223 425 1255 521.5 Q1287 618 1287 740 Q1287 862 1255 959 Q1223 1056 1162.5 1123.5 Q1102 1191 1015.5 1227 Q929 1263 820 1263 Q711 1263 624.5 1227 Q538 1191 477 1123.5 Q416 1056 383 959 Q350 862 350 740 ZM510 1581 Q510 1631 523.5 1673.5 Q537 1716 562.5 1747 Q588 1778 624 1794.5 Q660 1811 705 1811 Q742 1811 776.5 1800 Q811 1789 842.5 1775.5 Q874 1762 900.5 1751 Q927 1740 949 1740 Q977 1740 993.5 1756 Q1010 1772 1011 1804 L1148 1804 Q1148 1753 1135 1711 Q1122 1669 1097.5 1639.5 Q1073 1610 1037 1593 Q1001 1576 955 1576 Q918 1576 883.5 1587 Q849 1598 818 1611.5 Q787 1625 760 1636.5 Q733 1648 711 1648 Q683 1648 667 1631 Q651 1614 650 1581 L510 1581 Z"/>
            <glyph glyph-name="Odieresis" unicode=""
                   d="M69 740 Q69 903 123 1042 Q177 1181 276 1282 Q375 1383 513.5 1440 Q652 1497 820 1497 Q988 1497 1126.5 1439.5 Q1265 1382 1363 1281.5 Q1461 1181 1515.5 1042 Q1570 903 1570 740 Q1570 577 1515.5 438.5 Q1461 300 1363 198.5 Q1265 97 1126.5 40.5 Q988 -16 820 -16 Q652 -16 513.5 40.5 Q375 97 276 198.5 Q177 300 123 439 Q69 578 69 740 ZM350 740 Q350 618 383 521.5 Q416 425 477 358 Q538 291 625 255 Q712 219 820 219 Q929 219 1015.5 255 Q1102 291 1162.5 358 Q1223 425 1255 521.5 Q1287 618 1287 740 Q1287 862 1255 959 Q1223 1056 1162.5 1123.5 Q1102 1191 1015.5 1227 Q929 1263 820 1263 Q711 1263 624.5 1227 Q538 1191 477 1123.5 Q416 1056 383 959 Q350 862 350 740 ZM464 1707 Q464 1735 475 1760 Q486 1785 504.5 1804 Q523 1823 547 1834 Q571 1845 597 1845 Q626 1845 651.5 1834 Q677 1823 696.5 1804 Q716 1785 727.5 1760 Q739 1735 739 1707 Q739 1679 727.5 1654.5 Q716 1630 696.5 1611.5 Q677 1593 651.5 1583 Q626 1573 597 1573 Q570 1573 546.5 1583 Q523 1593 504.5 1611.5 Q486 1630 475 1654.5 Q464 1679 464 1707 ZM907 1707 Q907 1735 917.5 1760 Q928 1785 947 1804 Q966 1823 991 1834 Q1016 1845 1044 1845 Q1073 1845 1098 1834 Q1123 1823 1141.5 1804 Q1160 1785 1170.5 1760 Q1181 1735 1181 1707 Q1181 1679 1170.5 1654.5 Q1160 1630 1141.5 1611.5 Q1123 1593 1098 1583 Q1073 1573 1044 1573 Q1016 1573 991 1583 Q966 1593 947 1611.5 Q928 1630 917.5 1654.5 Q907 1679 907 1707 Z"/>
            <glyph glyph-name="Oslash" unicode=""
                   d="M69 740 Q69 903 123 1042 Q177 1181 276 1282 Q375 1383 513.5 1440 Q652 1497 820 1497 Q933 1497 1031.5 1471.5 Q1130 1446 1214 1397 L1275 1481 Q1288 1499 1299.5 1512.5 Q1311 1526 1323.5 1533.5 Q1336 1541 1351.5 1544.5 Q1367 1548 1390 1548 L1531 1548 L1348 1296 Q1454 1194 1512 1052 Q1570 910 1570 740 Q1570 577 1515.5 438.5 Q1461 300 1363 198.5 Q1265 97 1126.5 40.5 Q988 -16 820 -16 Q717 -16 626 5.5 Q535 27 455 68 L377 -40 Q347 -81 305.5 -97.5 Q264 -114 225 -114 L117 -114 L316 161 Q198 263 133.5 411.5 Q69 560 69 740 ZM350 740 Q350 622 380 529 Q410 436 467 369 L1070 1198 Q964 1263 820 1263 Q711 1263 624.5 1227 Q538 1191 477 1123.5 Q416 1056 383 959 Q350 862 350 740 ZM599 266 Q696 219 820 219 Q929 219 1015.5 255 Q1102 291 1162.5 358 Q1223 425 1255 521.5 Q1287 618 1287 740 Q1287 845 1263 931.5 Q1239 1018 1193 1083 L599 266 Z"/>
            <glyph glyph-name="Ugrave" unicode=""
                   d="M132 594 L132 1481 L408 1481 L408 595 Q408 510 431 441.5 Q454 373 497 324 Q540 275 602.5 248.5 Q665 222 745 222 Q825 222 888 248.5 Q951 275 994.5 323.5 Q1038 372 1061 440.5 Q1084 509 1084 594 L1084 1481 L1360 1481 L1360 594 Q1360 462 1317.5 350 Q1275 238 1195 156.5 Q1115 75 1001.5 29.5 Q888 -16 745 -16 Q603 -16 489.5 29.5 Q376 75 296.5 156.5 Q217 238 174.5 350 Q132 462 132 594 ZM319 1834 L600 1834 Q620 1834 634.5 1832.5 Q649 1831 660.5 1826.5 Q672 1822 682.5 1813.5 Q693 1805 705 1793 L907 1586 L707 1586 Q693 1586 682 1586.5 Q671 1587 662 1589.5 Q653 1592 643.5 1597.5 Q634 1603 623 1611 L319 1834 Z"/>
            <glyph glyph-name="Uacute" unicode=""
                   d="M132 594 L132 1481 L408 1481 L408 595 Q408 510 431 441.5 Q454 373 497 324 Q540 275 602.5 248.5 Q665 222 745 222 Q825 222 888 248.5 Q951 275 994.5 323.5 Q1038 372 1061 440.5 Q1084 509 1084 594 L1084 1481 L1360 1481 L1360 594 Q1360 462 1317.5 350 Q1275 238 1195 156.5 Q1115 75 1001.5 29.5 Q888 -16 745 -16 Q603 -16 489.5 29.5 Q376 75 296.5 156.5 Q217 238 174.5 350 Q132 462 132 594 ZM551 1586 L752 1793 Q764 1805 775 1813.5 Q786 1822 797.5 1826.5 Q809 1831 823 1832.5 Q837 1834 858 1834 L1139 1834 L836 1613 Q825 1605 815 1599.5 Q805 1594 795.5 1591 Q786 1588 775 1587 Q764 1586 750 1586 L551 1586 Z"/>
            <glyph glyph-name="Ucircumflex" unicode=""
                   d="M132 594 L132 1481 L408 1481 L408 595 Q408 510 431 441.5 Q454 373 497 324 Q540 275 602.5 248.5 Q665 222 745 222 Q825 222 888 248.5 Q951 275 994.5 323.5 Q1038 372 1061 440.5 Q1084 509 1084 594 L1084 1481 L1360 1481 L1360 594 Q1360 462 1317.5 350 Q1275 238 1195 156.5 Q1115 75 1001.5 29.5 Q888 -16 745 -16 Q603 -16 489.5 29.5 Q376 75 296.5 156.5 Q217 238 174.5 350 Q132 462 132 594 ZM372 1586 L620 1810 L872 1810 L1119 1586 L928 1586 Q913 1586 894.5 1590 Q876 1594 864 1603 L761 1671 Q757 1673 753.5 1676 Q750 1679 746 1682 Q744 1680 739.5 1677 Q735 1674 730 1671 L627 1603 Q616 1595 597.5 1590.5 Q579 1586 563 1586 L372 1586 Z"/>
            <glyph glyph-name="Udieresis" unicode=""
                   d="M132 594 L132 1481 L408 1481 L408 595 Q408 510 431 441.5 Q454 373 497 324 Q540 275 602.5 248.5 Q665 222 745 222 Q825 222 888 248.5 Q951 275 994.5 323.5 Q1038 372 1061 440.5 Q1084 509 1084 594 L1084 1481 L1360 1481 L1360 594 Q1360 462 1317.5 350 Q1275 238 1195 156.5 Q1115 75 1001.5 29.5 Q888 -16 745 -16 Q603 -16 489.5 29.5 Q376 75 296.5 156.5 Q217 238 174.5 350 Q132 462 132 594 ZM387 1707 Q387 1735 398 1760 Q409 1785 427.5 1804 Q446 1823 470 1834 Q494 1845 520 1845 Q549 1845 574.5 1834 Q600 1823 619.5 1804 Q639 1785 650.5 1760 Q662 1735 662 1707 Q662 1679 650.5 1654.5 Q639 1630 619.5 1611.5 Q600 1593 574.5 1583 Q549 1573 520 1573 Q493 1573 469.5 1583 Q446 1593 427.5 1611.5 Q409 1630 398 1654.5 Q387 1679 387 1707 ZM830 1707 Q830 1735 840.5 1760 Q851 1785 870 1804 Q889 1823 914 1834 Q939 1845 967 1845 Q996 1845 1021 1834 Q1046 1823 1064.5 1804 Q1083 1785 1093.5 1760 Q1104 1735 1104 1707 Q1104 1679 1093.5 1654.5 Q1083 1630 1064.5 1611.5 Q1046 1593 1021 1583 Q996 1573 967 1573 Q939 1573 914 1583 Q889 1593 870 1611.5 Q851 1630 840.5 1654.5 Q830 1679 830 1707 Z"/>
            <glyph glyph-name="Yacute" unicode=""
                   d="M-7 1481 L236 1481 Q272 1481 292.5 1463.5 Q313 1446 328 1419 L599 925 Q623 881 640 841.5 Q657 802 672 764 Q685 803 702 842.5 Q719 882 742 925 L1012 1419 Q1023 1442 1045.5 1461.5 Q1068 1481 1103 1481 L1347 1481 L808 575 L808 0 L532 0 L532 575 L-7 1481 ZM478 1586 L679 1793 Q691 1805 702 1813.5 Q713 1822 724.5 1826.5 Q736 1831 750 1832.5 Q764 1834 785 1834 L1066 1834 L763 1613 Q752 1605 742 1599.5 Q732 1594 722.5 1591 Q713 1588 702 1587 Q691 1586 677 1586 L478 1586 Z"/>
            <glyph glyph-name="Thorn" unicode=""
                   d="M159 0 L159 1481 L434 1481 L434 1227 L641 1227 Q789 1227 898 1192 Q1007 1157 1077.5 1094.5 Q1148 1032 1181.5 945 Q1215 858 1215 755 Q1215 647 1179.5 557.5 Q1144 468 1072 403.5 Q1000 339 892.5 303 Q785 267 641 267 L434 267 L434 0 L159 0 ZM434 482 L641 482 Q717 482 773 501 Q829 520 866 555.5 Q903 591 921.5 641.5 Q940 692 940 755 Q940 814 921.5 862 Q903 910 866 944 Q829 978 773 996 Q717 1014 641 1014 L434 1014 L434 482 Z"/>
            <glyph glyph-name="germandbls" unicode=""
                   d="M180 0 L180 1008 Q180 1117 217.5 1207.5 Q255 1298 324 1365 Q393 1432 492.5 1469 Q592 1506 717 1506 Q837 1506 922 1471.5 Q1007 1437 1060 1384.5 Q1113 1332 1137.5 1271.5 Q1162 1211 1162 1159 Q1162 1100 1142 1058 Q1122 1016 1092 984 Q1062 952 1027 928.5 Q992 905 962 883.5 Q932 862 912 839 Q892 816 892 786 Q892 752 917.5 727.5 Q943 703 981 679.5 Q1019 656 1064 629.5 Q1109 603 1147 564.5 Q1185 526 1210.5 472 Q1236 418 1236 339 Q1236 252 1203.5 186 Q1171 120 1116 75 Q1061 30 987.5 7 Q914 -16 833 -16 Q786 -16 739.5 -6.5 Q693 3 650.5 20.5 Q608 38 570 61.5 Q532 85 502 113 L561 209 Q571 226 586.5 235.5 Q602 245 626 245 Q650 245 671 231.5 Q692 218 717.5 202.5 Q743 187 776 174 Q809 161 855 161 Q920 161 959.5 199.5 Q999 238 999 299 Q999 347 971.5 379 Q944 411 902.5 436 Q861 461 813 485 Q765 509 723.5 541 Q682 573 654.5 619.5 Q627 666 627 736 Q627 794 648.5 836.5 Q670 879 702 911.5 Q734 944 772 970 Q810 996 842 1024 Q874 1052 896 1083.5 Q918 1115 918 1158 Q918 1192 906 1222 Q894 1252 868.5 1274 Q843 1296 802.5 1309.5 Q762 1323 706 1323 Q572 1323 502.5 1240.5 Q433 1158 433 999 L433 0 L180 0 Z"/>
            <glyph glyph-name="agrave" unicode=""
                   d="M83 268 Q83 327 114 385 Q145 443 218 490 Q291 537 411.5 567.5 Q532 598 712 602 L712 664 Q712 769 667.5 819.5 Q623 870 538 870 Q477 870 435.5 856 Q394 842 364 824 Q334 806 308.5 791.5 Q283 777 252 777 Q226 777 207.5 790.5 Q189 804 178 823 L132 904 Q313 1070 569 1070 Q661 1070 733.5 1040 Q806 1010 856 956 Q906 902 932 827.5 Q958 753 958 664 L958 0 L845 0 Q809 0 788.5 11 Q768 22 758 54 L735 129 Q695 93 656.5 66 Q618 39 577.5 20.5 Q537 2 490.5 -7 Q444 -16 388 -16 Q321 -16 265 1.5 Q209 19 168.5 55 Q128 91 105.5 144.5 Q83 198 83 268 ZM231 1497 L468 1497 Q510 1497 529.5 1483 Q549 1469 565 1443 L711 1194 L567 1194 Q538 1194 520 1201.5 Q502 1209 484 1230 L231 1497 ZM325 282 Q325 215 364.5 186.5 Q404 158 467 158 Q506 158 538.5 165 Q571 172 600.5 186.5 Q630 201 657 222 Q684 243 712 271 L712 449 Q601 444 527 430 Q453 416 407.5 394.5 Q362 373 343.5 344 Q325 315 325 282 Z"/>
            <glyph glyph-name="aacute" unicode=""
                   d="M83 268 Q83 327 114 385 Q145 443 218 490 Q291 537 411.5 567.5 Q532 598 712 602 L712 664 Q712 769 667.5 819.5 Q623 870 538 870 Q477 870 435.5 856 Q394 842 364 824 Q334 806 308.5 791.5 Q283 777 252 777 Q226 777 207.5 790.5 Q189 804 178 823 L132 904 Q313 1070 569 1070 Q661 1070 733.5 1040 Q806 1010 856 956 Q906 902 932 827.5 Q958 753 958 664 L958 0 L845 0 Q809 0 788.5 11 Q768 22 758 54 L735 129 Q695 93 656.5 66 Q618 39 577.5 20.5 Q537 2 490.5 -7 Q444 -16 388 -16 Q321 -16 265 1.5 Q209 19 168.5 55 Q128 91 105.5 144.5 Q83 198 83 268 ZM325 282 Q325 215 364.5 186.5 Q404 158 467 158 Q506 158 538.5 165 Q571 172 600.5 186.5 Q630 201 657 222 Q684 243 712 271 L712 449 Q601 444 527 430 Q453 416 407.5 394.5 Q362 373 343.5 344 Q325 315 325 282 ZM425 1194 L570 1443 Q585 1470 605.5 1483.5 Q626 1497 667 1497 L913 1497 L660 1230 Q641 1210 623 1202 Q605 1194 576 1194 L425 1194 Z"/>
            <glyph glyph-name="acircumflex" unicode=""
                   d="M83 268 Q83 327 114 385 Q145 443 218 490 Q291 537 411.5 567.5 Q532 598 712 602 L712 664 Q712 769 667.5 819.5 Q623 870 538 870 Q477 870 435.5 856 Q394 842 364 824 Q334 806 308.5 791.5 Q283 777 252 777 Q226 777 207.5 790.5 Q189 804 178 823 L132 904 Q313 1070 569 1070 Q661 1070 733.5 1040 Q806 1010 856 956 Q906 902 932 827.5 Q958 753 958 664 L958 0 L845 0 Q809 0 788.5 11 Q768 22 758 54 L735 129 Q695 93 656.5 66 Q618 39 577.5 20.5 Q537 2 490.5 -7 Q444 -16 388 -16 Q321 -16 265 1.5 Q209 19 168.5 55 Q128 91 105.5 144.5 Q83 198 83 268 ZM205 1196 L440 1481 L677 1481 L912 1196 L743 1196 Q711 1196 692 1214 L584 1312 Q579 1317 573.5 1322 Q568 1327 563 1334 Q558 1327 552 1322 Q546 1317 541 1312 L432 1214 Q424 1207 410 1201.5 Q396 1196 380 1196 L205 1196 ZM325 282 Q325 215 364.5 186.5 Q404 158 467 158 Q506 158 538.5 165 Q571 172 600.5 186.5 Q630 201 657 222 Q684 243 712 271 L712 449 Q601 444 527 430 Q453 416 407.5 394.5 Q362 373 343.5 344 Q325 315 325 282 Z"/>
            <glyph glyph-name="atilde" unicode=""
                   d="M83 268 Q83 327 114 385 Q145 443 218 490 Q291 537 411.5 567.5 Q532 598 712 602 L712 664 Q712 769 667.5 819.5 Q623 870 538 870 Q477 870 435.5 856 Q394 842 364 824 Q334 806 308.5 791.5 Q283 777 252 777 Q226 777 207.5 790.5 Q189 804 178 823 L132 904 Q313 1070 569 1070 Q661 1070 733.5 1040 Q806 1010 856 956 Q906 902 932 827.5 Q958 753 958 664 L958 0 L845 0 Q809 0 788.5 11 Q768 22 758 54 L735 129 Q695 93 656.5 66 Q618 39 577.5 20.5 Q537 2 490.5 -7 Q444 -16 388 -16 Q321 -16 265 1.5 Q209 19 168.5 55 Q128 91 105.5 144.5 Q83 198 83 268 ZM233 1222 Q233 1279 249 1325.5 Q265 1372 293.5 1405.5 Q322 1439 360.5 1457.5 Q399 1476 444 1476 Q481 1476 513 1462.5 Q545 1449 573 1433.5 Q601 1418 624.5 1405 Q648 1392 668 1392 Q699 1392 716.5 1408.5 Q734 1425 734 1469 L887 1469 Q887 1412 871.5 1365.5 Q856 1319 828 1285.5 Q800 1252 762 1234.5 Q724 1217 677 1217 Q640 1217 608.5 1230 Q577 1243 549.5 1258.5 Q522 1274 498 1287 Q474 1300 453 1300 Q423 1300 406.5 1282.5 Q390 1265 390 1222 L233 1222 ZM325 282 Q325 215 364.5 186.5 Q404 158 467 158 Q506 158 538.5 165 Q571 172 600.5 186.5 Q630 201 657 222 Q684 243 712 271 L712 449 Q601 444 527 430 Q453 416 407.5 394.5 Q362 373 343.5 344 Q325 315 325 282 Z"/>
            <glyph glyph-name="adieresis" unicode=""
                   d="M83 268 Q83 327 114 385 Q145 443 218 490 Q291 537 411.5 567.5 Q532 598 712 602 L712 664 Q712 769 667.5 819.5 Q623 870 538 870 Q477 870 435.5 856 Q394 842 364 824 Q334 806 308.5 791.5 Q283 777 252 777 Q226 777 207.5 790.5 Q189 804 178 823 L132 904 Q313 1070 569 1070 Q661 1070 733.5 1040 Q806 1010 856 956 Q906 902 932 827.5 Q958 753 958 664 L958 0 L845 0 Q809 0 788.5 11 Q768 22 758 54 L735 129 Q695 93 656.5 66 Q618 39 577.5 20.5 Q537 2 490.5 -7 Q444 -16 388 -16 Q321 -16 265 1.5 Q209 19 168.5 55 Q128 91 105.5 144.5 Q83 198 83 268 ZM226 1323 Q226 1353 237 1379 Q248 1405 267.5 1424.5 Q287 1444 312 1455 Q337 1466 365 1466 Q394 1466 420 1455 Q446 1444 466 1424.5 Q486 1405 497 1379 Q508 1353 508 1323 Q508 1294 497 1269 Q486 1244 466 1225.5 Q446 1207 420 1196.5 Q394 1186 365 1186 Q337 1186 312 1196.5 Q287 1207 267.5 1225.5 Q248 1244 237 1269 Q226 1294 226 1323 ZM325 282 Q325 215 364.5 186.5 Q404 158 467 158 Q506 158 538.5 165 Q571 172 600.5 186.5 Q630 201 657 222 Q684 243 712 271 L712 449 Q601 444 527 430 Q453 416 407.5 394.5 Q362 373 343.5 344 Q325 315 325 282 ZM609 1323 Q609 1353 620 1379 Q631 1405 650 1424.5 Q669 1444 694.5 1455 Q720 1466 749 1466 Q778 1466 804 1455 Q830 1444 849.5 1424.5 Q869 1405 880 1379 Q891 1353 891 1323 Q891 1294 880 1269 Q869 1244 849.5 1225.5 Q830 1207 804 1196.5 Q778 1186 749 1186 Q720 1186 694.5 1196.5 Q669 1207 650 1225.5 Q631 1244 620 1269 Q609 1294 609 1323 Z"/>
            <glyph glyph-name="aring" unicode=""
                   d="M83 268 Q83 327 114 385 Q145 443 218 490 Q291 537 411.5 567.5 Q532 598 712 602 L712 664 Q712 769 667.5 819.5 Q623 870 538 870 Q477 870 435.5 856 Q394 842 364 824 Q334 806 308.5 791.5 Q283 777 252 777 Q226 777 207.5 790.5 Q189 804 178 823 L132 904 Q313 1070 569 1070 Q661 1070 733.5 1040 Q806 1010 856 956 Q906 902 932 827.5 Q958 753 958 664 L958 0 L845 0 Q809 0 788.5 11 Q768 22 758 54 L735 129 Q695 93 656.5 66 Q618 39 577.5 20.5 Q537 2 490.5 -7 Q444 -16 388 -16 Q321 -16 265 1.5 Q209 19 168.5 55 Q128 91 105.5 144.5 Q83 198 83 268 ZM325 282 Q325 215 364.5 186.5 Q404 158 467 158 Q506 158 538.5 165 Q571 172 600.5 186.5 Q630 201 657 222 Q684 243 712 271 L712 449 Q601 444 527 430 Q453 416 407.5 394.5 Q362 373 343.5 344 Q325 315 325 282 ZM331 1357 Q331 1404 349.5 1443 Q368 1482 399.5 1509.5 Q431 1537 472 1552.5 Q513 1568 558 1568 Q604 1568 646 1552.5 Q688 1537 719.5 1509.5 Q751 1482 770 1443 Q789 1404 789 1357 Q789 1311 770 1273 Q751 1235 719.5 1208 Q688 1181 646 1166 Q604 1151 558 1151 Q513 1151 472 1166 Q431 1181 399.5 1208 Q368 1235 349.5 1273 Q331 1311 331 1357 ZM469 1357 Q469 1318 493 1292 Q517 1266 562 1266 Q603 1266 627.5 1292 Q652 1318 652 1357 Q652 1400 627.5 1425 Q603 1450 562 1450 Q517 1450 493 1425 Q469 1400 469 1357 Z"/>
            <glyph glyph-name="ae" unicode=""
                   d="M83 282 Q83 341 114 401 Q145 461 218 510 Q291 559 411.5 591.5 Q532 624 712 628 L712 664 Q712 769 667.5 823.5 Q623 878 538 878 Q477 878 435.5 862 Q394 846 364 827.5 Q334 809 308.5 793 Q283 777 252 777 Q226 777 207.5 790.5 Q189 804 178 823 L132 904 Q223 987 322 1028.5 Q421 1070 542 1070 Q661 1070 736.5 1025 Q812 980 852 901 Q910 978 997 1022.5 Q1084 1067 1202 1067 Q1291 1067 1368 1032.5 Q1445 998 1500.5 933.5 Q1556 869 1588 777 Q1620 685 1620 570 Q1620 541 1617.5 522.5 Q1615 504 1609 493 Q1603 482 1592 477.5 Q1581 473 1564 473 L951 473 Q965 322 1036.5 251 Q1108 180 1221 180 Q1291 180 1334 193.5 Q1377 207 1406 223.5 Q1435 240 1454.5 253 Q1474 266 1495 266 Q1513 266 1525.5 260 Q1538 254 1546 243 L1614 157 Q1572 108 1521.5 74.5 Q1471 41 1416.5 21 Q1362 1 1305.5 -7 Q1249 -15 1196 -15 Q1084 -15 987.5 35 Q891 85 828 191 Q797 136 752.5 97 Q708 58 653.5 32.5 Q599 7 537.5 -4.5 Q476 -16 414 -16 Q337 -16 276 3.5 Q215 23 172 60 Q129 97 106 153 Q83 209 83 282 ZM325 294 Q325 223 364.5 190.5 Q404 158 474 158 Q524 158 567.5 173 Q611 188 643 220.5 Q675 253 693.5 304 Q712 355 712 426 L712 473 Q601 468 527 452 Q453 436 407.5 412.5 Q362 389 343.5 358.5 Q325 328 325 294 ZM952 626 L1396 626 Q1396 676 1383.5 723 Q1371 770 1346 806.5 Q1321 843 1282 864.5 Q1243 886 1191 886 Q1083 886 1024.5 818 Q966 750 952 626 Z"/>
            <glyph glyph-name="ccedilla" unicode=""
                   d="M65 527 Q65 643 98 742 Q131 841 195.5 913 Q260 985 355.5 1026 Q451 1067 574 1067 Q692 1067 780.5 1029 Q869 991 940 921 L873 828 Q862 814 851.5 806 Q841 798 820 798 Q801 798 782.5 809.5 Q764 821 738.5 836 Q713 851 677.5 862.5 Q642 874 590 874 Q523 874 473 850 Q423 826 389.5 781 Q356 736 340 672 Q324 608 324 527 Q324 443 341.5 377.5 Q359 312 393 267.5 Q427 223 475 200 Q523 177 584 177 Q644 177 681.5 192 Q719 207 744.5 225 Q770 243 789 257.5 Q808 272 831 272 Q859 272 878 249 L950 157 Q879 74 791 35.5 Q703 -3 609 -11 L597 -56 Q688 -79 725 -117.5 Q762 -156 762 -208 Q762 -242 744 -269.5 Q726 -297 693 -316.5 Q660 -336 614 -346.5 Q568 -357 513 -357 Q471 -357 434.5 -351 Q398 -345 362 -334 L386 -256 Q392 -232 415 -232 Q422 -232 429.5 -234.5 Q437 -237 447 -240 Q457 -243 468.5 -245 Q480 -247 497 -247 Q531 -247 547.5 -234 Q564 -221 564 -203 Q564 -173 527 -160 Q490 -147 414 -137 L453 -8 Q371 6 299.5 48.5 Q228 91 176 159 Q124 227 94.5 320 Q65 413 65 527 Z"/>
            <glyph glyph-name="egrave" unicode=""
                   d="M65 548 Q65 656 99.5 750.5 Q134 845 199 915 Q264 985 357.5 1026 Q451 1067 569 1067 Q668 1067 752 1035.5 Q836 1004 896 943 Q956 882 990 793.5 Q1024 705 1024 591 Q1024 562 1021.5 543 Q1019 524 1012.5 513.5 Q1006 503 994.5 498.5 Q983 494 966 494 L316 494 Q327 332 403 256 Q479 180 604 180 Q665 180 710 194.5 Q755 209 788 226.5 Q821 244 846 258 Q871 272 895 272 Q910 272 921.5 266 Q933 260 941 249 L1015 157 Q973 108 920.5 74.5 Q868 41 811.5 21 Q755 1 696 -7 Q637 -15 582 -15 Q472 -15 378 21 Q284 57 214 128.5 Q144 200 104.5 305 Q65 410 65 548 ZM248 1497 L485 1497 Q527 1497 546.5 1483 Q566 1469 582 1443 L728 1194 L584 1194 Q555 1194 537 1201.5 Q519 1209 501 1230 L248 1497 ZM322 646 L797 646 Q797 695 783.5 738.5 Q770 782 742.5 815 Q715 848 672.5 867 Q630 886 574 886 Q463 886 401 823.5 Q339 761 322 646 Z"/>
            <glyph glyph-name="eacute" unicode=""
                   d="M65 548 Q65 656 99.5 750.5 Q134 845 199 915 Q264 985 357.5 1026 Q451 1067 569 1067 Q668 1067 752 1035.5 Q836 1004 896 943 Q956 882 990 793.5 Q1024 705 1024 591 Q1024 562 1021.5 543 Q1019 524 1012.5 513.5 Q1006 503 994.5 498.5 Q983 494 966 494 L316 494 Q327 332 403 256 Q479 180 604 180 Q665 180 710 194.5 Q755 209 788 226.5 Q821 244 846 258 Q871 272 895 272 Q910 272 921.5 266 Q933 260 941 249 L1015 157 Q973 108 920.5 74.5 Q868 41 811.5 21 Q755 1 696 -7 Q637 -15 582 -15 Q472 -15 378 21 Q284 57 214 128.5 Q144 200 104.5 305 Q65 410 65 548 ZM322 646 L797 646 Q797 695 783.5 738.5 Q770 782 742.5 815 Q715 848 672.5 867 Q630 886 574 886 Q463 886 401 823.5 Q339 761 322 646 ZM442 1194 L587 1443 Q602 1470 622.5 1483.5 Q643 1497 684 1497 L930 1497 L677 1230 Q658 1210 640 1202 Q622 1194 593 1194 L442 1194 Z"/>
            <glyph glyph-name="ecircumflex" unicode=""
                   d="M65 548 Q65 656 99.5 750.5 Q134 845 199 915 Q264 985 357.5 1026 Q451 1067 569 1067 Q668 1067 752 1035.5 Q836 1004 896 943 Q956 882 990 793.5 Q1024 705 1024 591 Q1024 562 1021.5 543 Q1019 524 1012.5 513.5 Q1006 503 994.5 498.5 Q983 494 966 494 L316 494 Q327 332 403 256 Q479 180 604 180 Q665 180 710 194.5 Q755 209 788 226.5 Q821 244 846 258 Q871 272 895 272 Q910 272 921.5 266 Q933 260 941 249 L1015 157 Q973 108 920.5 74.5 Q868 41 811.5 21 Q755 1 696 -7 Q637 -15 582 -15 Q472 -15 378 21 Q284 57 214 128.5 Q144 200 104.5 305 Q65 410 65 548 ZM222 1196 L457 1481 L694 1481 L929 1196 L760 1196 Q728 1196 709 1214 L601 1312 Q596 1317 590.5 1322 Q585 1327 580 1334 Q575 1327 569 1322 Q563 1317 558 1312 L449 1214 Q441 1207 427 1201.5 Q413 1196 397 1196 L222 1196 ZM322 646 L797 646 Q797 695 783.5 738.5 Q770 782 742.5 815 Q715 848 672.5 867 Q630 886 574 886 Q463 886 401 823.5 Q339 761 322 646 Z"/>
            <glyph glyph-name="edieresis" unicode=""
                   d="M65 548 Q65 656 99.5 750.5 Q134 845 199 915 Q264 985 357.5 1026 Q451 1067 569 1067 Q668 1067 752 1035.5 Q836 1004 896 943 Q956 882 990 793.5 Q1024 705 1024 591 Q1024 562 1021.5 543 Q1019 524 1012.5 513.5 Q1006 503 994.5 498.5 Q983 494 966 494 L316 494 Q327 332 403 256 Q479 180 604 180 Q665 180 710 194.5 Q755 209 788 226.5 Q821 244 846 258 Q871 272 895 272 Q910 272 921.5 266 Q933 260 941 249 L1015 157 Q973 108 920.5 74.5 Q868 41 811.5 21 Q755 1 696 -7 Q637 -15 582 -15 Q472 -15 378 21 Q284 57 214 128.5 Q144 200 104.5 305 Q65 410 65 548 ZM243 1323 Q243 1353 254 1379 Q265 1405 284.5 1424.5 Q304 1444 329 1455 Q354 1466 382 1466 Q411 1466 437 1455 Q463 1444 483 1424.5 Q503 1405 514 1379 Q525 1353 525 1323 Q525 1294 514 1269 Q503 1244 483 1225.5 Q463 1207 437 1196.5 Q411 1186 382 1186 Q354 1186 329 1196.5 Q304 1207 284.5 1225.5 Q265 1244 254 1269 Q243 1294 243 1323 ZM322 646 L797 646 Q797 695 783.5 738.5 Q770 782 742.5 815 Q715 848 672.5 867 Q630 886 574 886 Q463 886 401 823.5 Q339 761 322 646 ZM626 1323 Q626 1353 637 1379 Q648 1405 667 1424.5 Q686 1444 711.5 1455 Q737 1466 766 1466 Q795 1466 821 1455 Q847 1444 866.5 1424.5 Q886 1405 897 1379 Q908 1353 908 1323 Q908 1294 897 1269 Q886 1244 866.5 1225.5 Q847 1207 821 1196.5 Q795 1186 766 1186 Q737 1186 711.5 1196.5 Q686 1207 667 1225.5 Q648 1244 637 1269 Q626 1294 626 1323 Z"/>
            <glyph glyph-name="igrave" unicode=""
                   d="M-42 1497 L195 1497 Q237 1497 256.5 1483 Q276 1469 292 1443 L438 1194 L294 1194 Q265 1194 247 1201.5 Q229 1209 211 1230 L-42 1497 ZM152 0 L152 1051 L404 1051 L404 0 L152 0 Z"/>
            <glyph glyph-name="iacute" unicode=""
                   d="M152 0 L152 1051 L404 1051 L404 0 L152 0 ZM152 1194 L297 1443 Q312 1470 332.5 1483.5 Q353 1497 394 1497 L640 1497 L387 1230 Q368 1210 350 1202 Q332 1194 303 1194 L152 1194 Z"/>
            <glyph glyph-name="icircumflex" unicode=""
                   d="M-68 1196 L167 1481 L404 1481 L639 1196 L470 1196 Q438 1196 419 1214 L311 1312 Q306 1317 300.5 1322 Q295 1327 290 1334 Q285 1327 279 1322 Q273 1317 268 1312 L159 1214 Q151 1207 137 1201.5 Q123 1196 107 1196 L-68 1196 ZM152 0 L152 1051 L404 1051 L404 0 L152 0 Z"/>
            <glyph glyph-name="idieresis" unicode=""
                   d="M-47 1323 Q-47 1353 -36 1379 Q-25 1405 -5.5 1424.5 Q14 1444 39 1455 Q64 1466 92 1466 Q121 1466 147 1455 Q173 1444 193 1424.5 Q213 1405 224 1379 Q235 1353 235 1323 Q235 1294 224 1269 Q213 1244 193 1225.5 Q173 1207 147 1196.5 Q121 1186 92 1186 Q64 1186 39 1196.5 Q14 1207 -5.5 1225.5 Q-25 1244 -36 1269 Q-47 1294 -47 1323 ZM152 0 L152 1051 L404 1051 L404 0 L152 0 ZM336 1323 Q336 1353 347 1379 Q358 1405 377 1424.5 Q396 1444 421.5 1455 Q447 1466 476 1466 Q505 1466 531 1455 Q557 1444 576.5 1424.5 Q596 1405 607 1379 Q618 1353 618 1323 Q618 1294 607 1269 Q596 1244 576.5 1225.5 Q557 1207 531 1196.5 Q505 1186 476 1186 Q447 1186 421.5 1196.5 Q396 1207 377 1225.5 Q358 1244 347 1269 Q336 1294 336 1323 Z"/>
            <glyph glyph-name="eth" unicode=""
                   d="M68 485 Q68 579 101 664.5 Q134 750 195 814 Q256 878 342 915.5 Q428 953 535 953 Q632 953 713 918 Q794 883 856 815 Q834 924 783 1002 Q732 1080 645 1139 L442 1008 L395 1087 Q385 1103 385 1121 Q385 1152 418 1170 L495 1214 Q462 1227 425.5 1238.5 Q389 1250 349 1262 Q323 1269 306.5 1287.5 Q290 1306 290 1336 Q290 1352 298 1379 L328 1466 Q431 1449 527 1417 Q623 1385 708 1335 L888 1452 L938 1370 Q948 1353 948 1338 Q948 1324 940.5 1311.5 Q933 1299 919 1291 L836 1244 Q894 1192 941 1128 Q988 1064 1022 987 Q1056 910 1074 819 Q1092 728 1092 623 Q1092 472 1057.5 354 Q1023 236 956.5 153.5 Q890 71 791.5 28 Q693 -15 566 -15 Q460 -15 369 19 Q278 53 211 117.5 Q144 182 106 275 Q68 368 68 485 ZM318 483 Q318 408 338 351.5 Q358 295 392.5 256 Q427 217 473 197 Q519 177 572 177 Q631 177 681.5 198.5 Q732 220 769 267.5 Q806 315 828 391 Q850 467 853 575 Q838 613 814 647 Q790 681 757 706 Q724 731 681.5 746 Q639 761 586 761 Q520 761 470.5 739.5 Q421 718 387 680 Q353 642 335.5 592 Q318 542 318 483 Z"/>
            <glyph glyph-name="ntilde" unicode=""
                   d="M135 0 L135 1051 L290 1051 Q339 1051 354 1005 L372 922 Q404 955 439 981.5 Q474 1008 513.5 1027.5 Q553 1047 598 1057 Q643 1067 696 1067 Q782 1067 848.5 1038 Q915 1009 960 956 Q1005 903 1028 830 Q1051 757 1051 669 L1051 0 L798 0 L798 669 Q798 765 753.5 817.5 Q709 870 620 870 Q554 870 496.5 840.5 Q439 811 388 760 L388 0 L135 0 ZM266 1222 Q266 1279 282 1325.5 Q298 1372 326.5 1405.5 Q355 1439 393.5 1457.5 Q432 1476 477 1476 Q514 1476 546 1462.5 Q578 1449 606 1433.5 Q634 1418 657.5 1405 Q681 1392 701 1392 Q732 1392 749.5 1408.5 Q767 1425 767 1469 L920 1469 Q920 1412 904.5 1365.5 Q889 1319 861 1285.5 Q833 1252 795 1234.5 Q757 1217 710 1217 Q673 1217 641.5 1230 Q610 1243 582.5 1258.5 Q555 1274 531 1287 Q507 1300 486 1300 Q456 1300 439.5 1282.5 Q423 1265 423 1222 L266 1222 Z"/>
            <glyph glyph-name="ograve" unicode=""
                   d="M62 527 Q62 651 99.5 751.5 Q137 852 205 921.5 Q273 991 369.5 1029 Q466 1067 584 1067 Q702 1067 797.5 1029 Q893 991 960.5 921.5 Q1028 852 1065 751.5 Q1102 651 1102 527 Q1102 402 1065 302 Q1028 202 960.5 131 Q893 60 797 22.5 Q701 -15 584 -15 Q466 -15 369.5 22.5 Q273 60 205 131 Q137 202 99.5 302 Q62 402 62 527 ZM257 1497 L494 1497 Q536 1497 555.5 1483 Q575 1469 591 1443 L737 1194 L593 1194 Q564 1194 546 1201.5 Q528 1209 510 1230 L257 1497 ZM324 525 Q324 356 387.5 267.5 Q451 179 584 179 Q715 179 778 267 Q841 355 841 525 Q841 695 778 784 Q715 873 584 873 Q451 873 387.5 783.5 Q324 694 324 525 Z"/>
            <glyph glyph-name="oacute" unicode=""
                   d="M62 527 Q62 651 99.5 751.5 Q137 852 205 921.5 Q273 991 369.5 1029 Q466 1067 584 1067 Q702 1067 797.5 1029 Q893 991 960.5 921.5 Q1028 852 1065 751.5 Q1102 651 1102 527 Q1102 402 1065 302 Q1028 202 960.5 131 Q893 60 797 22.5 Q701 -15 584 -15 Q466 -15 369.5 22.5 Q273 60 205 131 Q137 202 99.5 302 Q62 402 62 527 ZM324 525 Q324 356 387.5 267.5 Q451 179 584 179 Q715 179 778 267 Q841 355 841 525 Q841 695 778 784 Q715 873 584 873 Q451 873 387.5 783.5 Q324 694 324 525 ZM451 1194 L596 1443 Q611 1470 631.5 1483.5 Q652 1497 693 1497 L939 1497 L686 1230 Q667 1210 649 1202 Q631 1194 602 1194 L451 1194 Z"/>
            <glyph glyph-name="ocircumflex" unicode=""
                   d="M62 527 Q62 651 99.5 751.5 Q137 852 205 921.5 Q273 991 369.5 1029 Q466 1067 584 1067 Q702 1067 797.5 1029 Q893 991 960.5 921.5 Q1028 852 1065 751.5 Q1102 651 1102 527 Q1102 402 1065 302 Q1028 202 960.5 131 Q893 60 797 22.5 Q701 -15 584 -15 Q466 -15 369.5 22.5 Q273 60 205 131 Q137 202 99.5 302 Q62 402 62 527 ZM231 1196 L466 1481 L703 1481 L938 1196 L769 1196 Q737 1196 718 1214 L610 1312 Q605 1317 599.5 1322 Q594 1327 589 1334 Q584 1327 578 1322 Q572 1317 567 1312 L458 1214 Q450 1207 436 1201.5 Q422 1196 406 1196 L231 1196 ZM324 525 Q324 356 387.5 267.5 Q451 179 584 179 Q715 179 778 267 Q841 355 841 525 Q841 695 778 784 Q715 873 584 873 Q451 873 387.5 783.5 Q324 694 324 525 Z"/>
            <glyph glyph-name="otilde" unicode=""
                   d="M62 527 Q62 651 99.5 751.5 Q137 852 205 921.5 Q273 991 369.5 1029 Q466 1067 584 1067 Q702 1067 797.5 1029 Q893 991 960.5 921.5 Q1028 852 1065 751.5 Q1102 651 1102 527 Q1102 402 1065 302 Q1028 202 960.5 131 Q893 60 797 22.5 Q701 -15 584 -15 Q466 -15 369.5 22.5 Q273 60 205 131 Q137 202 99.5 302 Q62 402 62 527 ZM259 1222 Q259 1279 275 1325.5 Q291 1372 319.5 1405.5 Q348 1439 386.5 1457.5 Q425 1476 470 1476 Q507 1476 539 1462.5 Q571 1449 599 1433.5 Q627 1418 650.5 1405 Q674 1392 694 1392 Q725 1392 742.5 1408.5 Q760 1425 760 1469 L913 1469 Q913 1412 897.5 1365.5 Q882 1319 854 1285.5 Q826 1252 788 1234.5 Q750 1217 703 1217 Q666 1217 634.5 1230 Q603 1243 575.5 1258.5 Q548 1274 524 1287 Q500 1300 479 1300 Q449 1300 432.5 1282.5 Q416 1265 416 1222 L259 1222 ZM324 525 Q324 356 387.5 267.5 Q451 179 584 179 Q715 179 778 267 Q841 355 841 525 Q841 695 778 784 Q715 873 584 873 Q451 873 387.5 783.5 Q324 694 324 525 Z"/>
            <glyph glyph-name="odieresis" unicode=""
                   d="M62 527 Q62 651 99.5 751.5 Q137 852 205 921.5 Q273 991 369.5 1029 Q466 1067 584 1067 Q702 1067 797.5 1029 Q893 991 960.5 921.5 Q1028 852 1065 751.5 Q1102 651 1102 527 Q1102 402 1065 302 Q1028 202 960.5 131 Q893 60 797 22.5 Q701 -15 584 -15 Q466 -15 369.5 22.5 Q273 60 205 131 Q137 202 99.5 302 Q62 402 62 527 ZM252 1323 Q252 1353 263 1379 Q274 1405 293.5 1424.5 Q313 1444 338 1455 Q363 1466 391 1466 Q420 1466 446 1455 Q472 1444 492 1424.5 Q512 1405 523 1379 Q534 1353 534 1323 Q534 1294 523 1269 Q512 1244 492 1225.5 Q472 1207 446 1196.5 Q420 1186 391 1186 Q363 1186 338 1196.5 Q313 1207 293.5 1225.5 Q274 1244 263 1269 Q252 1294 252 1323 ZM324 525 Q324 356 387.5 267.5 Q451 179 584 179 Q715 179 778 267 Q841 355 841 525 Q841 695 778 784 Q715 873 584 873 Q451 873 387.5 783.5 Q324 694 324 525 ZM635 1323 Q635 1353 646 1379 Q657 1405 676 1424.5 Q695 1444 720.5 1455 Q746 1466 775 1466 Q804 1466 830 1455 Q856 1444 875.5 1424.5 Q895 1405 906 1379 Q917 1353 917 1323 Q917 1294 906 1269 Q895 1244 875.5 1225.5 Q856 1207 830 1196.5 Q804 1186 775 1186 Q746 1186 720.5 1196.5 Q695 1207 676 1225.5 Q657 1244 646 1269 Q635 1294 635 1323 Z"/>
            <glyph glyph-name="divide" unicode=""
                   d="M93 594 L93 781 L1093 781 L1093 594 L93 594 ZM437 323 Q437 355 449 383.5 Q461 412 481.5 432.5 Q502 453 530.5 465 Q559 477 592 477 Q624 477 652.5 465 Q681 453 702 432.5 Q723 412 735.5 383 Q748 354 748 323 Q748 290 735.5 261.5 Q723 233 702 213 Q681 193 652.5 181 Q624 169 592 169 Q559 169 530.5 181 Q502 193 481.5 213 Q461 233 449 261.5 Q437 290 437 323 ZM437 1052 Q437 1084 449 1112.5 Q461 1141 481.5 1161.5 Q502 1182 530.5 1194 Q559 1206 592 1206 Q624 1206 652.5 1194 Q681 1182 702 1161.5 Q723 1141 735.5 1112 Q748 1083 748 1052 Q748 1019 735.5 991 Q723 963 702 942.5 Q681 922 652.5 910 Q624 898 592 898 Q559 898 530.5 910 Q502 922 481.5 942.5 Q461 963 449 991 Q437 1019 437 1052 Z"/>
            <glyph glyph-name="oslash" unicode=""
                   d="M44 -79 L202 135 Q134 206 98 304.5 Q62 403 62 527 Q62 651 99.5 751.5 Q137 852 205 921.5 Q273 991 369.5 1029 Q466 1067 584 1067 Q658 1067 723 1051.5 Q788 1036 844 1008 L901 1084 Q914 1102 925.5 1115 Q937 1128 950 1136.5 Q963 1145 978 1148.5 Q993 1152 1016 1152 L1141 1152 L966 914 Q1032 843 1067 746 Q1102 649 1102 527 Q1102 402 1065 302 Q1028 202 960.5 131 Q893 60 797 22.5 Q701 -15 584 -15 Q510 -15 445 -0.5 Q380 14 324 43 L289 -5 Q259 -45 217.5 -62 Q176 -79 137 -79 L44 -79 ZM307 525 Q307 403 340 324 L725 846 Q668 881 584 881 Q450 881 378.5 788 Q307 695 307 525 ZM442 204 Q499 171 584 171 Q715 171 786 263 Q857 355 857 525 Q857 585 849 634.5 Q841 684 825 723 L442 204 Z"/>
            <glyph glyph-name="ugrave" unicode=""
                   d="M114 383 L114 1051 L367 1051 L367 383 Q367 287 411.5 234 Q456 181 545 181 Q611 181 668 210.5 Q725 240 776 291 L776 1051 L1029 1051 L1029 0 L874 0 Q825 0 810 46 L793 130 Q760 97 725 70 Q690 43 650.5 24 Q611 5 565.5 -5.5 Q520 -16 468 -16 Q382 -16 316 13 Q250 42 205 95 Q160 148 137 221.5 Q114 295 114 383 ZM252 1497 L489 1497 Q531 1497 550.5 1483 Q570 1469 586 1443 L732 1194 L588 1194 Q559 1194 541 1201.5 Q523 1209 505 1230 L252 1497 Z"/>
            <glyph glyph-name="uacute" unicode=""
                   d="M114 383 L114 1051 L367 1051 L367 383 Q367 287 411.5 234 Q456 181 545 181 Q611 181 668 210.5 Q725 240 776 291 L776 1051 L1029 1051 L1029 0 L874 0 Q825 0 810 46 L793 130 Q760 97 725 70 Q690 43 650.5 24 Q611 5 565.5 -5.5 Q520 -16 468 -16 Q382 -16 316 13 Q250 42 205 95 Q160 148 137 221.5 Q114 295 114 383 ZM446 1194 L591 1443 Q606 1470 626.5 1483.5 Q647 1497 688 1497 L934 1497 L681 1230 Q662 1210 644 1202 Q626 1194 597 1194 L446 1194 Z"/>
            <glyph glyph-name="ucircumflex" unicode=""
                   d="M114 383 L114 1051 L367 1051 L367 383 Q367 287 411.5 234 Q456 181 545 181 Q611 181 668 210.5 Q725 240 776 291 L776 1051 L1029 1051 L1029 0 L874 0 Q825 0 810 46 L793 130 Q760 97 725 70 Q690 43 650.5 24 Q611 5 565.5 -5.5 Q520 -16 468 -16 Q382 -16 316 13 Q250 42 205 95 Q160 148 137 221.5 Q114 295 114 383 ZM226 1196 L461 1481 L698 1481 L933 1196 L764 1196 Q732 1196 713 1214 L605 1312 Q600 1317 594.5 1322 Q589 1327 584 1334 Q579 1327 573 1322 Q567 1317 562 1312 L453 1214 Q445 1207 431 1201.5 Q417 1196 401 1196 L226 1196 Z"/>
            <glyph glyph-name="udieresis" unicode=""
                   d="M114 383 L114 1051 L367 1051 L367 383 Q367 287 411.5 234 Q456 181 545 181 Q611 181 668 210.5 Q725 240 776 291 L776 1051 L1029 1051 L1029 0 L874 0 Q825 0 810 46 L793 130 Q760 97 725 70 Q690 43 650.5 24 Q611 5 565.5 -5.5 Q520 -16 468 -16 Q382 -16 316 13 Q250 42 205 95 Q160 148 137 221.5 Q114 295 114 383 ZM247 1323 Q247 1353 258 1379 Q269 1405 288.5 1424.5 Q308 1444 333 1455 Q358 1466 386 1466 Q415 1466 441 1455 Q467 1444 487 1424.5 Q507 1405 518 1379 Q529 1353 529 1323 Q529 1294 518 1269 Q507 1244 487 1225.5 Q467 1207 441 1196.5 Q415 1186 386 1186 Q358 1186 333 1196.5 Q308 1207 288.5 1225.5 Q269 1244 258 1269 Q247 1294 247 1323 ZM630 1323 Q630 1353 641 1379 Q652 1405 671 1424.5 Q690 1444 715.5 1455 Q741 1466 770 1466 Q799 1466 825 1455 Q851 1444 870.5 1424.5 Q890 1405 901 1379 Q912 1353 912 1323 Q912 1294 901 1269 Q890 1244 870.5 1225.5 Q851 1207 825 1196.5 Q799 1186 770 1186 Q741 1186 715.5 1196.5 Q690 1207 671 1225.5 Q652 1244 641 1269 Q630 1294 630 1323 Z"/>
            <glyph glyph-name="yacute" unicode=""
                   d="M7 1051 L228 1051 Q259 1051 275.5 1036.5 Q292 1022 300 1004 L524 459 Q535 432 543.5 403.5 Q552 375 558 346 Q566 376 576 403.5 Q586 431 597 460 L808 1004 Q816 1024 835 1037.5 Q854 1051 878 1051 L1080 1051 L508 -289 Q497 -316 479 -329.5 Q461 -343 424 -343 L236 -343 L432 78 L7 1051 ZM433 1194 L578 1443 Q593 1470 613.5 1483.5 Q634 1497 675 1497 L921 1497 L668 1230 Q649 1210 631 1202 Q613 1194 584 1194 L433 1194 Z"/>
            <glyph glyph-name="thorn" unicode=""
                   d="M135 -343 L135 1522 L388 1522 L388 922 Q450 989 529 1028 Q608 1067 714 1067 Q800 1067 871 1031.5 Q942 996 994 928.5 Q1046 861 1074 762 Q1102 663 1102 534 Q1102 416 1070 315.5 Q1038 215 979.5 141.5 Q921 68 837.5 26.5 Q754 -15 650 -15 Q605 -15 567 -7 Q529 1 497.5 17 Q466 33 439.5 55 Q413 77 388 104 L388 -343 L135 -343 ZM388 272 Q431 219 481.5 198 Q532 177 591 177 Q648 177 694.5 198.5 Q741 220 773.5 264 Q806 308 823.5 375 Q841 442 841 534 Q841 626 826 690 Q811 754 783.5 794 Q756 834 716.5 852 Q677 870 627 870 Q548 870 492 837 Q436 804 388 743 L388 272 Z"/>
            <glyph glyph-name="ydieresis" unicode=""
                   d="M7 1051 L228 1051 Q259 1051 275.5 1036.5 Q292 1022 300 1004 L524 459 Q535 432 543.5 403.5 Q552 375 558 346 Q566 376 576 403.5 Q586 431 597 460 L808 1004 Q816 1024 835 1037.5 Q854 1051 878 1051 L1080 1051 L508 -289 Q497 -316 479 -329.5 Q461 -343 424 -343 L236 -343 L432 78 L7 1051 ZM234 1323 Q234 1353 245 1379 Q256 1405 275.5 1424.5 Q295 1444 320 1455 Q345 1466 373 1466 Q402 1466 428 1455 Q454 1444 474 1424.5 Q494 1405 505 1379 Q516 1353 516 1323 Q516 1294 505 1269 Q494 1244 474 1225.5 Q454 1207 428 1196.5 Q402 1186 373 1186 Q345 1186 320 1196.5 Q295 1207 275.5 1225.5 Q256 1244 245 1269 Q234 1294 234 1323 ZM617 1323 Q617 1353 628 1379 Q639 1405 658 1424.5 Q677 1444 702.5 1455 Q728 1466 757 1466 Q786 1466 812 1455 Q838 1444 857.5 1424.5 Q877 1405 888 1379 Q899 1353 899 1323 Q899 1294 888 1269 Q877 1244 857.5 1225.5 Q838 1207 812 1196.5 Q786 1186 757 1186 Q728 1186 702.5 1196.5 Q677 1207 658 1225.5 Q639 1244 628 1269 Q617 1294 617 1323 Z"/>
            <glyph glyph-name="Aogonek" unicode="&#x104;"
                   d="M6 0 L588 1481 L869 1481 L1451 0 L1397 0 Q1377 -11 1357 -25.5 Q1337 -40 1322 -58 Q1307 -76 1297.5 -96.5 Q1288 -117 1288 -139 Q1288 -170 1307.5 -188 Q1327 -206 1362 -206 Q1381 -206 1393.5 -204 Q1406 -202 1413.5 -199 Q1421 -196 1427 -193.5 Q1433 -191 1438 -191 Q1456 -191 1461 -208 L1500 -301 Q1466 -324 1415.5 -338.5 Q1365 -353 1309 -353 Q1209 -353 1154.5 -311 Q1100 -269 1100 -203 Q1100 -147 1137.5 -94.5 Q1175 -42 1244 0 L1238 0 Q1202 0 1179 18 Q1156 36 1146 62 L1035 365 L422 365 L311 62 Q303 38 279 19 Q255 0 220 0 L6 0 ZM493 559 L965 559 L784 1052 Q772 1085 757 1129.5 Q742 1174 728 1226 Q714 1174 699.5 1128.5 Q685 1083 673 1050 L493 559 Z"/>
            <glyph glyph-name="aogonek" unicode="&#x105;"
                   d="M83 268 Q83 327 114 385 Q145 443 218 490 Q291 537 411.5 567.5 Q532 598 712 602 L712 664 Q712 769 667.5 819.5 Q623 870 538 870 Q477 870 435.5 856 Q394 842 364 824 Q334 806 308.5 791.5 Q283 777 252 777 Q226 777 207.5 791 Q189 805 178 823 L132 904 Q313 1070 569 1070 Q661 1070 733.5 1040 Q806 1010 856 956 Q906 902 932 827.5 Q958 753 958 664 L958 0 Q938 -11 918.5 -25.5 Q899 -40 883.5 -58 Q868 -76 859 -96.5 Q850 -117 850 -139 Q850 -170 869.5 -188 Q889 -206 924 -206 Q943 -206 955.5 -204 Q968 -202 975.5 -199 Q983 -196 988.5 -193.5 Q994 -191 999 -191 Q1017 -191 1023 -208 L1062 -301 Q1028 -324 977.5 -338.5 Q927 -353 870 -353 Q770 -353 716 -311 Q662 -269 662 -203 Q662 -146 700.5 -93 Q739 -40 811 3 Q791 7 778 19 Q765 31 758 54 L735 129 Q695 93 656.5 66 Q618 39 577.5 20.5 Q537 2 490.5 -7 Q444 -16 388 -16 Q321 -16 265 1.5 Q209 19 168.5 55 Q128 91 105.5 144.5 Q83 198 83 268 ZM325 282 Q325 215 364.5 186.5 Q404 158 467 158 Q506 158 538.5 165 Q571 172 600.5 186.5 Q630 201 657 222 Q684 243 712 271 L712 449 Q601 444 527 430 Q453 416 407.5 394.5 Q362 373 343.5 344 Q325 315 325 282 Z"/>
            <glyph glyph-name="Cacute" unicode="&#x106;"
                   d="M63 740 Q63 907 118.5 1046 Q174 1185 274.5 1285 Q375 1385 514.5 1441 Q654 1497 823 1497 Q988 1497 1111.5 1444.5 Q1235 1392 1323 1305 L1231 1177 Q1223 1165 1210 1155.5 Q1197 1146 1175 1146 Q1151 1146 1126.5 1164.5 Q1102 1183 1064 1204.5 Q1026 1226 968 1244.5 Q910 1263 821 1263 Q717 1263 629.5 1226.5 Q542 1190 479 1122.5 Q416 1055 380.5 958 Q345 861 345 740 Q345 615 380.5 518 Q416 421 476.5 354.5 Q537 288 618.5 252.5 Q700 217 795 217 Q851 217 896.5 223 Q942 229 980.5 242.5 Q1019 256 1053 277 Q1087 298 1121 329 Q1131 338 1142.5 343.5 Q1154 349 1167 349 Q1190 349 1206 332 L1315 214 Q1225 102 1093.5 43 Q962 -16 777 -16 Q612 -16 480.5 40 Q349 96 256 196.5 Q163 297 113 436 Q63 575 63 740 ZM621 1586 L822 1793 Q834 1805 845 1813.5 Q856 1822 867.5 1826.5 Q879 1831 893 1832.5 Q907 1834 928 1834 L1209 1834 L906 1613 Q895 1605 885 1599.5 Q875 1594 865.5 1591 Q856 1588 845 1587 Q834 1586 820 1586 L621 1586 Z"/>
            <glyph glyph-name="cacute" unicode="&#x107;"
                   d="M65 527 Q65 643 98 742 Q131 841 195.5 913 Q260 985 355.5 1026 Q451 1067 574 1067 Q692 1067 780.5 1029 Q869 991 940 921 L873 828 Q862 814 851.5 806 Q841 798 820 798 Q801 798 782.5 809.5 Q764 821 738.5 836 Q713 851 677.5 862.5 Q642 874 590 874 Q523 874 473 850 Q423 826 389.5 781 Q356 736 340 672 Q324 608 324 527 Q324 443 341.5 377.5 Q359 312 393 267.5 Q427 223 475 200 Q523 177 584 177 Q644 177 681.5 192 Q719 207 744.5 225 Q770 243 789 257.5 Q808 272 831 272 Q862 272 878 249 L950 157 Q908 108 859 74.5 Q810 41 757.5 21 Q705 1 648.5 -7 Q592 -15 537 -15 Q440 -15 353.5 21 Q267 57 203 127 Q139 197 102 297.5 Q65 398 65 527 ZM439 1194 L584 1443 Q599 1470 619.5 1483.5 Q640 1497 681 1497 L927 1497 L674 1230 Q655 1210 637 1202 Q619 1194 590 1194 L439 1194 Z"/>
            <glyph glyph-name="Eogonek" unicode="&#x118;"
                   d="M150 0 L150 1481 L1083 1481 L1083 1262 L427 1262 L427 851 L944 851 L944 639 L427 639 L427 220 L1083 220 L1083 0 L990 0 Q970 -11 950.5 -25.5 Q931 -40 915.5 -58 Q900 -76 891 -96.5 Q882 -117 882 -139 Q882 -170 901.5 -188 Q921 -206 955 -206 Q974 -206 986.5 -204 Q999 -202 1007 -199 Q1015 -196 1020.5 -193.5 Q1026 -191 1031 -191 Q1049 -191 1055 -208 L1094 -301 Q1060 -324 1009 -338.5 Q958 -353 902 -353 Q802 -353 747.5 -311 Q693 -269 693 -203 Q693 -147 730.5 -94.5 Q768 -42 838 0 L150 0 Z"/>
            <glyph glyph-name="eogonek" unicode="&#x119;"
                   d="M65 548 Q65 656 99.5 750.5 Q134 845 199 915 Q264 985 358 1026 Q452 1067 569 1067 Q668 1067 752 1035.5 Q836 1004 896 943 Q956 882 990 793.5 Q1024 705 1024 591 Q1024 562 1021.5 543 Q1019 524 1012.5 513.5 Q1006 503 994.5 498.5 Q983 494 966 494 L316 494 Q327 332 403 256 Q479 180 604 180 Q665 180 710 194.5 Q755 209 788 226.5 Q821 244 846 258 Q871 272 895 272 Q927 272 941 249 L1015 157 Q955 87 876 49 Q797 11 715 -3 Q696 -14 677 -28.5 Q658 -43 644.5 -60.5 Q631 -78 622 -98 Q613 -118 613 -139 Q613 -170 632.5 -188 Q652 -206 687 -206 Q706 -206 718.5 -204 Q731 -202 738.5 -199 Q746 -196 752 -193.5 Q758 -191 763 -191 Q781 -191 786 -208 L825 -301 Q791 -324 740.5 -338.5 Q690 -353 634 -353 Q534 -353 479.5 -311 Q425 -269 425 -203 Q425 -151 456.5 -102.5 Q488 -54 547 -14 Q444 -9 355.5 30 Q267 69 202.5 140 Q138 211 101.5 313.5 Q65 416 65 548 ZM322 646 L797 646 Q797 695 783.5 738.5 Q770 782 742.5 815 Q715 848 672.5 867 Q630 886 574 886 Q463 886 401 823.5 Q339 761 322 646 Z"/>
            <glyph glyph-name="dotlessi" unicode="&#x131;" d="M152 0 L152 1051 L404 1051 L404 0 L152 0 Z"/>
            <glyph glyph-name="Lslash" unicode="&#x141;"
                   d="M35 449 L35 638 Q35 671 67 687 L219 766 L219 1481 L495 1481 L495 891 L861 1074 L861 890 Q861 852 827 835 L495 662 L495 227 L1087 227 L1087 0 L219 0 L219 541 L35 449 Z"/>
            <glyph glyph-name="lslash" unicode="&#x142;"
                   d="M53 605 L53 755 Q53 791 85 804 L221 861 L221 1522 L474 1522 L474 951 L641 1019 L641 873 Q641 831 606 818 L474 762 L474 0 L221 0 L221 673 L53 605 Z"/>
            <glyph glyph-name="Nacute" unicode="&#x143;"
                   d="M150 0 L150 1481 L294 1481 Q312 1481 324.5 1479.5 Q337 1478 346.5 1473 Q356 1468 365.5 1459.5 Q375 1451 386 1437 L1163 446 Q1159 482 1157.5 516.5 Q1156 551 1156 581 L1156 1481 L1399 1481 L1399 0 L1256 0 Q1223 0 1202 10 Q1181 20 1160 47 L386 1033 Q389 1000 390.5 968 Q392 936 392 909 L392 0 L150 0 ZM597 1586 L798 1793 Q810 1805 821 1813.5 Q832 1822 843.5 1826.5 Q855 1831 869 1832.5 Q883 1834 904 1834 L1185 1834 L882 1613 Q871 1605 861 1599.5 Q851 1594 841.5 1591 Q832 1588 821 1587 Q810 1586 796 1586 L597 1586 Z"/>
            <glyph glyph-name="nacute" unicode="&#x144;"
                   d="M135 0 L135 1051 L290 1051 Q339 1051 354 1005 L372 922 Q404 955 439 981.5 Q474 1008 513.5 1027.5 Q553 1047 598 1057 Q643 1067 696 1067 Q782 1067 848.5 1038 Q915 1009 960 956 Q1005 903 1028 830 Q1051 757 1051 669 L1051 0 L798 0 L798 669 Q798 765 753.5 817.5 Q709 870 620 870 Q554 870 496.5 840.5 Q439 811 388 760 L388 0 L135 0 ZM464 1194 L609 1443 Q624 1470 644.5 1483.5 Q665 1497 706 1497 L952 1497 L699 1230 Q680 1210 662 1202 Q644 1194 615 1194 L464 1194 Z"/>
            <glyph glyph-name="OE" unicode="&#x152;"
                   d="M69 740 Q69 903 117.5 1042 Q166 1181 255 1282 Q344 1383 468.5 1440 Q593 1497 744 1497 Q892 1497 1013.5 1443 Q1135 1389 1224 1291 L1224 1481 L2125 1481 L2125 1262 L1468 1262 L1468 851 L1987 851 L1987 639 L1468 639 L1468 220 L2125 220 L2125 0 L1224 0 L1224 189 Q1135 93 1014.5 39 Q894 -15 744 -15 Q592 -15 468 41.5 Q344 98 255 199 Q166 300 117.5 439 Q69 578 69 740 ZM350 740 Q350 618 379.5 520.5 Q409 423 463 354.5 Q517 286 596 249 Q675 212 773 212 Q870 212 948 249 Q1026 286 1080.5 354.5 Q1135 423 1163.5 520.5 Q1192 618 1192 740 Q1192 862 1163.5 960 Q1135 1058 1080.5 1127 Q1026 1196 948 1233 Q870 1270 773 1270 Q675 1270 596 1233 Q517 1196 463 1127 Q409 1058 379.5 960 Q350 862 350 740 Z"/>
            <glyph glyph-name="oe" unicode="&#x153;"
                   d="M62 527 Q62 651 98 751.5 Q134 852 198 921.5 Q262 991 351.5 1029 Q441 1067 549 1067 Q676 1067 771.5 1014.5 Q867 962 928 864 Q984 956 1078.5 1011.5 Q1173 1067 1303 1067 Q1392 1067 1468.5 1032.5 Q1545 998 1601 933.5 Q1657 869 1688.5 777 Q1720 685 1720 570 Q1720 541 1717.5 522.5 Q1715 504 1709 493 Q1703 482 1692 477.5 Q1681 473 1664 473 L1052 473 Q1066 322 1137 251 Q1208 180 1321 180 Q1378 180 1419 194.5 Q1460 209 1491.5 226.5 Q1523 244 1547.5 258 Q1572 272 1595 272 Q1622 272 1640 249 L1714 157 Q1672 108 1622 74.5 Q1572 41 1517 21 Q1462 1 1406 -7 Q1350 -15 1296 -15 Q1185 -15 1088.5 34.5 Q992 84 930 190 Q869 91 770 38 Q671 -15 540 -15 Q436 -15 348 22.5 Q260 60 196.5 131 Q133 202 97.5 302 Q62 402 62 527 ZM324 525 Q324 355 381.5 267 Q439 179 563 179 Q684 179 742.5 267 Q801 355 801 525 Q801 695 742.5 784 Q684 873 563 873 Q440 873 382 783.5 Q324 694 324 525 ZM1053 626 L1496 626 Q1496 676 1483.5 723 Q1471 770 1446 806.5 Q1421 843 1382 864.5 Q1343 886 1291 886 Q1183 886 1124.5 818 Q1066 750 1053 626 Z"/>
            <glyph glyph-name="Sacute" unicode="&#x15a;"
                   d="M37 178 L117 310 Q128 324 144 334 Q160 344 179 344 Q205 344 234.5 323 Q264 302 304.5 276.5 Q345 251 400 230 Q455 209 531 209 Q649 209 713.5 265 Q778 321 778 425 Q778 483 749 520 Q720 557 672 582 Q624 607 562.5 624.5 Q501 642 437.5 662.5 Q374 683 312.5 711.5 Q251 740 203 786.5 Q155 833 125.5 902 Q96 971 96 1072 Q96 1153 128.5 1230 Q161 1307 223 1366 Q285 1425 375 1461 Q465 1497 581 1497 Q712 1497 822.5 1456 Q933 1415 1011 1341 L943 1211 Q932 1188 917 1179 Q902 1170 882 1170 Q862 1170 836 1186 Q810 1202 775 1221.5 Q740 1241 693.5 1257 Q647 1273 584 1273 Q527 1273 484 1259 Q441 1245 412 1220.5 Q383 1196 368.5 1161.5 Q354 1127 354 1086 Q354 1034 383.5 999.5 Q413 965 461 940 Q509 915 570.5 896 Q632 877 696 855 Q760 833 821.5 803.5 Q883 774 931 729.5 Q979 685 1008 620.5 Q1037 556 1037 464 Q1037 364 1003 276 Q969 188 903 123 Q837 58 741.5 21 Q646 -16 523 -16 Q452 -16 383.5 -2.5 Q315 11 252 36.5 Q189 62 134.5 98 Q80 134 37 178 ZM412 1586 L613 1793 Q625 1805 636 1813.5 Q647 1822 658.5 1826.5 Q670 1831 684 1832.5 Q698 1834 719 1834 L1000 1834 L697 1613 Q686 1605 676 1599.5 Q666 1594 656.5 1591 Q647 1588 636 1587 Q625 1586 611 1586 L412 1586 Z"/>
            <glyph glyph-name="sacute" unicode="&#x15b;"
                   d="M43 113 L101 209 Q112 226 127.5 235.5 Q143 245 167 245 Q191 245 211.5 231.5 Q232 218 260 202.5 Q288 187 325 174 Q362 161 420 161 Q465 161 497 171.5 Q529 182 550 199.5 Q571 217 581 240 Q591 263 591 288 Q591 325 569 348.5 Q547 372 510.5 389.5 Q474 407 427.5 420.5 Q381 434 332.5 450.5 Q284 467 237 489 Q190 511 154 545 Q118 579 96 628 Q74 677 74 746 Q74 811 99.5 869.5 Q125 928 174.5 971.5 Q224 1015 298.5 1041 Q373 1067 470 1067 Q579 1067 668 1031 Q757 995 816 937 L759 846 Q749 830 737.5 823 Q726 816 709 816 Q691 816 669.5 826.5 Q648 837 620.5 849.5 Q593 862 557.5 872.5 Q522 883 474 883 Q399 883 356 851 Q313 819 313 768 Q313 734 335 711 Q357 688 393.5 670.5 Q430 653 476 639.5 Q522 626 570 609.5 Q618 593 664.5 572 Q711 551 747 518.5 Q783 486 805 441 Q827 396 827 333 Q827 257 799.5 193 Q772 129 719 82.5 Q666 36 587.5 10 Q509 -16 408 -16 Q354 -16 302 -6.5 Q250 3 202.5 20.5 Q155 38 114.5 61.5 Q74 85 43 113 ZM347 1194 L492 1443 Q507 1470 527.5 1483.5 Q548 1497 589 1497 L835 1497 L582 1230 Q563 1210 545 1202 Q527 1194 498 1194 L347 1194 Z"/>
            <glyph glyph-name="Scaron" unicode="&#x160;"
                   d="M37 178 L117 310 Q128 324 144 334 Q160 344 179 344 Q205 344 234.5 323 Q264 302 304.5 276.5 Q345 251 400 230 Q455 209 531 209 Q649 209 713.5 265 Q778 321 778 425 Q778 483 749 520 Q720 557 672 582 Q624 607 562.5 624.5 Q501 642 437.5 662.5 Q374 683 312.5 711.5 Q251 740 203 786.5 Q155 833 125.5 902 Q96 971 96 1072 Q96 1153 128.5 1230 Q161 1307 223 1366 Q285 1425 375 1461 Q465 1497 581 1497 Q712 1497 822.5 1456 Q933 1415 1011 1341 L943 1211 Q932 1188 917 1179 Q902 1170 882 1170 Q862 1170 836 1186 Q810 1202 775 1221.5 Q740 1241 693.5 1257 Q647 1273 584 1273 Q527 1273 484 1259 Q441 1245 412 1220.5 Q383 1196 368.5 1161.5 Q354 1127 354 1086 Q354 1034 383.5 999.5 Q413 965 461 940 Q509 915 570.5 896 Q632 877 696 855 Q760 833 821.5 803.5 Q883 774 931 729.5 Q979 685 1008 620.5 Q1037 556 1037 464 Q1037 364 1003 276 Q969 188 903 123 Q837 58 741.5 21 Q646 -16 523 -16 Q452 -16 383.5 -2.5 Q315 11 252 36.5 Q189 62 134.5 98 Q80 134 37 178 ZM222 1810 L413 1810 Q428 1810 447 1806 Q466 1802 477 1794 L580 1725 Q584 1723 588 1720.5 Q592 1718 596 1715 Q600 1718 603.5 1720.5 Q607 1723 611 1725 L714 1794 Q725 1802 744 1806 Q763 1810 778 1810 L969 1810 L722 1586 L470 1586 L222 1810 Z"/>
            <glyph glyph-name="scaron" unicode="&#x161;"
                   d="M43 113 L101 209 Q112 226 127.5 235.5 Q143 245 167 245 Q191 245 211.5 231.5 Q232 218 260 202.5 Q288 187 325 174 Q362 161 420 161 Q465 161 497 171.5 Q529 182 550 199.5 Q571 217 581 240 Q591 263 591 288 Q591 325 569 348.5 Q547 372 510.5 389.5 Q474 407 427.5 420.5 Q381 434 332.5 450.5 Q284 467 237 489 Q190 511 154 545 Q118 579 96 628 Q74 677 74 746 Q74 811 99.5 869.5 Q125 928 174.5 971.5 Q224 1015 298.5 1041 Q373 1067 470 1067 Q579 1067 668 1031 Q757 995 816 937 L759 846 Q749 830 737.5 823 Q726 816 709 816 Q691 816 669.5 826.5 Q648 837 620.5 849.5 Q593 862 557.5 872.5 Q522 883 474 883 Q399 883 356 851 Q313 819 313 768 Q313 734 335 711 Q357 688 393.5 670.5 Q430 653 476 639.5 Q522 626 570 609.5 Q618 593 664.5 572 Q711 551 747 518.5 Q783 486 805 441 Q827 396 827 333 Q827 257 799.5 193 Q772 129 719 82.5 Q666 36 587.5 10 Q509 -16 408 -16 Q354 -16 302 -6.5 Q250 3 202.5 20.5 Q155 38 114.5 61.5 Q74 85 43 113 ZM117 1481 L292 1481 Q307 1481 321 1475.5 Q335 1470 344 1463 L452 1365 Q461 1357 474 1341 Q479 1348 485 1354 Q491 1360 496 1365 L604 1463 Q612 1470 626.5 1475.5 Q641 1481 655 1481 L824 1481 L589 1196 L352 1196 L117 1481 Z"/>
            <glyph glyph-name="Ydieresis" unicode="&#x178;"
                   d="M-7 1481 L236 1481 Q272 1481 292.5 1463.5 Q313 1446 328 1419 L599 925 Q623 881 640 841.5 Q657 802 672 764 Q685 803 702 842.5 Q719 882 742 925 L1012 1419 Q1023 1442 1045.5 1461.5 Q1068 1481 1103 1481 L1347 1481 L808 575 L808 0 L532 0 L532 575 L-7 1481 ZM314 1707 Q314 1735 325 1760 Q336 1785 354.5 1804 Q373 1823 397 1834 Q421 1845 447 1845 Q476 1845 501.5 1834 Q527 1823 546.5 1804 Q566 1785 577.5 1760 Q589 1735 589 1707 Q589 1679 577.5 1654.5 Q566 1630 546.5 1611.5 Q527 1593 501.5 1583 Q476 1573 447 1573 Q420 1573 396.5 1583 Q373 1593 354.5 1611.5 Q336 1630 325 1654.5 Q314 1679 314 1707 ZM757 1707 Q757 1735 767.5 1760 Q778 1785 797 1804 Q816 1823 841 1834 Q866 1845 894 1845 Q923 1845 948 1834 Q973 1823 991.5 1804 Q1010 1785 1020.5 1760 Q1031 1735 1031 1707 Q1031 1679 1020.5 1654.5 Q1010 1630 991.5 1611.5 Q973 1593 948 1583 Q923 1573 894 1573 Q866 1573 841 1583 Q816 1593 797 1611.5 Q778 1630 767.5 1654.5 Q757 1679 757 1707 Z"/>
            <glyph glyph-name="Zacute" unicode="&#x179;"
                   d="M63 0 L63 109 Q63 129 70.5 148 Q78 167 89 183 L851 1262 L112 1262 L112 1481 L1207 1481 L1207 1379 Q1207 1332 1181 1293 L421 220 L1189 220 L1189 0 L63 0 ZM469 1586 L670 1793 Q682 1805 693 1813.5 Q704 1822 715.5 1826.5 Q727 1831 741 1832.5 Q755 1834 776 1834 L1057 1834 L754 1613 Q743 1605 733 1599.5 Q723 1594 713.5 1591 Q704 1588 693 1587 Q682 1586 668 1586 L469 1586 Z"/>
            <glyph glyph-name="zacute" unicode="&#x17a;"
                   d="M69 0 L69 105 Q69 122 77 146.5 Q85 171 102 193 L606 857 L98 857 L98 1051 L895 1051 L895 946 Q895 919 885.5 894 Q876 869 862 852 L362 195 L881 195 L881 0 L69 0 ZM376 1194 L521 1443 Q536 1470 556.5 1483.5 Q577 1497 618 1497 L864 1497 L611 1230 Q592 1210 574 1202 Q556 1194 527 1194 L376 1194 Z"/>
            <glyph glyph-name="Zdotaccent" unicode="&#x17b;"
                   d="M63 0 L63 109 Q63 129 70.5 148 Q78 167 89 183 L851 1262 L112 1262 L112 1481 L1207 1481 L1207 1379 Q1207 1332 1181 1293 L421 220 L1189 220 L1189 0 L63 0 ZM509 1736 Q509 1768 521.5 1796 Q534 1824 555 1845 Q576 1866 603.5 1878 Q631 1890 661 1890 Q693 1890 721.5 1878 Q750 1866 771.5 1845 Q793 1824 805.5 1796 Q818 1768 818 1736 Q818 1705 805.5 1678 Q793 1651 771.5 1630 Q750 1609 721 1596.5 Q692 1584 661 1584 Q631 1584 603.5 1596.5 Q576 1609 555 1630 Q534 1651 521.5 1678 Q509 1705 509 1736 Z"/>
            <glyph glyph-name="zdotaccent" unicode="&#x17c;"
                   d="M69 0 L69 105 Q69 122 77 146.5 Q85 171 102 193 L606 857 L98 857 L98 1051 L895 1051 L895 946 Q895 919 885.5 894 Q876 869 862 852 L362 195 L881 195 L881 0 L69 0 ZM350 1361 Q350 1395 362.5 1424 Q375 1453 396.5 1475 Q418 1497 447 1510 Q476 1523 509 1523 Q543 1523 573 1510 Q603 1497 625 1475 Q647 1453 660 1424 Q673 1395 673 1361 Q673 1328 660 1299 Q647 1270 625 1248.5 Q603 1227 572.5 1214 Q542 1201 509 1201 Q476 1201 447 1214 Q418 1227 396.5 1248.5 Q375 1270 362.5 1299 Q350 1328 350 1361 Z"/>
            <glyph glyph-name="Zcaron" unicode="&#x17d;"
                   d="M63 0 L63 109 Q63 129 70.5 148 Q78 167 89 183 L851 1262 L112 1262 L112 1481 L1207 1481 L1207 1379 Q1207 1332 1181 1293 L421 220 L1189 220 L1189 0 L63 0 ZM290 1809 L481 1809 Q496 1809 515 1805 Q534 1801 545 1793 L648 1724 Q652 1722 656 1719.5 Q660 1717 664 1714 Q668 1717 671.5 1719.5 Q675 1722 679 1724 L782 1793 Q793 1801 812 1805 Q831 1809 846 1809 L1037 1809 L790 1585 L538 1585 L290 1809 Z"/>
            <glyph glyph-name="zcaron" unicode="&#x17e;"
                   d="M69 0 L69 105 Q69 122 77 146.5 Q85 171 102 193 L606 857 L98 857 L98 1051 L895 1051 L895 946 Q895 919 885.5 894 Q876 869 862 852 L362 195 L881 195 L881 0 L69 0 ZM156 1481 L331 1481 Q346 1481 360 1475.5 Q374 1470 383 1463 L491 1365 Q500 1357 513 1341 Q518 1348 524 1354 Q530 1360 535 1365 L643 1463 Q651 1470 665.5 1475.5 Q680 1481 694 1481 L863 1481 L628 1196 L391 1196 L156 1481 Z"/>
            <glyph glyph-name="florin" unicode="&#x192;"
                   d="M100 -221 Q100 -143 181 -143 Q222 -143 257 -132 Q292 -121 318.5 -96.5 Q345 -72 362.5 -32 Q380 8 387 66 L472 758 L346 776 Q289 788 289 840 L289 943 L495 943 L513 1095 Q539 1300 669 1403 Q799 1506 1051 1506 L1051 1368 Q1051 1328 1032 1312 Q1013 1296 971 1296 Q929 1296 893.5 1285 Q858 1274 830.5 1249.5 Q803 1225 784.5 1185 Q766 1145 759 1087 L739 943 L1040 943 L1040 763 L723 763 L638 58 Q625 -51 586.5 -128.5 Q548 -206 482 -256 Q416 -306 321 -329.5 Q226 -353 100 -353 L100 -221 Z"/>
            <glyph glyph-name="circumflex" unicode="&#x2c6;"
                   d="M-27 1196 L208 1481 L445 1481 L680 1196 L511 1196 Q479 1196 460 1214 L352 1312 Q347 1317 341.5 1322 Q336 1327 331 1334 Q326 1327 320 1322 Q314 1317 309 1312 L200 1214 Q192 1207 178 1201.5 Q164 1196 148 1196 L-27 1196 Z"/>
            <glyph glyph-name="caron" unicode="&#x2c7;"
                   d="M-27 1481 L148 1481 Q163 1481 177 1475.5 Q191 1470 200 1463 L308 1365 Q317 1357 330 1341 Q335 1348 341 1354 Q347 1360 352 1365 L460 1463 Q468 1470 482.5 1475.5 Q497 1481 511 1481 L680 1481 L445 1196 L208 1196 L-27 1481 Z"/>
            <glyph glyph-name="breve" unicode="&#x2d8;"
                   d="M17 1481 L195 1481 Q195 1450 200.5 1425.5 Q206 1401 221 1384 Q236 1367 261.5 1358 Q287 1349 327 1349 Q367 1349 392.5 1358 Q418 1367 432.5 1384 Q447 1401 453 1425.5 Q459 1450 459 1481 L636 1481 Q636 1422 620.5 1368.5 Q605 1315 568.5 1275 Q532 1235 473 1212 Q414 1189 327 1189 Q239 1189 180 1212 Q121 1235 84.5 1275 Q48 1315 32.5 1368 Q17 1421 17 1481 Z"/>
            <glyph glyph-name="dotaccent" unicode="&#x2d9;"
                   d="M166 1361 Q166 1395 178.5 1424 Q191 1453 212.5 1475 Q234 1497 263 1510 Q292 1523 325 1523 Q359 1523 389 1510 Q419 1497 441 1475 Q463 1453 476 1424 Q489 1395 489 1361 Q489 1328 476 1299 Q463 1270 441 1248.5 Q419 1227 388.5 1214 Q358 1201 325 1201 Q292 1201 263 1214 Q234 1227 212.5 1248.5 Q191 1270 178.5 1299 Q166 1328 166 1361 Z"/>
            <glyph glyph-name="ring" unicode="&#x2da;"
                   d="M98 1357 Q98 1404 116.5 1443 Q135 1482 166.5 1509.5 Q198 1537 239 1552.5 Q280 1568 325 1568 Q371 1568 413 1552.5 Q455 1537 486.5 1509.5 Q518 1482 537 1443 Q556 1404 556 1357 Q556 1311 537 1273 Q518 1235 486.5 1208 Q455 1181 413 1166 Q371 1151 325 1151 Q280 1151 239 1166 Q198 1181 166.5 1208 Q135 1235 116.5 1273 Q98 1311 98 1357 ZM236 1357 Q236 1318 260 1292 Q284 1266 329 1266 Q370 1266 394.5 1292 Q419 1318 419 1357 Q419 1400 394.5 1425 Q370 1450 329 1450 Q284 1450 260 1425 Q236 1400 236 1357 Z"/>
            <glyph glyph-name="ogonek" unicode="&#x2db;"
                   d="M134 -203 Q134 -143 177 -87 Q220 -31 300 12 L431 0 Q411 -11 391.5 -25.5 Q372 -40 356.5 -58 Q341 -76 332 -96.5 Q323 -117 323 -139 Q323 -170 342 -188 Q361 -206 396 -206 Q415 -206 427.5 -204 Q440 -202 448 -199 Q456 -196 461.5 -193.5 Q467 -191 472 -191 Q490 -191 496 -208 L535 -301 Q501 -324 450 -338.5 Q399 -353 343 -353 Q243 -353 188.5 -311 Q134 -269 134 -203 Z"/>
            <glyph glyph-name="tilde" unicode="&#x2dc;"
                   d="M1 1222 Q1 1279 17 1325.5 Q33 1372 61.5 1405.5 Q90 1439 128.5 1457.5 Q167 1476 212 1476 Q249 1476 281 1462.5 Q313 1449 341 1433.5 Q369 1418 392.5 1405 Q416 1392 436 1392 Q467 1392 484.5 1408.5 Q502 1425 502 1469 L655 1469 Q655 1412 639.5 1365.5 Q624 1319 596 1285.5 Q568 1252 530 1234.5 Q492 1217 445 1217 Q408 1217 376.5 1230 Q345 1243 317.5 1258.5 Q290 1274 266 1287 Q242 1300 221 1300 Q191 1300 174.5 1282.5 Q158 1265 158 1222 L1 1222 Z"/>
            <glyph glyph-name="hungarumlaut" unicode="&#x2dd;"
                   d="M71 1194 L200 1443 Q214 1470 235 1483.5 Q256 1497 297 1497 L462 1497 L258 1230 Q242 1210 222.5 1202 Q203 1194 174 1194 L71 1194 ZM358 1194 L540 1443 Q549 1456 557.5 1466 Q566 1476 577 1483 Q588 1490 602 1493.5 Q616 1497 637 1497 L819 1497 L561 1230 Q542 1211 524.5 1202.5 Q507 1194 477 1194 L358 1194 Z"/>
            <glyph glyph-name="pi" unicode="&#x3c0;"
                   d="M53 19 L60 126 Q63 146 76 156.5 Q89 167 130 167 Q192 167 216 192 Q240 217 240 275 L240 870 L56 870 L56 961 Q56 976 62.5 992 Q69 1008 81 1020.5 Q93 1033 110.5 1042 Q128 1051 151 1051 L1281 1051 L1281 950 Q1281 917 1261 893.5 Q1241 870 1202 870 L1093 870 L1093 0 L840 0 L840 870 L493 870 L493 272 Q493 207 477 154.5 Q461 102 426.5 64.5 Q392 27 338 6.5 Q284 -14 207 -14 Q170 -14 129.5 -7 Q89 0 53 19 Z"/>
            <glyph glyph-name="uni2000" unicode="&#x2000;" d=""/>
            <glyph glyph-name="uni2001" unicode="&#x2001;" d=""/>
            <glyph glyph-name="uni2002" unicode="&#x2002;" d=""/>
            <glyph glyph-name="uni2003" unicode="&#x2003;" d=""/>
            <glyph glyph-name="uni2004" unicode="&#x2004;" d=""/>
            <glyph glyph-name="uni2005" unicode="&#x2005;" d=""/>
            <glyph glyph-name="uni2006" unicode="&#x2006;" d=""/>
            <glyph glyph-name="uni2007" unicode="&#x2007;" d=""/>
            <glyph glyph-name="uni2008" unicode="&#x2008;" d=""/>
            <glyph glyph-name="uni2009" unicode="&#x2009;" d=""/>
            <glyph glyph-name="uni200A" unicode="&#x200a;" d=""/>
            <glyph glyph-name="uni2010" unicode="&#x2010;" d="M102 513 L102 724 L633 724 L633 513 L102 513 Z"/>
            <glyph glyph-name="uni2011" unicode="&#x2011;" d="M102 513 L102 724 L633 724 L633 513 L102 513 Z"/>
            <glyph glyph-name="figuredash" unicode="&#x2012;" d="M102 513 L102 724 L633 724 L633 513 L102 513 Z"/>
            <glyph glyph-name="endash" unicode="&#x2013;" d="M167 524 L167 703 L997 703 L997 524 L167 524 Z"/>
            <glyph glyph-name="emdash" unicode="&#x2014;" d="M167 524 L167 703 L1556 703 L1556 524 L167 524 Z"/>
            <glyph glyph-name="quoteleft" unicode="&#x2018;"
                   d="M100 1230 Q100 1332 152 1426 Q204 1520 302 1597 L381 1549 Q391 1543 395 1534.5 Q399 1526 399 1518 Q399 1509 395 1500.5 Q391 1492 386 1486 Q373 1471 358 1450.5 Q343 1430 330.5 1405.5 Q318 1381 310 1352.5 Q302 1324 302 1291 Q302 1256 313.5 1217 Q325 1178 351 1135 Q360 1121 360 1106 Q360 1073 324 1060 L170 1000 Q100 1114 100 1230 Z"/>
            <glyph glyph-name="quoteright" unicode="&#x2019;"
                   d="M88 1052 Q88 1071 101 1084 Q114 1099 129 1119.5 Q144 1140 156.5 1164 Q169 1188 176.5 1216.5 Q184 1245 184 1278 Q184 1313 173 1352.5 Q162 1392 135 1436 Q126 1449 126 1463 Q126 1496 164 1509 L316 1569 Q352 1512 369 1454.5 Q386 1397 386 1339 Q386 1237 334.5 1144 Q283 1051 185 972 L106 1020 Q96 1026 92 1034.5 Q88 1043 88 1052 Z"/>
            <glyph glyph-name="quotesinglbase" unicode="&#x201a;"
                   d="M88 -219 Q88 -200 101 -186 Q114 -171 129 -151 Q144 -131 156.5 -107 Q169 -83 176.5 -54.5 Q184 -26 184 7 Q184 42 173 81.5 Q162 121 135 165 Q126 178 126 193 Q126 226 164 239 L316 298 Q352 241 369 183.5 Q386 126 386 69 Q386 -33 334.5 -126.5 Q283 -220 185 -299 L106 -251 Q96 -245 92 -236 Q88 -227 88 -219 Z"/>
            <glyph glyph-name="quotedblleft" unicode="&#x201c;"
                   d="M100 1230 Q100 1332 152 1426 Q204 1520 302 1597 L381 1549 Q391 1543 395 1534.5 Q399 1526 399 1518 Q399 1509 395 1500.5 Q391 1492 386 1486 Q373 1471 358 1450.5 Q343 1430 330.5 1405.5 Q318 1381 310 1352.5 Q302 1324 302 1291 Q302 1256 313.5 1217 Q325 1178 351 1135 Q360 1121 360 1106 Q360 1073 324 1060 L170 1000 Q100 1114 100 1230 ZM440 1230 Q440 1332 492 1426 Q544 1520 642 1597 L721 1549 Q731 1543 735 1534.5 Q739 1526 739 1518 Q739 1509 735 1500.5 Q731 1492 726 1486 Q713 1471 698 1450.5 Q683 1430 670.5 1405.5 Q658 1381 650 1352.5 Q642 1324 642 1291 Q642 1256 653.5 1217 Q665 1178 691 1135 Q700 1121 700 1106 Q700 1073 664 1060 L510 1000 Q440 1114 440 1230 Z"/>
            <glyph glyph-name="quotedblright" unicode="&#x201d;"
                   d="M88 1052 Q88 1071 101 1084 Q114 1099 129 1119 Q144 1139 156.5 1163.5 Q169 1188 176.5 1216.5 Q184 1245 184 1278 Q184 1313 173 1352.5 Q162 1392 135 1436 Q126 1449 126 1463 Q126 1496 164 1509 L316 1569 Q352 1512 369 1454.5 Q386 1397 386 1339 Q386 1237 334.5 1144 Q283 1051 185 972 L106 1020 Q96 1026 92 1034.5 Q88 1043 88 1052 ZM428 1052 Q428 1071 441 1084 Q454 1099 469 1119 Q484 1139 496.5 1163.5 Q509 1188 516.5 1216.5 Q524 1245 524 1278 Q524 1313 513 1352.5 Q502 1392 475 1436 Q466 1449 466 1463 Q466 1496 504 1509 L656 1569 Q692 1512 709 1454.5 Q726 1397 726 1339 Q726 1237 674.5 1144 Q623 1051 525 972 L446 1020 Q436 1026 432 1034.5 Q428 1043 428 1052 Z"/>
            <glyph glyph-name="quotedblbase" unicode="&#x201e;"
                   d="M88 -219 Q88 -200 101 -186 Q114 -171 129 -151.5 Q144 -132 156.5 -107.5 Q169 -83 176.5 -54.5 Q184 -26 184 7 Q184 42 173 81.5 Q162 121 135 165 Q126 178 126 193 Q126 226 164 239 L316 298 Q352 241 369 183.5 Q386 126 386 69 Q386 -33 334.5 -126.5 Q283 -220 185 -299 L106 -251 Q96 -245 92 -236 Q88 -227 88 -219 ZM428 -219 Q428 -200 441 -186 Q454 -171 469 -151.5 Q484 -132 496.5 -107.5 Q509 -83 516.5 -54.5 Q524 -26 524 7 Q524 42 513 81.5 Q502 121 475 165 Q466 178 466 193 Q466 226 504 239 L656 298 Q692 241 709 183.5 Q726 126 726 69 Q726 -33 674.5 -126.5 Q623 -220 525 -299 L446 -251 Q436 -245 432 -236 Q428 -227 428 -219 Z"/>
            <glyph glyph-name="dagger" unicode="&#x2020;"
                   d="M86 851 L86 935 Q86 957 92.5 976 Q99 995 114 1010.5 Q129 1026 151 1035 Q173 1044 204 1044 Q269 1043 344.5 1027 Q420 1011 497 999 L465 1500 Q521 1533 596 1533 Q633 1533 666.5 1525 Q700 1517 727 1500 L694 999 Q771 1010 847.5 1026.5 Q924 1043 988 1044 Q1019 1044 1041.5 1035 Q1064 1026 1078.5 1010.5 Q1093 995 1100 975.5 Q1107 956 1107 935 L1107 851 L694 851 L694 488 L727 -331 Q700 -347 666.5 -355.5 Q633 -364 596 -364 Q521 -364 465 -331 L498 488 L498 851 L86 851 Z"/>
            <glyph glyph-name="daggerdbl" unicode="&#x2021;"
                   d="M86 234 L86 318 L498 318 L498 851 L86 851 L86 935 Q86 957 92.5 976 Q99 995 114 1010.5 Q129 1026 151 1035 Q173 1044 204 1044 Q269 1043 344.5 1027 Q420 1011 497 999 L465 1500 Q521 1533 596 1533 Q633 1533 666.5 1525 Q700 1517 727 1500 L694 999 Q771 1010 847.5 1026.5 Q924 1043 988 1044 Q1019 1044 1041.5 1035 Q1064 1026 1078.5 1010.5 Q1093 995 1100 975.5 Q1107 956 1107 935 L1107 851 L694 851 L694 318 L1107 318 L1107 234 Q1107 212 1100 193 Q1093 174 1078.5 158.5 Q1064 143 1041.5 134 Q1019 125 988 125 Q923 126 847 142 Q771 158 694 169 L727 -331 Q700 -347 666.5 -355.5 Q633 -364 596 -364 Q521 -364 465 -331 L497 169 Q420 158 344 142 Q268 126 204 125 Q173 125 151 134 Q129 143 114 158.5 Q99 174 92.5 193.5 Q86 213 86 234 Z"/>
            <glyph glyph-name="bullet" unicode="&#x2022;"
                   d="M146 607 Q146 699 181.5 780 Q217 861 277.5 922 Q338 983 419 1018 Q500 1053 592 1053 Q684 1053 766 1018 Q848 983 908.5 922 Q969 861 1004 780 Q1039 699 1039 607 Q1039 516 1004 435.5 Q969 355 908.5 294.5 Q848 234 766 199.5 Q684 165 592 165 Q500 165 419 199.5 Q338 234 277.5 294.5 Q217 355 181.5 435.5 Q146 516 146 607 Z"/>
            <glyph glyph-name="ellipsis" unicode="&#x2026;"
                   d="M75 139 Q75 171 86.5 199.5 Q98 228 119 248.5 Q140 269 169 281.5 Q198 294 230 294 Q262 294 290.5 281.5 Q319 269 339.5 248.5 Q360 228 372.5 199.5 Q385 171 385 139 Q385 106 372.5 78 Q360 50 339.5 29.5 Q319 9 290.5 -2.5 Q262 -14 230 -14 Q197 -14 168.5 -2.5 Q140 9 119 29.5 Q98 50 86.5 78 Q75 106 75 139 ZM622 139 Q622 171 633.5 199.5 Q645 228 666 248.5 Q687 269 715.5 281.5 Q744 294 777 294 Q809 294 837.5 281.5 Q866 269 886.5 248.5 Q907 228 919.5 199.5 Q932 171 932 139 Q932 106 919.5 78 Q907 50 886.5 29.5 Q866 9 837.5 -2.5 Q809 -14 777 -14 Q744 -14 715.5 -2.5 Q687 9 666 29.5 Q645 50 633.5 78 Q622 106 622 139 ZM1168 139 Q1168 171 1180 199.5 Q1192 228 1213 248.5 Q1234 269 1262.5 281.5 Q1291 294 1324 294 Q1356 294 1384.5 281.5 Q1413 269 1433.5 248.5 Q1454 228 1466.5 199.5 Q1479 171 1479 139 Q1479 106 1466.5 78 Q1454 50 1433.5 29.5 Q1413 9 1384.5 -2.5 Q1356 -14 1324 -14 Q1291 -14 1262.5 -2.5 Q1234 9 1213 29.5 Q1192 50 1180 78 Q1168 106 1168 139 Z"/>
            <glyph glyph-name="uni202F" unicode="&#x202f;" d=""/>
            <glyph glyph-name="perthousand" unicode="&#x2030;"
                   d="M62 1122 Q62 1208 88 1278 Q114 1348 159.5 1396 Q205 1444 267.5 1470 Q330 1496 403 1496 Q477 1496 540 1470 Q603 1444 649 1396 Q695 1348 720.5 1278 Q746 1208 746 1122 Q746 1038 718 970.5 Q690 903 643 855.5 Q596 808 533.5 782.5 Q471 757 403 757 Q329 757 267 782.5 Q205 808 159.5 855.5 Q114 903 88 970.5 Q62 1038 62 1122 ZM139 0 L1239 1441 Q1251 1456 1269.5 1468.5 Q1288 1481 1321 1481 L1504 1481 L404 38 Q392 22 373 11 Q354 0 328 0 L139 0 ZM259 1122 Q259 1065 270 1026.5 Q281 988 300 964.5 Q319 941 346 931 Q373 921 403 921 Q434 921 461 931 Q488 941 508 964.5 Q528 988 539.5 1026.5 Q551 1065 551 1122 Q551 1181 539.5 1221.5 Q528 1262 508 1286.5 Q488 1311 461 1321.5 Q434 1332 403 1332 Q372 1332 345.5 1321.5 Q319 1311 300 1286.5 Q281 1262 270 1222 Q259 1182 259 1122 ZM898 348 Q898 434 923.5 503.5 Q949 573 994.5 621.5 Q1040 670 1102.5 696 Q1165 722 1239 722 Q1313 722 1376 696 Q1439 670 1485 621.5 Q1531 573 1556.5 503.5 Q1582 434 1582 348 Q1582 264 1554 196.5 Q1526 129 1479 81.5 Q1432 34 1369.5 8 Q1307 -18 1239 -18 Q1165 -18 1102.5 8 Q1040 34 994.5 81.5 Q949 129 923.5 196.5 Q898 264 898 348 ZM1095 348 Q1095 291 1106 252 Q1117 213 1136 189.5 Q1155 166 1181.5 155.5 Q1208 145 1239 145 Q1270 145 1297 155.5 Q1324 166 1344 189.5 Q1364 213 1376 252 Q1388 291 1388 348 Q1388 407 1376 447 Q1364 487 1344 512 Q1324 537 1297 547.5 Q1270 558 1239 558 Q1208 558 1181.5 547.5 Q1155 537 1136 512 Q1117 487 1106 447.5 Q1095 408 1095 348 ZM1657 348 Q1657 434 1682.5 503.5 Q1708 573 1753.5 621.5 Q1799 670 1861.5 696 Q1924 722 1998 722 Q2072 722 2135 696 Q2198 670 2244 621.5 Q2290 573 2315.5 503.5 Q2341 434 2341 348 Q2341 264 2313 196.5 Q2285 129 2237.5 81.5 Q2190 34 2127.5 8 Q2065 -18 1998 -18 Q1924 -18 1861.5 8 Q1799 34 1753.5 81.5 Q1708 129 1682.5 196.5 Q1657 264 1657 348 ZM1853 348 Q1853 291 1864.5 252 Q1876 213 1895 189.5 Q1914 166 1940.5 155.5 Q1967 145 1998 145 Q2029 145 2056 155.5 Q2083 166 2103 189.5 Q2123 213 2134.5 252 Q2146 291 2146 348 Q2146 407 2134.5 447 Q2123 487 2103 512 Q2083 537 2056 547.5 Q2029 558 1998 558 Q1967 558 1940.5 547.5 Q1914 537 1895 512 Q1876 487 1864.5 447.5 Q1853 408 1853 348 Z"/>
            <glyph glyph-name="guilsinglleft" unicode="&#x2039;"
                   d="M126 535 L126 567 L388 973 L471 934 Q491 925 500.5 910.5 Q510 896 510 879 Q510 857 497 835 L355 594 Q341 567 323 551 Q339 537 355 508 L497 266 Q510 243 510 222 Q510 186 471 168 L388 129 L126 535 Z"/>
            <glyph glyph-name="guilsinglright" unicode="&#x203a;"
                   d="M147 223 Q147 243 161 266 L302 508 Q318 537 335 551 Q317 567 302 594 L161 835 Q148 858 147 879 Q147 916 186 934 L269 973 L531 567 L531 535 L269 129 L186 168 Q166 177 156.5 191.5 Q147 206 147 223 Z"/>
            <glyph glyph-name="fraction" unicode="&#x2044;"
                   d="M-181 0 L673 1398 Q697 1437 728.5 1459 Q760 1481 806 1481 L913 1481 L53 73 Q26 31 -4 15.5 Q-34 0 -73 0 L-181 0 Z"/>
            <glyph glyph-name="uni205F" unicode="&#x205f;" d=""/>
            <glyph glyph-name="Euro" unicode="&#x20ac;"
                   d="M38 552 L38 692 L157 692 Q156 703 156 715.5 Q156 728 156 740 Q156 757 156 774.5 Q156 792 157 809 L38 809 L38 950 L174 950 Q198 1075 249 1176 Q300 1277 373.5 1347.5 Q447 1418 540.5 1456.5 Q634 1495 743 1495 Q885 1495 987 1440 Q1089 1385 1157 1292 L1068 1196 Q1058 1185 1046.5 1176 Q1035 1167 1015 1167 Q1001 1167 989 1175.5 Q977 1184 962.5 1196 Q948 1208 930.5 1222.5 Q913 1237 889 1249.5 Q865 1262 832.5 1270 Q800 1278 755 1278 Q634 1278 551 1195 Q468 1112 435 950 L949 950 L949 872 Q949 848 930 828.5 Q911 809 879 809 L418 809 Q417 792 417 775 Q417 758 417 740 Q417 728 417 715.5 Q417 703 418 692 L852 692 L852 615 Q852 591 833 571.5 Q814 552 782 552 L430 552 Q459 376 540.5 289.5 Q622 203 742 203 Q816 203 860.5 223 Q905 243 933.5 267.5 Q962 292 980.5 312 Q999 332 1022 332 Q1033 332 1042 328.5 Q1051 325 1059 314 L1168 214 Q1096 103 986 44.5 Q876 -14 729 -14 Q609 -14 513.5 26.5 Q418 67 347 140.5 Q276 214 231 318.5 Q186 423 168 552 L38 552 Z"/>
            <glyph glyph-name="trademark" unicode="&#x2122;"
                   d="M58 1337 L58 1481 L568 1481 L568 1337 L400 1337 L400 863 L225 863 L225 1337 L58 1337 ZM642 863 L642 1481 L793 1481 Q816 1481 827.5 1478 Q839 1475 849 1454 L983 1193 Q991 1175 998 1157 Q1005 1139 1010 1120 Q1016 1138 1023 1157 Q1030 1176 1039 1193 L1176 1454 Q1186 1473 1198 1477 Q1210 1481 1232 1481 L1382 1481 L1382 863 L1229 863 L1229 1172 L1240 1274 L1083 965 Q1064 927 1024 927 L999 927 Q957 927 939 965 L784 1269 L796 1172 L796 863 L642 863 Z"/>
            <glyph glyph-name="partialdiff" unicode="&#x2202;"
                   d="M69 422 Q69 542 110 645 Q151 748 222 823.5 Q293 899 390.5 942 Q488 985 602 985 Q702 985 773.5 949 Q845 913 893 848 Q894 868 894 888 Q894 908 894 927 Q894 1019 876.5 1088 Q859 1157 827.5 1203 Q796 1249 751.5 1272 Q707 1295 652 1295 Q613 1295 579 1285 Q545 1275 515.5 1262.5 Q486 1250 463 1240 Q440 1230 424 1230 Q410 1230 396.5 1238 Q383 1246 369 1271 L313 1367 Q354 1398 395.5 1422 Q437 1446 481.5 1462 Q526 1478 576.5 1486.5 Q627 1495 687 1495 Q782 1495 862.5 1456 Q943 1417 1000.5 1344 Q1058 1271 1090 1166 Q1122 1061 1122 928 Q1122 716 1083 542 Q1044 368 966.5 244 Q889 120 771.5 52.5 Q654 -15 498 -15 Q405 -15 326 15.5 Q247 46 190 103 Q133 160 101 241 Q69 322 69 422 ZM330 425 Q330 308 382.5 244.5 Q435 181 527 181 Q582 181 633 203.5 Q684 226 727 275.5 Q770 325 803.5 402.5 Q837 480 856 591 Q846 630 828.5 665.5 Q811 701 784 729 Q757 757 719 773.5 Q681 790 629 790 Q553 790 497 762.5 Q441 735 404 686.5 Q367 638 348.5 571.5 Q330 505 330 425 Z"/>
            <glyph glyph-name="uni2206" unicode="&#x2206;"
                   d="M12 0 L627 1481 L876 1481 L1489 0 L12 0 ZM379 218 L1123 218 L800 1052 Q789 1081 776.5 1118.5 Q764 1156 752 1200 Q740 1155 727.5 1117 Q715 1079 703 1050 L379 218 Z"/>
            <glyph glyph-name="product" unicode="&#x220f;"
                   d="M52 1269 L52 1481 L1353 1481 L1353 1269 L1182 1269 L1182 -343 L921 -343 L921 1269 L484 1269 L484 -343 L224 -343 L224 1269 L52 1269 Z"/>
            <glyph glyph-name="summation" unicode="&#x2211;"
                   d="M84 -255 Q84 -237 90 -217 Q96 -197 111 -179 L720 571 L111 1317 Q97 1334 90.5 1354 Q84 1374 84 1393 L84 1481 L1321 1481 L1321 1269 L475 1269 L1001 605 L1001 532 L475 -131 L1321 -131 L1321 -343 L84 -343 L84 -255 Z"/>
            <glyph glyph-name="radical" unicode="&#x221a;"
                   d="M54 759 L54 840 L415 840 Q444 840 462.5 826.5 Q481 813 487 793 L592 474 Q606 431 615 388 Q624 345 629 301 Q634 335 641.5 370.5 Q649 406 660 442 L1056 1700 Q1062 1720 1081 1733.5 Q1100 1747 1125 1747 L1292 1747 L729 0 L516 0 L273 657 L150 657 Q111 657 82.5 680 Q54 703 54 759 Z"/>
            <glyph glyph-name="infinity" unicode="&#x221e;"
                   d="M47 606 Q47 687 74 754.5 Q101 822 147.5 871 Q194 920 255 947 Q316 974 384 974 Q440 974 487 958.5 Q534 943 572.5 917 Q611 891 644 856 Q677 821 705 782 Q733 821 765 856 Q797 891 835.5 917 Q874 943 921 958.5 Q968 974 1024 974 Q1092 974 1153 947 Q1214 920 1260.5 871 Q1307 822 1334 754.5 Q1361 687 1361 606 Q1361 524 1334 456.5 Q1307 389 1260.5 340.5 Q1214 292 1153 265 Q1092 238 1024 238 Q968 238 921 253 Q874 268 835.5 294.5 Q797 321 764.5 355.5 Q732 390 705 429 Q677 390 644 355.5 Q611 321 572.5 294.5 Q534 268 487 253 Q440 238 384 238 Q316 238 255 265 Q194 292 147.5 340.5 Q101 389 74 456.5 Q47 524 47 606 ZM246 606 Q246 562 258 531 Q270 500 290.5 480 Q311 460 337.5 450.5 Q364 441 394 441 Q425 441 452 454 Q479 467 503 489 Q527 511 549 541 Q571 571 593 605 Q571 640 549 669.5 Q527 699 503 721.5 Q479 744 452 757 Q425 770 394 770 Q364 770 337.5 761 Q311 752 290.5 732 Q270 712 258 680.5 Q246 649 246 606 ZM816 605 Q838 571 859.5 541 Q881 511 905 489 Q929 467 955.5 454 Q982 441 1014 441 Q1044 441 1071 450.5 Q1098 460 1118.5 480 Q1139 500 1150.5 531 Q1162 562 1162 606 Q1162 649 1150 680.5 Q1138 712 1117.5 732 Q1097 752 1070 761 Q1043 770 1014 770 Q982 770 955.5 757 Q929 744 905 721.5 Q881 699 859.5 669.5 Q838 640 816 605 Z"/>
            <glyph glyph-name="integral" unicode="&#x222b;"
                   d="M-91 -315 L-78 -210 Q-76 -197 -72 -187 Q-68 -177 -58.5 -171 Q-49 -165 -33.5 -162 Q-18 -159 7 -159 Q66 -159 106.5 -147 Q147 -135 174 -110 Q201 -85 215 -45.5 Q229 -6 236 50 L368 1120 Q390 1298 482 1397.5 Q574 1497 737 1497 Q776 1497 817.5 1489.5 Q859 1482 896 1462 L884 1340 Q883 1330 879.5 1320 Q876 1310 867.5 1301.5 Q859 1293 845 1288 Q831 1283 810 1283 Q761 1283 725.5 1271.5 Q690 1260 666.5 1235 Q643 1210 628.5 1173.5 Q614 1137 608 1087 L477 58 Q464 -48 428.5 -125.5 Q393 -203 340.5 -252.5 Q288 -302 218 -326 Q148 -350 67 -350 Q30 -350 -12.5 -342.5 Q-55 -335 -91 -315 Z"/>
            <glyph glyph-name="approxequal" unicode="&#x2248;"
                   d="M161 546 Q180 575 206.5 595 Q233 615 265 628.5 Q297 642 332 648 Q367 654 402 654 Q456 654 510.5 638.5 Q565 623 617 604 Q669 585 718 569 Q767 553 811 553 Q843 553 873 560 Q903 567 928 578 Q953 589 971 600.5 Q989 612 996 622 L1027 461 Q988 410 924.5 385.5 Q861 361 795 361 Q741 361 687 377 Q633 393 581 412.5 Q529 432 480 448 Q431 464 387 464 Q353 464 322.5 456.5 Q292 449 267 438 Q242 427 223.5 414 Q205 401 198 392 L161 546 ZM161 910 Q180 939 206.5 959.5 Q233 980 265 993.5 Q297 1007 332 1013 Q367 1019 402 1019 Q456 1019 510.5 1003 Q565 987 617 968 Q669 949 718 933.5 Q767 918 811 918 Q843 918 873 925 Q903 932 928 942.5 Q953 953 971 965 Q989 977 996 986 L1027 825 Q988 774 924.5 750 Q861 726 795 726 Q741 726 687 742 Q633 758 581 777.5 Q529 797 480 812.5 Q431 828 387 828 Q353 828 322.5 820.5 Q292 813 267 802.5 Q242 792 223.5 779 Q205 766 198 757 L161 910 Z"/>
            <glyph glyph-name="notequal" unicode="&#x2260;"
                   d="M139 414 L139 602 L473 602 L559 775 L139 775 L139 963 L653 963 L766 1189 L947 1189 L834 963 L1047 963 L1047 775 L740 775 L653 602 L1047 602 L1047 414 L559 414 L439 173 L259 173 L379 414 L139 414 Z"/>
            <glyph glyph-name="lessequal" unicode="&#x2264;"
                   d="M142 82 L142 269 L953 269 L953 82 L142 82 ZM142 758 L142 859 L953 1247 L953 1075 Q953 1055 942 1037 Q931 1019 898 1005 L538 843 Q511 832 482.5 824 Q454 816 421 809 Q454 802 483 793.5 Q512 785 538 774 L897 609 Q930 594 941.5 576.5 Q953 559 953 539 L953 367 L142 758 Z"/>
            <glyph glyph-name="greaterequal" unicode="&#x2265;"
                   d="M234 82 L234 269 L1046 269 L1046 82 L234 82 ZM234 367 L234 539 Q234 559 246 576.5 Q258 594 291 609 L650 774 Q676 785 704.5 793.5 Q733 802 766 809 Q734 816 705 823.5 Q676 831 650 843 L290 1005 Q257 1019 245.5 1037 Q234 1055 234 1075 L234 1247 L1046 859 L1046 758 L234 367 Z"/>
            <glyph glyph-name="lozenge" unicode="&#x25ca;"
                   d="M116 737 L506 1568 L682 1568 L1072 737 L682 -93 L506 -93 L116 737 ZM323 737 L559 224 Q571 197 579.5 173.5 Q588 150 594 127 Q600 150 608 174 Q616 198 629 224 L869 737 L629 1250 Q617 1277 609 1301 Q601 1325 594 1348 Q587 1325 579 1301 Q571 1277 559 1250 L323 737 Z"/>
            <glyph glyph-name="uniE000" unicode="&#xe000;" d="M0 0 L0 1050 L1050 1050 L1050 0 L0 0 Z"/>
            <glyph glyph-name="uniFB01" unicode="&#xfb01;"
                   d="M24 938 L24 1041 L180 1041 L180 1075 Q180 1171 212 1253.5 Q244 1336 308.5 1396.5 Q373 1457 471 1491.5 Q569 1526 703 1526 Q746 1526 791.5 1521.5 Q837 1517 869 1506 L861 1375 Q859 1351 835.5 1346.5 Q812 1342 777 1342 Q678 1342 611 1325 Q544 1308 502.5 1273.5 Q461 1239 443 1187.5 Q425 1136 425 1067 L425 1041 L1076 1041 L1076 0 L823 0 L823 861 L433 861 L433 0 L180 0 L180 860 L89 874 Q59 879 41.5 894.5 Q24 910 24 938 Z"/>
            <glyph glyph-name="uniFB02" unicode="&#xfb02;"
                   d="M24 938 L24 1041 L180 1041 L180 1085 Q180 1169 206 1246 Q232 1323 286.5 1382 Q341 1441 424 1476 Q507 1511 621 1511 Q714 1511 797.5 1505 Q881 1499 964 1499 L1106 1499 L1106 0 L854 0 L854 1323 Q800 1325 748 1328 Q696 1331 660 1331 Q545 1331 485 1267 Q425 1203 425 1085 L425 1041 L674 1041 L674 861 L433 861 L433 0 L180 0 L180 860 L89 874 Q59 879 41.5 894.5 Q24 910 24 938 Z"/>
        </font>
</defs>
</svg>
